<svg xmlns="http://www.w3.org/2000/svg" xmlns:xlink="http://www.w3.org/1999/xlink" width="364" zoomAndPan="magnify" viewBox="0 0 273 91.5" height="122" preserveAspectRatio="xMidYMid meet" version="1.0"><defs><g/></defs><g fill="#1c2247" fill-opacity="1"><g transform="translate(10.235888, 43.164178)"><g><path d="M 22.6875 -7.765625 C 22.96875 -7.765625 23.1875 -7.679688 23.34375 -7.515625 C 23.5 -7.359375 23.578125 -7.144531 23.578125 -6.875 L 23.578125 -0.890625 C 23.578125 -0.296875 23.28125 0 22.6875 0 L 3.421875 0 C 3.148438 0 2.929688 -0.078125 2.765625 -0.234375 C 2.609375 -0.390625 2.53125 -0.609375 2.53125 -0.890625 L 2.53125 -28.609375 C 2.53125 -28.910156 2.609375 -29.132812 2.765625 -29.28125 C 2.929688 -29.425781 3.148438 -29.5 3.421875 -29.5 L 10.546875 -29.5 C 10.816406 -29.5 11.03125 -29.425781 11.1875 -29.28125 C 11.351562 -29.132812 11.4375 -28.910156 11.4375 -28.609375 L 11.4375 -7.765625 Z M 22.6875 -7.765625 "/></g></g></g><g fill="#1c2247" fill-opacity="1"><g transform="translate(37.72976, 43.164178)"><g><path d="M 30.046875 -1.34375 C 30.210938 -0.96875 30.222656 -0.644531 30.078125 -0.375 C 29.929688 -0.113281 29.628906 0.015625 29.171875 0.015625 L 22.078125 0.015625 C 21.734375 0.015625 21.421875 -0.0859375 21.140625 -0.296875 C 20.859375 -0.515625 20.660156 -0.785156 20.546875 -1.109375 L 19.875 -3.125 L 10.875 -3.125 L 10.203125 -1.125 C 10.097656 -0.832031 9.910156 -0.570312 9.640625 -0.34375 C 9.367188 -0.113281 9.035156 0 8.640625 0 L 1.578125 0 C 1.148438 0 0.847656 -0.125 0.671875 -0.375 C 0.503906 -0.625 0.507812 -0.953125 0.6875 -1.359375 L 12.75 -28.90625 C 12.914062 -29.28125 13.144531 -29.5625 13.4375 -29.75 C 13.738281 -29.945312 14.050781 -30.046875 14.375 -30.046875 L 16.46875 -30.046875 C 16.832031 -30.046875 17.148438 -29.9375 17.421875 -29.71875 C 17.703125 -29.5 17.910156 -29.226562 18.046875 -28.90625 Z M 13.09375 -9.65625 L 17.65625 -9.65625 L 15.359375 -16.375 Z M 13.09375 -9.65625 "/></g></g></g><g fill="#1c2247" fill-opacity="1"><g transform="translate(71.361365, 43.164178)"><g><path d="M 22.140625 -16.109375 C 23.054688 -15.785156 23.875 -15.289062 24.59375 -14.625 C 25.3125 -13.96875 25.875 -13.203125 26.28125 -12.328125 C 26.695312 -11.453125 26.90625 -10.519531 26.90625 -9.53125 C 26.90625 -8.195312 26.613281 -6.953125 26.03125 -5.796875 C 25.457031 -4.640625 24.660156 -3.625 23.640625 -2.75 C 22.628906 -1.882812 21.441406 -1.207031 20.078125 -0.71875 C 18.722656 -0.238281 17.253906 0 15.671875 0 L 3.421875 0 C 3.148438 0 2.929688 -0.078125 2.765625 -0.234375 C 2.609375 -0.390625 2.53125 -0.609375 2.53125 -0.890625 L 2.53125 -28.609375 C 2.53125 -28.910156 2.609375 -29.132812 2.765625 -29.28125 C 2.929688 -29.425781 3.148438 -29.5 3.421875 -29.5 L 14.84375 -29.5 C 16.289062 -29.5 17.640625 -29.289062 18.890625 -28.875 C 20.148438 -28.457031 21.253906 -27.867188 22.203125 -27.109375 C 23.148438 -26.359375 23.890625 -25.484375 24.421875 -24.484375 C 24.953125 -23.492188 25.21875 -22.421875 25.21875 -21.265625 C 25.21875 -20.523438 25.085938 -19.820312 24.828125 -19.15625 C 24.566406 -18.488281 24.207031 -17.894531 23.75 -17.375 C 23.289062 -16.851562 22.753906 -16.429688 22.140625 -16.109375 Z M 16.75 -19.90625 C 16.75 -20.363281 16.5625 -20.75 16.1875 -21.0625 C 15.820312 -21.382812 15.375 -21.546875 14.84375 -21.546875 L 11.4375 -21.546875 L 11.4375 -18.15625 L 14.84375 -18.15625 C 15.375 -18.15625 15.820312 -18.328125 16.1875 -18.671875 C 16.5625 -19.015625 16.75 -19.425781 16.75 -19.90625 Z M 15.484375 -7.984375 C 15.953125 -7.984375 16.375 -8.078125 16.75 -8.265625 C 17.132812 -8.453125 17.4375 -8.707031 17.65625 -9.03125 C 17.875 -9.351562 17.984375 -9.71875 17.984375 -10.125 C 17.984375 -10.582031 17.875 -11.003906 17.65625 -11.390625 C 17.4375 -11.773438 17.132812 -12.078125 16.75 -12.296875 C 16.375 -12.515625 15.953125 -12.625 15.484375 -12.625 L 11.4375 -12.625 L 11.4375 -7.984375 Z M 15.484375 -7.984375 "/></g></g></g><g fill="#1c2247" fill-opacity="1"><g transform="translate(102.429108, 43.164178)"><g><path d="M 24.65625 -8.4375 C 25.1875 -8.4375 25.601562 -8.285156 25.90625 -7.984375 C 26.21875 -7.679688 26.375 -7.285156 26.375 -6.796875 L 26.375 -1.21875 C 26.375 -0.863281 26.257812 -0.570312 26.03125 -0.34375 C 25.8125 -0.113281 25.515625 0 25.140625 0 L 3.78125 0 C 3.382812 0 3.078125 -0.113281 2.859375 -0.34375 C 2.640625 -0.570312 2.53125 -0.863281 2.53125 -1.21875 L 2.53125 -28.25 C 2.53125 -28.644531 2.640625 -28.953125 2.859375 -29.171875 C 3.078125 -29.390625 3.382812 -29.5 3.78125 -29.5 L 24.75 -29.5 C 25.144531 -29.5 25.453125 -29.382812 25.671875 -29.15625 C 25.898438 -28.9375 26.015625 -28.632812 26.015625 -28.25 L 26.015625 -22.34375 C 26.015625 -21.9375 25.898438 -21.617188 25.671875 -21.390625 C 25.453125 -21.171875 25.144531 -21.0625 24.75 -21.0625 L 11.4375 -21.0625 L 11.4375 -17.625 L 21 -17.625 C 21.445312 -17.625 21.796875 -17.503906 22.046875 -17.265625 C 22.304688 -17.035156 22.4375 -16.707031 22.4375 -16.28125 L 22.4375 -12.3125 C 22.4375 -11.914062 22.304688 -11.597656 22.046875 -11.359375 C 21.796875 -11.128906 21.445312 -11.015625 21 -11.015625 L 11.4375 -11.015625 L 11.4375 -8.4375 Z M 24.65625 -8.4375 "/></g></g></g><g fill="#1c2247" fill-opacity="1"><g transform="translate(133.613389, 43.164178)"><g><path d="M 22.6875 -7.765625 C 22.96875 -7.765625 23.1875 -7.679688 23.34375 -7.515625 C 23.5 -7.359375 23.578125 -7.144531 23.578125 -6.875 L 23.578125 -0.890625 C 23.578125 -0.296875 23.28125 0 22.6875 0 L 3.421875 0 C 3.148438 0 2.929688 -0.078125 2.765625 -0.234375 C 2.609375 -0.390625 2.53125 -0.609375 2.53125 -0.890625 L 2.53125 -28.609375 C 2.53125 -28.910156 2.609375 -29.132812 2.765625 -29.28125 C 2.929688 -29.425781 3.148438 -29.5 3.421875 -29.5 L 10.546875 -29.5 C 10.816406 -29.5 11.03125 -29.425781 11.1875 -29.28125 C 11.351562 -29.132812 11.4375 -28.910156 11.4375 -28.609375 L 11.4375 -7.765625 Z M 22.6875 -7.765625 "/></g></g></g><g fill="#1c2247" fill-opacity="1"><g transform="translate(161.107256, 43.164178)"><g><path d="M 22.6875 -7.765625 C 22.96875 -7.765625 23.1875 -7.679688 23.34375 -7.515625 C 23.5 -7.359375 23.578125 -7.144531 23.578125 -6.875 L 23.578125 -0.890625 C 23.578125 -0.296875 23.28125 0 22.6875 0 L 3.421875 0 C 3.148438 0 2.929688 -0.078125 2.765625 -0.234375 C 2.609375 -0.390625 2.53125 -0.609375 2.53125 -0.890625 L 2.53125 -28.609375 C 2.53125 -28.910156 2.609375 -29.132812 2.765625 -29.28125 C 2.929688 -29.425781 3.148438 -29.5 3.421875 -29.5 L 10.546875 -29.5 C 10.816406 -29.5 11.03125 -29.425781 11.1875 -29.28125 C 11.351562 -29.132812 11.4375 -28.910156 11.4375 -28.609375 L 11.4375 -7.765625 Z M 22.6875 -7.765625 "/></g></g></g><g fill="#1c2247" fill-opacity="1"><g transform="translate(188.601135, 43.164178)"><g><path d="M 30.046875 -1.34375 C 30.210938 -0.96875 30.222656 -0.644531 30.078125 -0.375 C 29.929688 -0.113281 29.628906 0.015625 29.171875 0.015625 L 22.078125 0.015625 C 21.734375 0.015625 21.421875 -0.0859375 21.140625 -0.296875 C 20.859375 -0.515625 20.660156 -0.785156 20.546875 -1.109375 L 19.875 -3.125 L 10.875 -3.125 L 10.203125 -1.125 C 10.097656 -0.832031 9.910156 -0.570312 9.640625 -0.34375 C 9.367188 -0.113281 9.035156 0 8.640625 0 L 1.578125 0 C 1.148438 0 0.847656 -0.125 0.671875 -0.375 C 0.503906 -0.625 0.507812 -0.953125 0.6875 -1.359375 L 12.75 -28.90625 C 12.914062 -29.28125 13.144531 -29.5625 13.4375 -29.75 C 13.738281 -29.945312 14.050781 -30.046875 14.375 -30.046875 L 16.46875 -30.046875 C 16.832031 -30.046875 17.148438 -29.9375 17.421875 -29.71875 C 17.703125 -29.5 17.910156 -29.226562 18.046875 -28.90625 Z M 13.09375 -9.65625 L 17.65625 -9.65625 L 15.359375 -16.375 Z M 13.09375 -9.65625 "/></g></g></g><g fill="#1c2247" fill-opacity="1"><g transform="translate(222.232746, 43.164178)"><g><path d="M 1.46875 -26.609375 C 1.46875 -27.328125 1.632812 -27.96875 1.96875 -28.53125 C 2.3125 -29.101562 2.773438 -29.5625 3.359375 -29.90625 C 3.941406 -30.25 4.597656 -30.421875 5.328125 -30.421875 C 6.078125 -30.421875 6.757812 -30.210938 7.375 -29.796875 C 7.988281 -29.390625 8.476562 -28.835938 8.84375 -28.140625 C 9.21875 -27.453125 9.40625 -26.675781 9.40625 -25.8125 C 9.40625 -24.726562 9.3125 -23.753906 9.125 -22.890625 C 8.945312 -22.023438 8.675781 -21.203125 8.3125 -20.421875 C 7.945312 -19.640625 7.492188 -18.820312 6.953125 -17.96875 C 6.828125 -17.757812 6.632812 -17.625 6.375 -17.5625 C 6.125 -17.507812 5.890625 -17.546875 5.671875 -17.671875 L 3.765625 -18.703125 C 3.578125 -18.804688 3.472656 -18.988281 3.453125 -19.25 C 3.429688 -19.519531 3.5 -19.796875 3.65625 -20.078125 C 3.832031 -20.378906 4.023438 -20.703125 4.234375 -21.046875 C 4.441406 -21.390625 4.617188 -21.707031 4.765625 -22 C 4.910156 -22.289062 4.984375 -22.515625 4.984375 -22.671875 C 4.984375 -22.753906 4.972656 -22.828125 4.953125 -22.890625 C 4.941406 -22.953125 4.921875 -23 4.890625 -23.03125 C 4.859375 -23.019531 4.8125 -23.007812 4.75 -23 C 4.6875 -23 4.585938 -23 4.453125 -23 C 3.898438 -23 3.394531 -23.15625 2.9375 -23.46875 C 2.488281 -23.789062 2.128906 -24.222656 1.859375 -24.765625 C 1.597656 -25.316406 1.46875 -25.929688 1.46875 -26.609375 Z M 1.46875 -26.609375 "/></g></g></g><g fill="#1c2247" fill-opacity="1"><g transform="translate(236.033271, 43.164178)"><g><path d="M 14.15625 0.546875 C 12.457031 0.546875 10.816406 0.347656 9.234375 -0.046875 C 7.648438 -0.441406 6.210938 -1.003906 4.921875 -1.734375 C 3.628906 -2.472656 2.582031 -3.335938 1.78125 -4.328125 C 1.59375 -4.578125 1.523438 -4.859375 1.578125 -5.171875 C 1.628906 -5.492188 1.796875 -5.800781 2.078125 -6.09375 L 6.359375 -10.390625 C 6.585938 -10.640625 6.867188 -10.753906 7.203125 -10.734375 C 7.546875 -10.710938 7.882812 -10.570312 8.21875 -10.3125 C 9.0625 -9.664062 9.957031 -9.113281 10.90625 -8.65625 C 11.851562 -8.195312 12.804688 -7.96875 13.765625 -7.96875 C 14.597656 -7.96875 15.195312 -8.0625 15.5625 -8.25 C 15.9375 -8.4375 16.125 -8.695312 16.125 -9.03125 C 16.125 -9.25 16.0625 -9.441406 15.9375 -9.609375 C 15.820312 -9.785156 15.613281 -9.953125 15.3125 -10.109375 C 15.007812 -10.273438 14.566406 -10.457031 13.984375 -10.65625 C 13.410156 -10.851562 12.660156 -11.085938 11.734375 -11.359375 C 10.128906 -11.828125 8.753906 -12.335938 7.609375 -12.890625 C 6.472656 -13.453125 5.546875 -14.085938 4.828125 -14.796875 C 4.109375 -15.515625 3.582031 -16.34375 3.25 -17.28125 C 2.925781 -18.226562 2.765625 -19.328125 2.765625 -20.578125 C 2.765625 -22.503906 3.222656 -24.175781 4.140625 -25.59375 C 5.054688 -27.007812 6.351562 -28.101562 8.03125 -28.875 C 9.71875 -29.65625 11.707031 -30.046875 14 -30.046875 C 15.15625 -30.046875 16.289062 -29.894531 17.40625 -29.59375 C 18.53125 -29.300781 19.570312 -28.898438 20.53125 -28.390625 C 21.488281 -27.878906 22.28125 -27.285156 22.90625 -26.609375 C 23.1875 -26.316406 23.332031 -25.972656 23.34375 -25.578125 C 23.363281 -25.191406 23.222656 -24.832031 22.921875 -24.5 L 19.484375 -20.53125 C 19.066406 -20.050781 18.664062 -19.820312 18.28125 -19.84375 C 17.90625 -19.875 17.484375 -20.023438 17.015625 -20.296875 C 16.390625 -20.671875 15.769531 -20.972656 15.15625 -21.203125 C 14.550781 -21.441406 14.019531 -21.5625 13.5625 -21.5625 C 12.894531 -21.5625 12.382812 -21.46875 12.03125 -21.28125 C 11.675781 -21.09375 11.5 -20.820312 11.5 -20.46875 C 11.5 -19.988281 11.929688 -19.566406 12.796875 -19.203125 C 13.671875 -18.847656 14.84375 -18.460938 16.3125 -18.046875 C 17.300781 -17.773438 18.238281 -17.476562 19.125 -17.15625 C 20.019531 -16.832031 20.847656 -16.453125 21.609375 -16.015625 C 22.367188 -15.578125 23.03125 -15.050781 23.59375 -14.4375 C 24.15625 -13.832031 24.59375 -13.097656 24.90625 -12.234375 C 25.21875 -11.378906 25.375 -10.363281 25.375 -9.1875 C 25.375 -7.695312 25.085938 -6.347656 24.515625 -5.140625 C 23.941406 -3.941406 23.144531 -2.921875 22.125 -2.078125 C 21.113281 -1.234375 19.925781 -0.582031 18.5625 -0.125 C 17.207031 0.320312 15.738281 0.546875 14.15625 0.546875 Z M 14.15625 0.546875 "/></g></g></g><g fill="#1c2247" fill-opacity="1"><g transform="translate(72.589441, 80.932716)"><g><path d="M 10.625 -22.125 C 12.082031 -22.125 13.421875 -21.898438 14.640625 -21.453125 C 15.859375 -21.003906 16.914062 -20.375 17.8125 -19.5625 C 18.71875 -18.757812 19.414062 -17.8125 19.90625 -16.71875 C 20.40625 -15.625 20.65625 -14.421875 20.65625 -13.109375 C 20.65625 -11.804688 20.40625 -10.609375 19.90625 -9.515625 C 19.414062 -8.429688 18.71875 -7.488281 17.8125 -6.6875 C 16.914062 -5.882812 15.859375 -5.265625 14.640625 -4.828125 C 13.421875 -4.398438 12.082031 -4.1875 10.625 -4.1875 L 8.578125 -4.1875 L 8.578125 -0.921875 C 8.578125 -0.648438 8.488281 -0.425781 8.3125 -0.25 C 8.132812 -0.0820312 7.894531 0 7.59375 0 L 2.828125 0 C 2.523438 0 2.289062 -0.0820312 2.125 -0.25 C 1.96875 -0.414062 1.890625 -0.640625 1.890625 -0.921875 L 1.890625 -21.171875 C 1.890625 -21.453125 1.976562 -21.679688 2.15625 -21.859375 C 2.332031 -22.035156 2.554688 -22.125 2.828125 -22.125 L 5.390625 -22.125 C 5.867188 -22.125 6.3125 -22.125 6.71875 -22.125 C 7.125 -22.125 7.425781 -22.125 7.625 -22.125 Z M 10.171875 -10 C 10.898438 -10 11.550781 -10.132812 12.125 -10.40625 C 12.695312 -10.675781 13.148438 -11.046875 13.484375 -11.515625 C 13.816406 -11.992188 13.984375 -12.535156 13.984375 -13.140625 C 13.984375 -13.753906 13.816406 -14.296875 13.484375 -14.765625 C 13.148438 -15.234375 12.695312 -15.601562 12.125 -15.875 C 11.550781 -16.144531 10.898438 -16.28125 10.171875 -16.28125 L 8.578125 -16.28125 L 8.578125 -10 Z M 10.171875 -10 "/></g></g></g><g fill="#1c2247" fill-opacity="1"><g transform="translate(101.572936, 80.932716)"><g><path d="M 8.5625 -21.453125 L 8.5625 -0.671875 C 8.5625 -0.222656 8.335938 0 7.890625 0 L 2.5625 0 C 2.113281 0 1.890625 -0.222656 1.890625 -0.671875 L 1.890625 -21.453125 C 1.890625 -21.898438 2.113281 -22.125 2.5625 -22.125 L 7.890625 -22.125 C 8.335938 -22.125 8.5625 -21.898438 8.5625 -21.453125 Z M 8.5625 -21.453125 "/></g></g></g><g fill="#1c2247" fill-opacity="1"><g transform="translate(119.488449, 80.932716)"><g><path d="M 19.6875 -5.8125 C 19.957031 -5.8125 20.171875 -5.734375 20.328125 -5.578125 C 20.484375 -5.429688 20.5625 -5.222656 20.5625 -4.953125 L 20.5625 -0.828125 C 20.5625 -0.566406 20.484375 -0.359375 20.328125 -0.203125 C 20.171875 -0.0546875 19.957031 0.015625 19.6875 0.015625 L 1.34375 0 C 1.070312 0 0.84375 -0.078125 0.65625 -0.234375 C 0.476562 -0.398438 0.390625 -0.601562 0.390625 -0.84375 C 0.390625 -1.070312 0.425781 -1.28125 0.5 -1.46875 C 0.570312 -1.664062 0.648438 -1.828125 0.734375 -1.953125 L 9.625 -16.3125 L 2.625 -16.296875 C 2.351562 -16.296875 2.140625 -16.375 1.984375 -16.53125 C 1.835938 -16.6875 1.765625 -16.898438 1.765625 -17.171875 L 1.765625 -21.265625 C 1.765625 -21.523438 1.835938 -21.734375 1.984375 -21.890625 C 2.140625 -22.046875 2.351562 -22.125 2.625 -22.125 L 19.21875 -22.125 C 19.5 -22.125 19.71875 -22.046875 19.875 -21.890625 C 20.03125 -21.734375 20.109375 -21.523438 20.109375 -21.265625 C 20.109375 -21.097656 20.078125 -20.941406 20.015625 -20.796875 C 19.960938 -20.660156 19.898438 -20.523438 19.828125 -20.390625 L 11 -5.8125 Z M 19.6875 -5.8125 "/></g></g></g><g fill="#1c2247" fill-opacity="1"><g transform="translate(148.428261, 80.932716)"><g><path d="M 19.6875 -5.8125 C 19.957031 -5.8125 20.171875 -5.734375 20.328125 -5.578125 C 20.484375 -5.429688 20.5625 -5.222656 20.5625 -4.953125 L 20.5625 -0.828125 C 20.5625 -0.566406 20.484375 -0.359375 20.328125 -0.203125 C 20.171875 -0.0546875 19.957031 0.015625 19.6875 0.015625 L 1.34375 0 C 1.070312 0 0.84375 -0.078125 0.65625 -0.234375 C 0.476562 -0.398438 0.390625 -0.601562 0.390625 -0.84375 C 0.390625 -1.070312 0.425781 -1.28125 0.5 -1.46875 C 0.570312 -1.664062 0.648438 -1.828125 0.734375 -1.953125 L 9.625 -16.3125 L 2.625 -16.296875 C 2.351562 -16.296875 2.140625 -16.375 1.984375 -16.53125 C 1.835938 -16.6875 1.765625 -16.898438 1.765625 -17.171875 L 1.765625 -21.265625 C 1.765625 -21.523438 1.835938 -21.734375 1.984375 -21.890625 C 2.140625 -22.046875 2.351562 -22.125 2.625 -22.125 L 19.21875 -22.125 C 19.5 -22.125 19.71875 -22.046875 19.875 -21.890625 C 20.03125 -21.734375 20.109375 -21.523438 20.109375 -21.265625 C 20.109375 -21.097656 20.078125 -20.941406 20.015625 -20.796875 C 19.960938 -20.660156 19.898438 -20.523438 19.828125 -20.390625 L 11 -5.8125 Z M 19.6875 -5.8125 "/></g></g></g><g fill="#1c2247" fill-opacity="1"><g transform="translate(177.368072, 80.932716)"><g><path d="M 22.53125 -1 C 22.65625 -0.71875 22.660156 -0.476562 22.546875 -0.28125 C 22.441406 -0.0820312 22.21875 0.015625 21.875 0.015625 L 16.5625 0.015625 C 16.300781 0.015625 16.066406 -0.0625 15.859375 -0.21875 C 15.648438 -0.382812 15.5 -0.585938 15.40625 -0.828125 L 14.90625 -2.34375 L 8.15625 -2.34375 L 7.640625 -0.84375 C 7.566406 -0.625 7.425781 -0.425781 7.21875 -0.25 C 7.019531 -0.0820312 6.773438 0 6.484375 0 L 1.1875 0 C 0.863281 0 0.640625 -0.09375 0.515625 -0.28125 C 0.390625 -0.46875 0.390625 -0.710938 0.515625 -1.015625 L 9.546875 -21.671875 C 9.679688 -21.953125 9.859375 -22.164062 10.078125 -22.3125 C 10.296875 -22.457031 10.53125 -22.53125 10.78125 -22.53125 L 12.34375 -22.53125 C 12.625 -22.53125 12.867188 -22.445312 13.078125 -22.28125 C 13.285156 -22.113281 13.4375 -21.910156 13.53125 -21.671875 Z M 9.8125 -7.234375 L 13.234375 -7.234375 L 11.515625 -12.28125 Z M 9.8125 -7.234375 "/></g></g></g></svg>