<svg xmlns="http://www.w3.org/2000/svg" xmlns:xlink="http://www.w3.org/1999/xlink" width="364" zoomAndPan="magnify" viewBox="0 0 273 91.5" height="122" preserveAspectRatio="xMidYMid meet" version="1.0"><defs><g/><clipPath id="a9be9bb1ac"><path d="M 9.796875 43.191406 L 15.976562 43.191406 L 15.976562 49.371094 L 9.796875 49.371094 Z M 9.796875 43.191406 " clip-rule="nonzero"/></clipPath><clipPath id="2235fa1818"><path d="M 12.886719 43.191406 C 11.179688 43.191406 9.796875 44.574219 9.796875 46.28125 C 9.796875 47.988281 11.179688 49.371094 12.886719 49.371094 C 14.59375 49.371094 15.976562 47.988281 15.976562 46.28125 C 15.976562 44.574219 14.59375 43.191406 12.886719 43.191406 Z M 12.886719 43.191406 " clip-rule="nonzero"/></clipPath><clipPath id="6656b44c21"><path d="M 5.230469 5.070312 L 87.28125 5.070312 L 87.28125 87.125 L 5.230469 87.125 Z M 5.230469 5.070312 " clip-rule="nonzero"/></clipPath><clipPath id="9aebc1112f"><path d="M 46.433594 5.070312 C 23.675781 5.070312 5.230469 23.519531 5.230469 46.277344 C 5.230469 69.035156 23.675781 87.484375 46.433594 87.484375 C 69.191406 87.484375 87.640625 69.035156 87.640625 46.277344 C 87.640625 23.519531 69.191406 5.070312 46.433594 5.070312 Z M 46.433594 5.070312 " clip-rule="nonzero"/></clipPath><clipPath id="bf3281b284"><path d="M 17.570312 17.414062 L 75.007812 17.414062 L 75.007812 74.851562 L 17.570312 74.851562 Z M 17.570312 17.414062 " clip-rule="nonzero"/></clipPath><clipPath id="c523680ab1"><path d="M 77.574219 43.191406 L 83.753906 43.191406 L 83.753906 49.371094 L 77.574219 49.371094 Z M 77.574219 43.191406 " clip-rule="nonzero"/></clipPath><clipPath id="2498f0aa78"><path d="M 80.664062 43.191406 C 78.957031 43.191406 77.574219 44.574219 77.574219 46.28125 C 77.574219 47.988281 78.957031 49.371094 80.664062 49.371094 C 82.371094 49.371094 83.753906 47.988281 83.753906 46.28125 C 83.753906 44.574219 82.371094 43.191406 80.664062 43.191406 Z M 80.664062 43.191406 " clip-rule="nonzero"/></clipPath></defs><g clip-path="url(#a9be9bb1ac)"><g clip-path="url(#2235fa1818)"><path fill="#008037" d="M 9.796875 43.191406 L 15.976562 43.191406 L 15.976562 49.371094 L 9.796875 49.371094 Z M 9.796875 43.191406 " fill-opacity="1" fill-rule="nonzero"/></g></g><g clip-path="url(#6656b44c21)"><g clip-path="url(#9aebc1112f)"><path stroke-linecap="butt" transform="matrix(0.745924, 0, 0, 0.745924, 5.228557, 5.07144)" fill="none" stroke-linejoin="miter" d="M 55.24027 -0.00151208 C 24.730706 -0.00151208 0.00256317 24.731868 0.00256317 55.241432 C 0.00256317 85.750996 24.730706 110.484376 55.24027 110.484376 C 85.749834 110.484376 110.483214 85.750996 110.483214 55.241432 C 110.483214 24.731868 85.749834 -0.00151208 55.24027 -0.00151208 Z M 55.24027 -0.00151208 " stroke="#ffffff" stroke-width="4" stroke-opacity="1" stroke-miterlimit="4"/></g></g><g clip-path="url(#bf3281b284)"><path fill="#b8b8ca" d="M 75.007812 46.132812 C 75.007812 61.992188 62.148438 74.851562 46.289062 74.851562 C 30.425781 74.851562 17.570312 61.992188 17.570312 46.132812 C 17.570312 30.273438 30.425781 17.414062 46.289062 17.414062 C 62.148438 17.414062 75.007812 30.273438 75.007812 46.132812 " fill-opacity="1" fill-rule="nonzero"/></g><path fill="#1c2247" d="M 46.289062 18.402344 C 61.605469 18.402344 74.019531 30.816406 74.019531 46.132812 C 74.019531 61.449219 61.605469 73.863281 46.289062 73.863281 C 30.972656 73.863281 18.558594 61.449219 18.558594 46.132812 C 18.558594 30.816406 30.972656 18.402344 46.289062 18.402344 " fill-opacity="1" fill-rule="nonzero"/><path fill="#ffffff" d="M 20.714844 46.132812 C 20.714844 32.007812 32.164062 20.558594 46.289062 20.558594 C 60.410156 20.558594 71.859375 32.007812 71.859375 46.132812 C 71.859375 60.253906 60.410156 71.703125 46.289062 71.703125 C 32.164062 71.703125 20.714844 60.253906 20.714844 46.132812 " fill-opacity="1" fill-rule="nonzero"/><path fill="#ffffff" d="M 46.289062 21.515625 C 59.882812 21.515625 70.90625 32.535156 70.90625 46.132812 C 70.90625 59.726562 59.882812 70.75 46.289062 70.75 C 32.691406 70.75 21.671875 59.726562 21.671875 46.132812 C 21.671875 32.535156 32.691406 21.515625 46.289062 21.515625 " fill-opacity="1" fill-rule="nonzero"/><path fill="#349c3d" d="M 37.398438 23.167969 L 37.398438 69.097656 C 28.195312 65.53125 21.671875 56.59375 21.671875 46.132812 C 21.671875 35.671875 28.195312 26.734375 37.398438 23.167969 " fill-opacity="1" fill-rule="nonzero"/><path fill="#ec2236" d="M 55.128906 69.113281 L 55.128906 23.148438 C 64.355469 26.699219 70.90625 35.652344 70.90625 46.132812 C 70.90625 56.613281 64.355469 65.5625 55.128906 69.113281 " fill-opacity="1" fill-rule="nonzero"/><path fill="#ce222a" d="M 55.128906 23.390625 C 55.191406 23.335938 55.253906 23.277344 55.316406 23.222656 C 61.636719 25.714844 66.675781 30.746094 69.179688 37.058594 C 68.417969 40.503906 66.011719 41.304688 62.261719 39.082031 C 62.277344 39.378906 62.035156 39.578125 62.035156 39.578125 C 62.664062 39.777344 62.753906 40.070312 62.664062 40.757812 C 63.179688 40.859375 63.570312 41.285156 63.742188 41.988281 C 64.804688 42.210938 65.472656 42.890625 65.601562 43.628906 C 66.335938 43.972656 67.261719 44.621094 68.214844 45.570312 C 69.820312 47.363281 68.816406 51.824219 66.058594 55.636719 C 66.976562 57.859375 65.214844 60.410156 63.269531 60.34375 C 62.738281 61.019531 60.941406 63.230469 59.921875 64.296875 C 60.023438 65.066406 60.125 65.777344 60.21875 66.433594 C 58.644531 67.515625 56.9375 68.417969 55.128906 69.113281 L 55.128906 23.390625 " fill-opacity="1" fill-rule="nonzero"/><path fill="#1c2247" d="M 32.207031 67.480469 C 33.265625 65.429688 34.628906 63.074219 35.507812 61.585938 C 46.707031 61.757812 53.832031 62.882812 56.878906 64.957031 C 57.128906 66.722656 57.328125 68.089844 57.417969 69.164062 C 54.050781 70.789062 50.277344 71.703125 46.289062 71.703125 C 41.085938 71.703125 36.246094 70.152344 32.207031 67.480469 " fill-opacity="1" fill-rule="nonzero"/><path fill="#1c2247" d="M 18.957031 45.589844 C 18.957031 40.6875 24.550781 36.710938 31.457031 36.710938 C 38.359375 36.710938 43.957031 40.6875 43.957031 45.589844 C 43.957031 50.492188 38.359375 54.46875 31.457031 54.46875 C 24.550781 54.46875 18.957031 50.492188 18.957031 45.589844 " fill-opacity="1" fill-rule="nonzero"/><path fill="#1c2247" d="M 56.570312 62.71875 C 56.675781 63.527344 56.78125 64.269531 56.878906 64.953125 C 53.03125 64.347656 45.554688 63.167969 35.507812 61.582031 C 36.042969 60.679688 36.738281 59.554688 36.738281 59.554688 C 37.039062 57.773438 37.042969 57.234375 37.304688 55.375 L 35.460938 55.277344 C 35 55.285156 34.09375 55.265625 33.859375 54.800781 C 32.742188 54.609375 32.226562 54.28125 32.28125 53.820312 C 31.28125 53.859375 30.457031 53.445312 30.34375 52.847656 C 28.859375 52.667969 28.488281 52.285156 28.320312 51.589844 L 40.644531 40.488281 C 41.34375 40.089844 42.722656 39.625 45.246094 39.40625 C 45.210938 38.304688 46.003906 37.636719 47.460938 37.355469 C 48.148438 36.527344 49.15625 36.152344 50.273438 36.480469 C 50.082031 35.265625 50.167969 34.417969 50.433594 33.40625 C 50.484375 32.546875 50.316406 32.121094 50.699219 31.261719 C 48.238281 29.492188 47.457031 27.984375 48.191406 26.722656 C 47.640625 23.808594 49.070312 21.625 51.519531 22.0625 C 53.28125 20.234375 56.675781 19.210938 59.152344 20.886719 C 62.363281 20.910156 65.664062 22.632812 65.925781 26.894531 C 68.167969 28.222656 68.019531 31.167969 66.046875 33.921875 C 65.699219 38.648438 63.171875 40.03125 58.90625 37.503906 C 58.925781 37.800781 58.683594 38 58.683594 38 C 59.3125 38.199219 59.402344 38.492188 59.3125 39.179688 C 59.828125 39.28125 60.214844 39.707031 60.390625 40.410156 C 61.449219 40.632812 62.117188 41.3125 62.25 42.050781 C 62.980469 42.394531 63.910156 43.042969 64.863281 43.996094 C 66.46875 45.785156 65.464844 50.246094 62.703125 54.058594 C 63.625 56.28125 61.863281 58.832031 59.917969 58.765625 C 59.382812 59.445312 57.589844 61.652344 56.570312 62.71875 " fill-opacity="1" fill-rule="evenodd"/><path fill="#1c2247" d="M 18.523438 44.378906 C 18.523438 39.476562 24.121094 35.503906 31.023438 35.503906 C 37.925781 35.503906 43.523438 39.476562 43.523438 44.378906 C 43.523438 49.28125 37.925781 53.257812 31.023438 53.257812 C 24.121094 53.257812 18.523438 49.28125 18.523438 44.378906 " fill-opacity="1" fill-rule="nonzero"/><path fill="#1c2247" d="M 29.460938 36.054688 L 28.414062 35.171875 C 27.359375 35.191406 26.070312 35 24.550781 34.601562 C 24.003906 35.449219 24.761719 36.050781 26.816406 36.40625 L 25.410156 36.976562 L 24.148438 37.074219 L 21.503906 35.957031 C 20.929688 35.890625 20.75 36.128906 20.957031 36.675781 L 22.933594 38.007812 L 22.644531 38.152344 L 20.691406 37.074219 C 20.171875 37.039062 19.917969 37.25 19.929688 37.71875 L 21.722656 39.027344 L 21.648438 39.222656 L 19.976562 38.007812 C 19.222656 37.886719 18.914062 38.132812 19.042969 38.746094 L 20.765625 39.9375 C 20.667969 40.058594 19.40625 39.339844 19.40625 39.339844 C 18.640625 39.308594 18.410156 39.554688 18.714844 40.082031 L 20.910156 41.316406 L 29.460938 36.054688 " fill-opacity="1" fill-rule="evenodd"/><path fill="#ffffff" d="M 51.722656 29.523438 L 51.5 30.316406 L 51.402344 31.007812 C 51.019531 31.59375 50.886719 32.410156 51.007812 33.453125 C 50.761719 34.371094 50.679688 35.410156 50.769531 36.574219 C 50.871094 37.566406 52.152344 38.027344 54.089844 38.253906 C 54.800781 38.359375 55.914062 37.898438 57.425781 36.871094 C 55.839844 39.023438 53.902344 39.523438 51.621094 38.371094 C 51.296875 38.933594 51.148438 39.527344 51.164062 40.148438 C 51.761719 39.738281 52.375 39.996094 53.003906 40.917969 C 54.824219 41.058594 56.421875 40.34375 57.800781 38.765625 L 58.648438 35.921875 C 60.109375 37.6875 62.160156 31.417969 59.296875 33.691406 L 58.605469 33.390625 L 58.425781 32.308594 L 58.796875 31.546875 C 55.707031 29.265625 52.917969 29.015625 51.722656 29.523438 " fill-opacity="1" fill-rule="evenodd"/><path fill="#ffffff" d="M 60.257812 32.484375 C 57.789062 29.410156 54.046875 28.589844 51.742188 29.003906 C 51.882812 28.472656 52.222656 27.871094 52.757812 27.195312 C 56.15625 26.800781 58.738281 28.015625 60.503906 30.851562 L 60.257812 32.484375 " fill-opacity="1" fill-rule="evenodd"/><path fill="#ffffff" d="M 52.210938 27.246094 C 51.617188 27.5625 51.234375 28.246094 51.050781 29.296875 C 50.835938 29.570312 50.738281 29.859375 50.757812 30.160156 C 49.519531 29.484375 48.804688 28.628906 48.609375 27.597656 C 49.125 28.28125 49.945312 29.570312 50.585938 29.101562 C 47.445312 26.832031 48.3125 22.507812 51.277344 22.609375 L 51.078125 23.550781 C 53.21875 20.855469 55.675781 20.082031 58.453125 21.226562 L 57.597656 21.917969 C 63.011719 20.269531 65.539062 25.097656 65.148438 27.273438 L 64.925781 27.695312 C 66.980469 27.035156 68.207031 30.753906 63.914062 34.632812 C 64.332031 34.742188 64.855469 34.488281 65.492188 33.867188 C 65.289062 37.855469 63.117188 38.894531 58.976562 36.972656 L 59.097656 36.554688 C 59.167969 36.804688 59.753906 36.992188 60.851562 37.121094 L 59.785156 36.433594 C 61.152344 35.601562 61.445312 33.789062 61.050781 33.175781 L 61.125 32.308594 C 61.542969 32.71875 62.363281 32.828125 63.589844 32.632812 C 61.746094 32.375 60.921875 31.855469 61.125 31.078125 C 61.613281 31.382812 62.34375 31.222656 63.316406 30.601562 C 61.894531 30.867188 61.121094 30.84375 61 30.535156 C 60.371094 29.675781 59.710938 28.953125 59.027344 28.363281 C 59.746094 28.367188 60.476562 28.203125 61.21875 27.863281 C 58.511719 27.84375 56.710938 27.5 55.816406 26.832031 C 55.574219 26.039062 55.976562 24.878906 57.023438 23.351562 C 55.863281 24.25 55.28125 25.386719 55.273438 26.753906 L 52.949219 26.753906 C 52.421875 26.320312 52.292969 25.464844 52.558594 24.191406 C 51.757812 25.578125 51.757812 26.179688 52.210938 27.246094 " fill-opacity="1" fill-rule="evenodd"/><path fill="#1c2247" d="M 53.65625 30.960938 L 53.183594 30.625 C 52.675781 30.46875 52.289062 30.402344 52.019531 30.421875 L 51.953125 30.878906 L 52.53125 31.523438 L 53.117188 31.5 L 53.046875 31.886719 L 53.65625 30.960938 " fill-opacity="1" fill-rule="evenodd"/><path fill="#1c2247" d="M 54.96875 31.113281 L 54.835938 31.535156 C 54.925781 31.746094 55.195312 32.085938 55.597656 32.402344 L 56.722656 32.277344 L 56.90625 32.375 L 57.160156 32.308594 L 56.65625 31.566406 C 55.792969 31.277344 55.230469 31.125 54.96875 31.113281 " fill-opacity="1" fill-rule="evenodd"/><path fill="#1c2247" d="M 53.539062 33.230469 C 53.0625 33.28125 52.878906 33.128906 52.609375 32.964844 L 52.320312 33.65625 L 52.609375 33.648438 L 52.773438 33.707031 L 53 34.050781 L 53.222656 33.820312 C 53.429688 33.886719 53.753906 34.253906 54.339844 34.152344 C 53.933594 34.035156 53.722656 33.582031 53.539062 33.230469 " fill-opacity="1" fill-rule="evenodd"/><path fill="#1c2247" d="M 54.617188 35.359375 L 53.402344 34.800781 L 52.914062 34.816406 L 52.574219 34.515625 C 52.15625 34.472656 51.898438 34.449219 51.644531 34.359375 L 51.515625 34.5 L 52.070312 34.734375 C 52.3125 35.070312 52.929688 35.261719 53.925781 35.308594 L 54.640625 35.5625 L 54.617188 35.359375 " fill-opacity="1" fill-rule="evenodd"/><path fill="#1c2247" d="M 53.683594 36.070312 C 52.636719 35.949219 52.214844 35.675781 51.800781 35.34375 L 52.082031 36.019531 C 52.445312 36.007812 53.085938 36.195312 53.921875 36.65625 L 53.683594 36.070312 " fill-opacity="1" fill-rule="evenodd"/><path fill="#ffffff" d="M 58.546875 38.738281 C 56.675781 40.621094 54.742188 41.535156 52.742188 41.476562 C 52.554688 42.027344 52.296875 42.417969 51.972656 42.652344 C 53.050781 43.160156 56.292969 43.050781 61.703125 42.324219 C 61.621094 41.550781 61.144531 41.148438 60.265625 41.113281 C 59.1875 41.765625 58.070312 42.140625 56.917969 42.246094 C 58.035156 41.886719 59.03125 41.382812 59.902344 40.734375 C 59.742188 40.085938 59.457031 39.777344 59.042969 39.808594 C 58.089844 41.121094 56.808594 41.914062 55.195312 42.195312 C 56.824219 41.613281 58.050781 40.648438 58.886719 39.300781 C 58.8125 38.859375 58.699219 38.671875 58.546875 38.738281 " fill-opacity="1" fill-rule="evenodd"/><path fill="#ffffff" d="M 50.332031 37.171875 C 49.785156 37.914062 49.933594 38.894531 50.773438 40.121094 C 50.113281 40.316406 49.746094 41.042969 49.664062 42.296875 C 48.648438 42.183594 47.316406 41.390625 45.675781 39.910156 C 45.824219 38.824219 46.375 38.203125 47.332031 38.046875 C 47.277344 38.867188 47.859375 39.824219 49.078125 40.917969 C 48.238281 39.699219 47.867188 38.671875 47.957031 37.839844 C 48.089844 37.117188 48.882812 36.894531 50.332031 37.171875 " fill-opacity="1" fill-rule="evenodd"/><path fill="#ffffff" d="M 52.324219 40.628906 C 50.804688 40.214844 50.085938 40.890625 50.175781 42.652344 L 50.589844 43.015625 C 50.394531 42.261719 50.445312 41.773438 50.75 41.554688 C 50.609375 42.304688 50.714844 42.796875 51.074219 43.027344 L 51.632812 42.9375 C 52.15625 42.101562 52.421875 41.570312 52.429688 41.347656 L 52.324219 40.628906 " fill-opacity="1" fill-rule="evenodd"/><path fill="#ffffff" d="M 49.769531 42.730469 C 47.394531 43.316406 46.5625 45.363281 47.265625 48.871094 C 48.738281 46.875 49.5 44.503906 50.460938 43.851562 L 50.277344 43.316406 C 49.347656 43.667969 48.59375 44.539062 48.007812 45.921875 C 48.296875 44.523438 48.992188 43.539062 50.097656 42.964844 L 49.769531 42.730469 " fill-opacity="1" fill-rule="evenodd"/><path fill="#ffffff" d="M 50.671875 43.523438 C 50.257812 45.679688 50.394531 47.9375 51.074219 50.304688 C 52.976562 47.054688 53.242188 44.691406 51.871094 43.210938 L 51.28125 43.394531 C 51.480469 44.300781 51.503906 45.046875 51.359375 45.625 C 51.261719 44.589844 51.03125 43.886719 50.671875 43.523438 " fill-opacity="1" fill-rule="evenodd"/><path fill="#ffffff" d="M 45.1875 40.167969 C 44.089844 40.128906 42.902344 40.332031 42.226562 40.691406 C 43.769531 43.710938 43.761719 47.148438 41.148438 50.0625 C 41.167969 50.191406 41.148438 50.234375 41.300781 50.410156 C 42.984375 51.199219 46.433594 51.890625 50.644531 52.640625 C 51.113281 50.933594 52.242188 49.578125 53.632812 49.113281 C 56.921875 48.613281 59.675781 50.179688 62.289062 53.277344 C 64.363281 50.007812 65.703125 46.410156 64.464844 44.515625 C 63.472656 43.488281 62.640625 42.902344 61.976562 42.753906 C 57.265625 43.542969 54.195312 43.730469 52.769531 43.316406 C 53.652344 45.8125 52.972656 48.550781 50.894531 51.101562 C 50.285156 49.4375 49.882812 47.765625 49.8125 45.441406 C 49.125 46.953125 48.207031 48.460938 46.980469 50.246094 C 45.878906 46.792969 46.5625 43.917969 48.816406 42.414062 C 47.050781 42.03125 45.792969 41.117188 45.1875 40.167969 " fill-opacity="1" fill-rule="evenodd"/><path fill="#ffffff" d="M 54.632812 49.640625 C 52.554688 50.101562 51.425781 51.140625 51.257812 52.757812 C 54.605469 51.597656 57.652344 53.109375 60.398438 57.292969 C 60.25 55.121094 59.027344 53.4375 56.734375 52.246094 C 58.796875 52.417969 60.8125 53.523438 61.234375 56.800781 C 62.078125 56.101562 62.171875 55.765625 62.078125 54.554688 C 60.714844 52.007812 57.644531 49.773438 54.632812 49.640625 " fill-opacity="1" fill-rule="evenodd"/><path fill="#ffffff" d="M 59.355469 57.539062 C 56.671875 54.253906 54.339844 52.523438 51.65625 53.285156 C 53.027344 53.925781 54.019531 54.671875 54.621094 55.523438 C 50.75 53.472656 45.597656 52.65625 41.207031 50.890625 L 38.441406 48.125 L 35.597656 47.636719 L 32.304688 48.285156 C 32.238281 48.882812 33.324219 49.070312 35.554688 48.855469 C 36.183594 48.929688 36.320312 49.308594 35.960938 49.996094 L 34.171875 50.929688 L 31.53125 51.214844 L 28.765625 51.214844 C 28.394531 51.714844 28.703125 52.054688 29.699219 52.230469 L 31.199219 52.332031 L 33.96875 52.148438 C 34.234375 52.203125 34.300781 52.296875 34.171875 52.433594 L 31.886719 52.792969 L 30.882812 52.71875 C 31.003906 53.019531 31.289062 53.207031 31.734375 53.285156 L 32.777344 53.449219 L 34.660156 53.164062 C 34.980469 53.203125 35.089844 53.285156 34.988281 53.410156 L 33.011719 53.808594 C 33.050781 54.109375 33.347656 54.28125 34.089844 54.386719 L 35.515625 54.140625 C 35.804688 54.171875 35.902344 54.242188 35.800781 54.34375 L 34.742188 54.507812 C 34.742188 54.695312 35.027344 54.804688 35.597656 54.832031 L 39.746094 54.34375 C 45.554688 56.867188 49.253906 60.566406 55.109375 61.90625 C 56.46875 61.085938 57.652344 59.945312 59.355469 57.539062 " fill-opacity="1" fill-rule="evenodd"/><path fill="#ffffff" d="M 38.511719 55.316406 L 38.019531 60.839844 C 42.40625 63.558594 47.449219 63.964844 55.152344 62.597656 C 49.417969 61.449219 43.757812 57.523438 40.148438 55.035156 L 38.511719 55.316406 " fill-opacity="1" fill-rule="evenodd"/><path fill="#1c2247" d="M 58.972656 43.855469 C 56.578125 44.6875 54.789062 46.597656 53.605469 49.585938 L 54.703125 49.464844 C 55.472656 47.644531 56.894531 45.773438 58.972656 43.855469 " fill-opacity="1" fill-rule="evenodd"/><path fill="#ffffff" d="M 30.996094 36.195312 C 37.71875 36.195312 42.660156 40.203125 42.660156 44.378906 C 42.660156 46.191406 41.734375 47.9375 40.140625 49.335938 L 38.609375 47.800781 L 35.59375 47.285156 L 31.988281 47.996094 L 31.960938 48.25 C 31.894531 48.871094 32.476562 49.121094 33.007812 49.214844 C 33.59375 49.316406 34.445312 49.308594 35.550781 49.203125 C 35.792969 49.234375 35.925781 49.277344 35.703125 49.742188 L 34.070312 50.59375 L 31.511719 50.867188 L 28.59375 50.867188 L 28.488281 51.007812 C 28.25 51.328125 28.152344 51.734375 28.464844 52.078125 C 28.515625 52.132812 28.574219 52.183594 28.640625 52.226562 C 23.171875 51.449219 19.386719 48.046875 19.386719 44.378906 C 19.386719 40.203125 24.277344 36.195312 30.996094 36.195312 " fill-opacity="1" fill-rule="nonzero"/><path fill="#1c2247" d="M 36.050781 36.84375 L 31.082031 42.589844 L 36.828125 37.105469 Z M 36.050781 36.84375 " fill-opacity="1" fill-rule="evenodd"/><path fill="#1c2247" d="M 28.707031 36.152344 L 30.824219 42.632812 L 28.101562 36.152344 Z M 28.707031 36.152344 " fill-opacity="1" fill-rule="evenodd"/><path fill="#1c2247" d="M 30.824219 42.980469 L 21.710938 39.175781 L 21.277344 39.609375 Z M 30.824219 42.980469 " fill-opacity="1" fill-rule="evenodd"/><path fill="#1c2247" d="M 30.652344 43.109375 L 22.273438 49.761719 L 23.136719 50.410156 Z M 30.652344 43.109375 " fill-opacity="1" fill-rule="evenodd"/><path fill="#1c2247" d="M 30.910156 42.980469 L 30.824219 51.101562 L 31.472656 51.011719 Z M 30.910156 42.980469 " fill-opacity="1" fill-rule="evenodd"/><path fill="#1c2247" d="M 42.011719 41.554688 L 30.738281 42.980469 L 42.359375 42.15625 Z M 42.011719 41.554688 " fill-opacity="1" fill-rule="evenodd"/><path fill="#1c2247" d="M 41.925781 47.601562 L 30.996094 43.066406 L 41.582031 48.121094 Z M 41.925781 47.601562 " fill-opacity="1" fill-rule="evenodd"/><path fill="#1c2247" d="M 30.867188 43.066406 L 19.160156 44.621094 L 19.03125 45.355469 Z M 30.867188 43.066406 " fill-opacity="1" fill-rule="evenodd"/><path fill="#1c2247" d="M 21.0625 41.953125 C 21.0625 41.914062 21.066406 41.875 21.070312 41.835938 C 21.242188 42.140625 21.628906 42.351562 22.078125 42.351562 C 22.636719 42.351562 23.097656 42.023438 23.167969 41.59375 C 23.230469 41.703125 23.265625 41.824219 23.265625 41.953125 C 23.265625 42.4375 22.773438 42.828125 22.164062 42.828125 C 21.554688 42.828125 21.0625 42.4375 21.0625 41.953125 " fill-opacity="1" fill-rule="nonzero"/><path fill="#1c2247" d="M 25.46875 38.800781 C 25.46875 38.316406 25.960938 37.925781 26.570312 37.925781 C 27.179688 37.925781 27.671875 38.316406 27.671875 38.800781 C 27.671875 39.28125 27.179688 39.675781 26.570312 39.675781 C 25.960938 39.675781 25.46875 39.28125 25.46875 38.800781 Z M 25.808594 38.84375 C 25.808594 39.203125 26.175781 39.496094 26.628906 39.496094 C 27.078125 39.496094 27.445312 39.203125 27.445312 38.84375 C 27.445312 38.488281 27.078125 38.195312 26.628906 38.195312 C 26.175781 38.195312 25.808594 38.488281 25.808594 38.84375 " fill-opacity="1" fill-rule="nonzero"/><path fill="#1c2247" d="M 25.382812 44.632812 C 25.382812 44.589844 25.386719 44.550781 25.390625 44.515625 C 25.5625 44.820312 25.949219 45.03125 26.398438 45.03125 C 26.957031 45.03125 27.417969 44.699219 27.488281 44.273438 C 27.550781 44.382812 27.585938 44.503906 27.585938 44.632812 C 27.585938 45.113281 27.089844 45.503906 26.484375 45.503906 C 25.875 45.503906 25.382812 45.113281 25.382812 44.632812 " fill-opacity="1" fill-rule="nonzero"/><path fill="#1c2247" d="M 21.539062 46.574219 C 21.539062 46.535156 21.539062 46.496094 21.546875 46.457031 C 21.71875 46.761719 22.105469 46.972656 22.550781 46.972656 C 23.109375 46.972656 23.570312 46.644531 23.644531 46.21875 C 23.707031 46.328125 23.738281 46.449219 23.738281 46.574219 C 23.738281 47.058594 23.246094 47.449219 22.636719 47.449219 C 22.03125 47.449219 21.539062 47.058594 21.539062 46.574219 " fill-opacity="1" fill-rule="nonzero"/><path fill="#1c2247" d="M 27.714844 49.554688 C 27.714844 49.515625 27.71875 49.476562 27.722656 49.4375 C 27.894531 49.742188 28.28125 49.953125 28.730469 49.953125 C 29.289062 49.953125 29.75 49.625 29.820312 49.199219 C 29.882812 49.304688 29.917969 49.429688 29.917969 49.554688 C 29.917969 50.039062 29.425781 50.429688 28.816406 50.429688 C 28.207031 50.429688 27.714844 50.039062 27.714844 49.554688 " fill-opacity="1" fill-rule="nonzero"/><path fill="#1c2247" d="M 36.222656 43.984375 C 36.222656 43.941406 36.226562 43.90625 36.234375 43.867188 C 36.40625 44.171875 36.789062 44.382812 37.238281 44.382812 C 37.796875 44.382812 38.257812 44.050781 38.332031 43.625 C 38.390625 43.734375 38.425781 43.855469 38.425781 43.984375 C 38.425781 44.464844 37.933594 44.859375 37.324219 44.859375 C 36.71875 44.859375 36.222656 44.464844 36.222656 43.984375 " fill-opacity="1" fill-rule="nonzero"/><path fill="#1c2247" d="M 33.328125 46.402344 C 33.328125 46.363281 33.332031 46.324219 33.339844 46.285156 C 33.511719 46.589844 33.898438 46.800781 34.34375 46.800781 C 34.902344 46.800781 35.363281 46.472656 35.4375 46.042969 C 35.5 46.152344 35.53125 46.273438 35.53125 46.402344 C 35.53125 46.886719 35.039062 47.277344 34.429688 47.277344 C 33.824219 47.277344 33.328125 46.886719 33.328125 46.402344 " fill-opacity="1" fill-rule="nonzero"/><path fill="#1c2247" d="M 36.265625 40.3125 C 36.265625 40.273438 36.269531 40.234375 36.277344 40.195312 C 36.449219 40.5 36.835938 40.710938 37.28125 40.710938 C 37.839844 40.710938 38.300781 40.382812 38.375 39.953125 C 38.433594 40.0625 38.46875 40.183594 38.46875 40.3125 C 38.46875 40.792969 37.976562 41.1875 37.367188 41.1875 C 36.761719 41.1875 36.265625 40.792969 36.265625 40.3125 " fill-opacity="1" fill-rule="nonzero"/><path fill="#1c2247" d="M 25.347656 46.015625 C 25 45.363281 24.269531 45.082031 23.15625 45.175781 L 23.390625 44.941406 C 24.390625 44.695312 25.082031 44.921875 25.464844 45.617188 L 25.347656 46.015625 " fill-opacity="1" fill-rule="evenodd"/><path fill="#1c2247" d="M 23.9375 41.292969 C 24.390625 41.792969 24.53125 42.292969 24.347656 42.792969 L 24.804688 42.617188 C 24.988281 41.875 24.695312 41.433594 23.9375 41.292969 " fill-opacity="1" fill-rule="evenodd"/><path fill="#1c2247" d="M 21.921875 43.605469 L 20.6875 42.914062 L 20.570312 43.425781 Z M 21.921875 43.605469 " fill-opacity="1" fill-rule="evenodd"/><path fill="#1c2247" d="M 22.671875 46.367188 L 22.789062 46.824219 L 22.464844 46.824219 Z M 22.671875 46.367188 " fill-opacity="1" fill-rule="evenodd"/><path fill="#1c2247" d="M 22.421875 41.71875 L 22.96875 41.925781 L 22.730469 42.160156 Z M 22.421875 41.71875 " fill-opacity="1" fill-rule="evenodd"/><path fill="#1c2247" d="M 22.011719 41.839844 L 21.613281 42.207031 L 21.464844 42.058594 Z M 22.011719 41.839844 " fill-opacity="1" fill-rule="evenodd"/><path fill="#1c2247" d="M 27.113281 42.324219 L 26.128906 42.46875 L 26.304688 42.882812 L 27.203125 42.617188 L 28.230469 42.765625 L 27.953125 42.351562 L 27.113281 42.324219 " fill-opacity="1" fill-rule="evenodd"/><path fill="#1c2247" d="M 29.640625 40.925781 C 29.640625 40.925781 29.394531 40.601562 29.15625 40.722656 C 28.921875 40.839844 28.703125 41 28.554688 41.027344 C 28.40625 41.058594 27.570312 40.660156 27.570312 40.660156 L 27.65625 40.367188 C 27.65625 40.367188 28.421875 40.867188 28.6875 40.722656 C 28.949219 40.574219 29.054688 40.398438 29.246094 40.425781 C 29.4375 40.457031 29.640625 40.839844 29.640625 40.839844 L 29.640625 40.925781 " fill-opacity="1" fill-rule="evenodd"/><path fill="#1c2247" d="M 24.597656 38.441406 L 23.304688 38.925781 L 23.6875 39.222656 Z M 24.597656 38.441406 " fill-opacity="1" fill-rule="evenodd"/><path fill="#1c2247" d="M 28.832031 47.808594 C 28.804688 47.71875 28.246094 47.457031 27.921875 47.515625 C 27.597656 47.574219 27.054688 48.117188 26.878906 48.175781 C 26.699219 48.234375 26.128906 47.941406 26.128906 47.941406 L 26.363281 47.601562 C 26.363281 47.601562 26.597656 47.898438 26.996094 47.660156 C 27.390625 47.425781 27.496094 47.117188 27.773438 47.117188 C 28.054688 47.117188 28.261719 47.015625 28.4375 47.148438 C 28.613281 47.277344 28.863281 47.898438 28.832031 47.808594 " fill-opacity="1" fill-rule="evenodd"/><path fill="#1c2247" d="M 30.15625 44.542969 L 29.039062 45.324219 L 30.15625 45.867188 Z M 30.15625 44.542969 " fill-opacity="1" fill-rule="evenodd"/><path fill="#1c2247" d="M 26.394531 49.558594 L 24.714844 49.648438 L 25.15625 50.132812 Z M 26.394531 49.558594 " fill-opacity="1" fill-rule="evenodd"/><path fill="#1c2247" d="M 32.980469 46.367188 C 32.820312 46.398438 31.773438 46.5 31.773438 46.5 L 32.011719 47.21875 L 32.980469 46.367188 " fill-opacity="1" fill-rule="evenodd"/><path fill="#1c2247" d="M 32.171875 44.089844 C 32.171875 44.089844 31.746094 44.25 31.628906 44.484375 C 31.507812 44.71875 31.714844 45.324219 31.628906 45.5 C 31.539062 45.675781 31.320312 46.015625 31.320312 46.015625 C 31.320312 46.015625 31.820312 45.882812 31.980469 45.589844 C 32.140625 45.292969 32.039062 44.957031 32.011719 44.808594 C 31.980469 44.660156 31.847656 44.601562 32.011719 44.515625 C 32.171875 44.425781 32.171875 44.089844 32.171875 44.089844 " fill-opacity="1" fill-rule="evenodd"/><path fill="#1c2247" d="M 31.386719 39.792969 C 31.386719 39.308594 31.878906 38.917969 32.488281 38.917969 C 33.097656 38.917969 33.589844 39.308594 33.589844 39.792969 C 33.589844 40.277344 33.097656 40.667969 32.488281 40.667969 C 31.878906 40.667969 31.386719 40.277344 31.386719 39.792969 Z M 31.726562 39.839844 C 31.726562 40.199219 32.09375 40.488281 32.546875 40.488281 C 32.996094 40.488281 33.363281 40.199219 33.363281 39.839844 C 33.363281 39.480469 32.996094 39.191406 32.546875 39.191406 C 32.09375 39.191406 31.726562 39.480469 31.726562 39.839844 " fill-opacity="1" fill-rule="nonzero"/><path fill="#1c2247" d="M 29.789062 37.460938 C 29.789062 36.976562 30.28125 36.585938 30.890625 36.585938 C 31.496094 36.585938 31.992188 36.976562 31.992188 37.460938 C 31.992188 37.945312 31.496094 38.335938 30.890625 38.335938 C 30.28125 38.335938 29.789062 37.945312 29.789062 37.460938 Z M 30.128906 37.507812 C 30.128906 37.863281 30.496094 38.15625 30.945312 38.15625 C 31.398438 38.15625 31.765625 37.863281 31.765625 37.507812 C 31.765625 37.148438 31.398438 36.859375 30.945312 36.859375 C 30.496094 36.859375 30.128906 37.148438 30.128906 37.507812 " fill-opacity="1" fill-rule="nonzero"/><path fill="#1c2247" d="M 39.421875 45.925781 C 39.421875 45.445312 39.914062 45.050781 40.523438 45.050781 C 41.128906 45.050781 41.625 45.445312 41.625 45.925781 C 41.625 46.410156 41.128906 46.800781 40.523438 46.800781 C 39.914062 46.800781 39.421875 46.410156 39.421875 45.925781 Z M 39.761719 45.972656 C 39.761719 46.332031 40.128906 46.621094 40.578125 46.621094 C 41.03125 46.621094 41.398438 46.332031 41.398438 45.972656 C 41.398438 45.613281 41.03125 45.324219 40.578125 45.324219 C 40.128906 45.324219 39.761719 45.613281 39.761719 45.972656 " fill-opacity="1" fill-rule="nonzero"/><path fill="#1c2247" d="M 28.449219 46.789062 C 28.449219 46.308594 28.941406 45.917969 29.550781 45.917969 C 30.160156 45.917969 30.652344 46.308594 30.652344 46.789062 C 30.652344 47.273438 30.160156 47.664062 29.550781 47.664062 C 28.941406 47.664062 28.449219 47.273438 28.449219 46.789062 Z M 28.789062 46.835938 C 28.789062 47.195312 29.15625 47.484375 29.609375 47.484375 C 30.058594 47.484375 30.425781 47.195312 30.425781 46.835938 C 30.425781 46.480469 30.058594 46.1875 29.609375 46.1875 C 29.15625 46.1875 28.789062 46.480469 28.789062 46.835938 " fill-opacity="1" fill-rule="nonzero"/><path fill="#1c2247" d="M 35.230469 40.992188 L 33.890625 41.292969 L 33.976562 42.027344 L 35.664062 41.8125 L 35.230469 40.992188 " fill-opacity="1" fill-rule="evenodd"/><path fill="#1c2247" d="M 35.574219 43.324219 L 34.28125 43.972656 L 35.1875 44.621094 L 35.664062 44.144531 L 35.574219 43.324219 " fill-opacity="1" fill-rule="evenodd"/><path fill="#1c2247" d="M 41.234375 43.582031 L 39.722656 43.800781 L 41.019531 44.316406 Z M 41.234375 43.582031 " fill-opacity="1" fill-rule="evenodd"/><path fill="#1c2247" d="M 40.628906 40.777344 C 40.457031 40.90625 40.109375 40.472656 39.59375 40.472656 C 39.074219 40.472656 39.03125 40.949219 38.6875 41.035156 C 38.339844 41.121094 38.125 41.164062 38.125 41.164062 C 38.125 41.164062 38.730469 41.554688 39.074219 41.378906 C 39.421875 41.207031 39.464844 40.863281 39.679688 40.90625 C 39.894531 40.949219 40.628906 40.777344 40.628906 40.777344 " fill-opacity="1" fill-rule="evenodd"/><path fill="#1c2247" d="M 33.847656 37.105469 L 32.550781 37.796875 L 33.414062 38.398438 L 34.324219 37.449219 L 33.847656 37.105469 " fill-opacity="1" fill-rule="evenodd"/><path fill="#1c2247" d="M 37.519531 46.433594 L 36.308594 47.039062 L 37.390625 47.253906 Z M 37.519531 46.433594 " fill-opacity="1" fill-rule="evenodd"/><path fill="#1c2247" d="M 32.941406 49.542969 C 32.726562 49.542969 31.859375 49.675781 31.859375 49.675781 L 32.035156 50.320312 L 33.070312 50.105469 L 32.941406 49.542969 " fill-opacity="1" fill-rule="evenodd"/><path fill="#1c2247" d="M 27.714844 50.882812 L 26.9375 50.0625 L 26.160156 50.667969 L 27.023438 51.1875 L 27.714844 50.882812 " fill-opacity="1" fill-rule="evenodd"/><path fill="#1c2247" d="M 29.875 42.632812 C 29.875 42.417969 30.125 42.246094 30.433594 42.246094 C 30.746094 42.246094 30.996094 42.417969 30.996094 42.632812 C 30.996094 42.847656 30.746094 43.023438 30.433594 43.023438 C 30.125 43.023438 29.875 42.847656 29.875 42.632812 " fill-opacity="1" fill-rule="nonzero"/><path fill="#b8b8ca" d="M 19.851562 48.308594 C 21.832031 51.277344 26.0625 53.339844 30.976562 53.386719 L 31.902344 54.03125 C 31.78125 54.035156 31.664062 54.035156 31.542969 54.035156 C 26.199219 54.035156 21.640625 51.65625 19.851562 48.308594 " fill-opacity="1" fill-rule="nonzero"/><path fill="#b8b8ca" d="M 36.957031 61.683594 C 38.648438 63.707031 42.191406 64.886719 47.585938 65.226562 C 42.097656 65.453125 38.269531 64.644531 36.09375 62.804688 L 36.957031 61.683594 " fill-opacity="1" fill-rule="evenodd"/><path fill="#b8b8ca" d="M 29.167969 52.101562 L 33.976562 51.863281 L 40.089844 53.144531 C 46.273438 56.660156 51.105469 58.730469 54.589844 59.359375 C 54.589844 59.359375 56.835938 57.332031 58.101562 56.09375 C 58.511719 56.535156 58.929688 57.015625 59.355469 57.539062 C 57.652344 59.945312 56.46875 61.085938 55.109375 61.90625 C 49.253906 60.566406 45.554688 56.867188 39.746094 54.34375 L 35.597656 54.832031 C 35.027344 54.804688 34.742188 54.695312 34.742188 54.507812 L 35.800781 54.34375 C 35.902344 54.242188 35.804688 54.171875 35.515625 54.140625 L 34.089844 54.386719 C 33.347656 54.28125 33.050781 54.109375 33.011719 53.808594 L 34.988281 53.410156 C 35.089844 53.285156 34.980469 53.203125 34.660156 53.164062 L 32.777344 53.449219 L 31.734375 53.285156 C 31.289062 53.207031 31.003906 53.019531 30.882812 52.71875 L 31.886719 52.792969 L 34.171875 52.433594 C 34.300781 52.296875 34.234375 52.203125 33.96875 52.148438 L 31.199219 52.332031 L 29.699219 52.230469 C 29.496094 52.195312 29.316406 52.152344 29.167969 52.101562 " fill-opacity="1" fill-rule="nonzero"/><path fill="#b8b8ca" d="M 38.511719 55.316406 L 38.019531 60.839844 C 42.40625 63.558594 47.449219 63.964844 55.152344 62.597656 C 49.417969 61.449219 43.757812 57.523438 40.148438 55.035156 L 38.511719 55.316406 " fill-opacity="1" fill-rule="evenodd"/><path fill="#b8b8ca" d="M 58.671875 55.058594 C 58.867188 54.746094 59.027344 54.4375 59.160156 54.128906 C 59.902344 55.03125 60.316406 56.085938 60.398438 57.292969 C 59.835938 56.4375 59.257812 55.691406 58.671875 55.058594 Z M 59.445312 53.230469 C 59.566406 52.671875 59.578125 52.117188 59.484375 51.5625 C 60.574219 52.40625 61.488281 53.449219 62.078125 54.554688 C 62.171875 55.765625 62.078125 56.101562 61.234375 56.800781 C 61.011719 55.058594 60.335938 53.929688 59.445312 53.230469 " fill-opacity="1" fill-rule="nonzero"/><path fill="#b8b8ca" d="M 59.359375 50.527344 C 60.617188 49.515625 64.105469 47.96875 62.570312 42.980469 C 63.117188 43.261719 63.746094 43.773438 64.464844 44.515625 C 65.703125 46.410156 64.363281 50.007812 62.289062 53.277344 C 61.335938 52.148438 60.367188 51.226562 59.359375 50.527344 " fill-opacity="1" fill-rule="nonzero"/><path fill="#b8b8ca" d="M 52.425781 25.449219 C 52.648438 25.722656 53.09375 26.171875 53.699219 26.273438 C 54.285156 26.371094 55.023438 25.863281 55.457031 25.511719 C 55.335938 25.902344 55.273438 26.316406 55.273438 26.753906 L 52.949219 26.753906 C 52.621094 26.484375 52.445312 26.050781 52.425781 25.449219 Z M 55.917969 25.417969 C 56.09375 25.792969 56.492188 26.515625 57.101562 26.765625 C 57.941406 27.109375 61 27.851562 61 27.851562 C 58.410156 27.824219 56.683594 27.480469 55.816406 26.832031 C 55.699219 26.445312 55.734375 25.976562 55.917969 25.417969 Z M 60.867188 28.011719 C 60.675781 28.261719 60.347656 28.75 60.457031 29.035156 C 60.589844 29.390625 62.234375 30.523438 62.53125 30.726562 C 61.605469 30.84375 61.097656 30.78125 61 30.535156 C 60.371094 29.675781 59.710938 28.953125 59.027344 28.363281 C 59.632812 28.367188 60.246094 28.25 60.867188 28.011719 Z M 62.296875 31.117188 C 62.125 31.359375 61.953125 31.660156 62.035156 31.796875 C 62.136719 31.964844 62.542969 32.296875 62.785156 32.488281 C 61.507812 32.203125 60.957031 31.730469 61.125 31.078125 C 61.425781 31.265625 61.816406 31.277344 62.296875 31.117188 Z M 62.882812 32.714844 C 62.632812 32.953125 61.925781 33.667969 61.886719 34.113281 C 61.835938 34.65625 62.28125 35.34375 62.328125 35.886719 C 62.367188 36.320312 64.121094 36.15625 64.914062 36.421875 C 63.996094 38.199219 62.015625 38.382812 58.976562 36.972656 L 59.097656 36.554688 C 59.167969 36.804688 59.753906 36.992188 60.851562 37.121094 L 59.785156 36.433594 C 61.152344 35.601562 61.445312 33.789062 61.050781 33.175781 L 61.125 32.308594 C 61.457031 32.632812 62.042969 32.769531 62.882812 32.714844 Z M 49.230469 28.933594 L 49.121094 28.285156 C 49.582031 28.878906 50.128906 29.433594 50.585938 29.101562 C 50.296875 28.894531 50.039062 28.667969 49.816406 28.425781 C 50.015625 28.472656 50.179688 28.398438 50.199219 28.046875 C 50.25 27.109375 50.050781 26.320312 50.496094 26.027344 C 50.820312 25.808594 51.613281 25.488281 52.019531 25.332031 C 51.804688 26.015625 51.902344 26.523438 52.210938 27.246094 C 51.617188 27.5625 51.234375 28.246094 51.050781 29.296875 C 50.835938 29.570312 50.738281 29.859375 50.757812 30.160156 C 50.101562 29.800781 49.59375 29.390625 49.230469 28.933594 " fill-opacity="1" fill-rule="nonzero"/><path fill="#b8b8ca" d="M 60.257812 32.484375 C 59.929688 32.074219 59.578125 31.703125 59.207031 31.371094 L 59.269531 30.949219 C 57.722656 28.464844 55.542969 27.222656 52.738281 27.222656 L 52.757812 27.195312 C 56.15625 26.800781 58.738281 28.015625 60.503906 30.851562 L 60.257812 32.484375 " fill-opacity="1" fill-rule="evenodd"/><path fill="#b8b8ca" d="M 58.429688 42.714844 C 58.9375 42.328125 59.238281 41.957031 59.335938 41.601562 C 59.648438 41.460938 59.960938 41.296875 60.265625 41.113281 C 61.144531 41.148438 61.621094 41.550781 61.703125 42.324219 C 60.503906 42.484375 59.414062 42.617188 58.429688 42.714844 Z M 59.171875 41.226562 L 58.160156 40.792969 C 58.480469 40.503906 58.773438 40.175781 59.042969 39.808594 C 59.457031 39.777344 59.742188 40.085938 59.902344 40.734375 C 59.667969 40.90625 59.425781 41.074219 59.171875 41.226562 Z M 58.101562 40.332031 C 58.203125 39.875 58.160156 39.523438 57.980469 39.277344 C 58.167969 39.105469 58.359375 38.925781 58.546875 38.738281 C 58.699219 38.671875 58.8125 38.859375 58.886719 39.300781 C 58.652344 39.671875 58.390625 40.019531 58.101562 40.332031 " fill-opacity="1" fill-rule="nonzero"/><g clip-path="url(#c523680ab1)"><g clip-path="url(#2498f0aa78)"><path fill="#e81919" d="M 77.574219 43.191406 L 83.753906 43.191406 L 83.753906 49.371094 L 77.574219 49.371094 Z M 77.574219 43.191406 " fill-opacity="1" fill-rule="nonzero"/></g></g><g fill="#ffffff" fill-opacity="1"><g transform="translate(19.164288, 30.909716)"><g><path d="M 1.5625 -5.234375 C 1.59375 -5.285156 1.632812 -5.316406 1.6875 -5.328125 C 1.738281 -5.335938 1.785156 -5.328125 1.828125 -5.296875 L 2.9375 -4.515625 C 3.050781 -4.429688 3.070312 -4.332031 3 -4.21875 L 0.453125 -0.640625 C 0.410156 -0.585938 0.363281 -0.554688 0.3125 -0.546875 C 0.257812 -0.535156 0.207031 -0.550781 0.15625 -0.59375 L -4.984375 -4.234375 C -5.046875 -4.273438 -5.078125 -4.320312 -5.078125 -4.375 C -5.085938 -4.425781 -5.070312 -4.476562 -5.03125 -4.53125 L -4.09375 -5.859375 C -4.050781 -5.898438 -4.003906 -5.925781 -3.953125 -5.9375 C -3.910156 -5.945312 -3.859375 -5.929688 -3.796875 -5.890625 L 0.078125 -3.140625 Z M 1.5625 -5.234375 "/></g></g></g><g fill="#ffffff" fill-opacity="1"><g transform="translate(23.481976, 25.040113)"><g><path d="M 5.03125 -4.65625 C 5.125 -4.601562 5.171875 -4.546875 5.171875 -4.484375 C 5.179688 -4.421875 5.148438 -4.351562 5.078125 -4.28125 L 3.84375 -3.25 C 3.78125 -3.195312 3.707031 -3.164062 3.625 -3.15625 C 3.550781 -3.15625 3.484375 -3.175781 3.421875 -3.21875 L 3 -3.46875 L 1.421875 -2.15625 L 1.625 -1.6875 C 1.644531 -1.625 1.644531 -1.550781 1.625 -1.46875 C 1.613281 -1.394531 1.570312 -1.328125 1.5 -1.265625 L 0.28125 -0.234375 C 0.207031 -0.171875 0.132812 -0.144531 0.0625 -0.15625 C 0 -0.175781 -0.046875 -0.234375 -0.078125 -0.328125 L -2.03125 -6.90625 C -2.0625 -6.988281 -2.066406 -7.066406 -2.046875 -7.140625 C -2.023438 -7.222656 -1.984375 -7.296875 -1.921875 -7.359375 L -1.5625 -7.65625 C -1.5 -7.707031 -1.421875 -7.734375 -1.328125 -7.734375 C -1.242188 -7.734375 -1.171875 -7.71875 -1.109375 -7.6875 Z M 0.859375 -3.609375 L 1.640625 -4.28125 L 0.265625 -5.125 Z M 0.859375 -3.609375 "/></g></g></g><g fill="#ffffff" fill-opacity="1"><g transform="translate(30.250236, 19.660207)"><g><path d="M 3.03125 -5.46875 C 3.238281 -5.488281 3.445312 -5.460938 3.65625 -5.390625 C 3.875 -5.316406 4.066406 -5.210938 4.234375 -5.078125 C 4.398438 -4.941406 4.53125 -4.769531 4.625 -4.5625 C 4.75 -4.289062 4.804688 -4.003906 4.796875 -3.703125 C 4.796875 -3.398438 4.734375 -3.113281 4.609375 -2.84375 C 4.492188 -2.570312 4.316406 -2.316406 4.078125 -2.078125 C 3.835938 -1.847656 3.554688 -1.660156 3.234375 -1.515625 L 0.703125 -0.328125 C 0.648438 -0.304688 0.597656 -0.300781 0.546875 -0.3125 C 0.503906 -0.332031 0.46875 -0.375 0.4375 -0.4375 L -2.234375 -6.15625 C -2.253906 -6.21875 -2.253906 -6.269531 -2.234375 -6.3125 C -2.222656 -6.363281 -2.191406 -6.398438 -2.140625 -6.421875 L 0.21875 -7.515625 C 0.519531 -7.660156 0.820312 -7.75 1.125 -7.78125 C 1.425781 -7.8125 1.707031 -7.796875 1.96875 -7.734375 C 2.238281 -7.671875 2.472656 -7.5625 2.671875 -7.40625 C 2.878906 -7.257812 3.039062 -7.066406 3.15625 -6.828125 C 3.226562 -6.671875 3.269531 -6.507812 3.28125 -6.34375 C 3.289062 -6.1875 3.269531 -6.03125 3.21875 -5.875 C 3.175781 -5.71875 3.113281 -5.582031 3.03125 -5.46875 Z M 1.53125 -5.71875 C 1.488281 -5.8125 1.414062 -5.875 1.3125 -5.90625 C 1.207031 -5.9375 1.097656 -5.921875 0.984375 -5.859375 L 0.28125 -5.546875 L 0.609375 -4.859375 L 1.3125 -5.171875 C 1.425781 -5.234375 1.5 -5.316406 1.53125 -5.421875 C 1.570312 -5.523438 1.570312 -5.625 1.53125 -5.71875 Z M 2.4375 -3.140625 C 2.53125 -3.179688 2.601562 -3.238281 2.65625 -3.3125 C 2.71875 -3.394531 2.753906 -3.476562 2.765625 -3.5625 C 2.773438 -3.65625 2.757812 -3.742188 2.71875 -3.828125 C 2.675781 -3.921875 2.613281 -3.992188 2.53125 -4.046875 C 2.457031 -4.109375 2.367188 -4.144531 2.265625 -4.15625 C 2.171875 -4.164062 2.078125 -4.148438 1.984375 -4.109375 L 1.140625 -3.71875 L 1.59375 -2.75 Z M 2.4375 -3.140625 "/></g></g></g><g fill="#ffffff" fill-opacity="1"><g transform="translate(37.661223, 16.432473)"><g><path d="M 5.171875 -2.90625 C 5.296875 -2.925781 5.398438 -2.90625 5.484375 -2.84375 C 5.566406 -2.789062 5.617188 -2.707031 5.640625 -2.59375 L 5.875 -1.359375 C 5.882812 -1.273438 5.867188 -1.203125 5.828125 -1.140625 C 5.785156 -1.078125 5.71875 -1.039062 5.625 -1.03125 L 0.84375 -0.15625 C 0.75 -0.132812 0.671875 -0.144531 0.609375 -0.1875 C 0.554688 -0.238281 0.523438 -0.304688 0.515625 -0.390625 L -0.59375 -6.4375 C -0.613281 -6.53125 -0.601562 -6.601562 -0.5625 -6.65625 C -0.519531 -6.707031 -0.453125 -6.742188 -0.359375 -6.765625 L 4.34375 -7.625 C 4.4375 -7.644531 4.507812 -7.628906 4.5625 -7.578125 C 4.613281 -7.535156 4.648438 -7.472656 4.671875 -7.390625 L 4.90625 -6.078125 C 4.925781 -5.984375 4.914062 -5.90625 4.875 -5.84375 C 4.84375 -5.789062 4.78125 -5.753906 4.6875 -5.734375 L 1.703125 -5.1875 L 1.84375 -4.421875 L 3.984375 -4.8125 C 4.085938 -4.832031 4.171875 -4.820312 4.234375 -4.78125 C 4.304688 -4.738281 4.347656 -4.664062 4.359375 -4.5625 L 4.53125 -3.6875 C 4.539062 -3.59375 4.519531 -3.515625 4.46875 -3.453125 C 4.425781 -3.390625 4.351562 -3.347656 4.25 -3.328125 L 2.109375 -2.9375 L 2.21875 -2.359375 Z M 5.171875 -2.90625 "/></g></g></g><g fill="#ffffff" fill-opacity="1"><g transform="translate(45.700579, 15.224091)"><g><path d="M 5.265625 -1.4375 C 5.328125 -1.4375 5.375 -1.414062 5.40625 -1.375 C 5.445312 -1.332031 5.460938 -1.28125 5.453125 -1.21875 L 5.375 0.140625 C 5.363281 0.273438 5.289062 0.335938 5.15625 0.328125 L 0.78125 0.046875 C 0.71875 0.046875 0.664062 0.0234375 0.625 -0.015625 C 0.59375 -0.0546875 0.582031 -0.109375 0.59375 -0.171875 L 0.984375 -6.46875 C 0.992188 -6.539062 1.015625 -6.585938 1.046875 -6.609375 C 1.085938 -6.640625 1.140625 -6.65625 1.203125 -6.65625 L 2.828125 -6.546875 C 2.890625 -6.546875 2.9375 -6.523438 2.96875 -6.484375 C 3.007812 -6.453125 3.023438 -6.398438 3.015625 -6.328125 L 2.71875 -1.59375 Z M 5.265625 -1.4375 "/></g></g></g><g fill="#ffffff" fill-opacity="1"><g transform="translate(52.991198, 15.885539)"><g><path d="M 5.46875 -0.1875 C 5.519531 -0.164062 5.554688 -0.128906 5.578125 -0.078125 C 5.609375 -0.0351562 5.613281 0.0078125 5.59375 0.0625 L 5.203125 1.375 C 5.160156 1.5 5.078125 1.539062 4.953125 1.5 L 0.75 0.234375 C 0.6875 0.210938 0.640625 0.175781 0.609375 0.125 C 0.585938 0.0820312 0.585938 0.0351562 0.609375 -0.015625 L 2.4375 -6.0625 C 2.457031 -6.132812 2.488281 -6.175781 2.53125 -6.1875 C 2.582031 -6.207031 2.640625 -6.207031 2.703125 -6.1875 L 4.25 -5.71875 C 4.3125 -5.695312 4.351562 -5.664062 4.375 -5.625 C 4.40625 -5.59375 4.410156 -5.539062 4.390625 -5.46875 L 3.015625 -0.921875 Z M 5.46875 -0.1875 "/></g></g></g><g fill="#ffffff" fill-opacity="1"><g transform="translate(59.925788, 18.122903)"><g><path d="M 6 3.296875 C 5.988281 3.398438 5.953125 3.460938 5.890625 3.484375 C 5.828125 3.515625 5.753906 3.503906 5.671875 3.453125 L 4.296875 2.625 C 4.222656 2.570312 4.171875 2.507812 4.140625 2.4375 C 4.117188 2.363281 4.113281 2.289062 4.125 2.21875 L 4.25 1.75 L 2.5 0.6875 L 2.109375 1 C 2.054688 1.03125 1.988281 1.050781 1.90625 1.0625 C 1.832031 1.082031 1.757812 1.070312 1.6875 1.03125 L 0.3125 0.1875 C 0.226562 0.132812 0.179688 0.0703125 0.171875 0 C 0.171875 -0.0625 0.210938 -0.125 0.296875 -0.1875 L 5.90625 -4.109375 C 5.976562 -4.171875 6.050781 -4.203125 6.125 -4.203125 C 6.207031 -4.203125 6.285156 -4.179688 6.359375 -4.140625 L 6.765625 -3.890625 C 6.835938 -3.847656 6.882812 -3.785156 6.90625 -3.703125 C 6.9375 -3.628906 6.945312 -3.554688 6.9375 -3.484375 Z M 3.6875 -0.328125 L 4.5625 0.21875 L 4.921875 -1.359375 Z M 3.6875 -0.328125 "/></g></g></g><g fill="#ffffff" fill-opacity="1"><g transform="translate(67.179271, 23.028016)"><g><path d="M 4.40625 -4.1875 C 4.507812 -4.3125 4.628906 -4.390625 4.765625 -4.421875 C 4.910156 -4.460938 5.054688 -4.46875 5.203125 -4.4375 C 5.359375 -4.40625 5.5 -4.332031 5.625 -4.21875 C 5.75 -4.101562 5.832031 -3.960938 5.875 -3.796875 C 5.914062 -3.640625 5.910156 -3.472656 5.859375 -3.296875 C 5.804688 -3.117188 5.710938 -2.957031 5.578125 -2.8125 C 5.421875 -2.632812 5.257812 -2.488281 5.09375 -2.375 C 4.925781 -2.269531 4.75 -2.179688 4.5625 -2.109375 C 4.375 -2.035156 4.171875 -1.96875 3.953125 -1.90625 C 3.898438 -1.875 3.847656 -1.875 3.796875 -1.90625 C 3.742188 -1.945312 3.71875 -1.992188 3.71875 -2.046875 L 3.546875 -2.515625 C 3.523438 -2.566406 3.53125 -2.613281 3.5625 -2.65625 C 3.601562 -2.707031 3.660156 -2.75 3.734375 -2.78125 C 3.816406 -2.789062 3.898438 -2.804688 3.984375 -2.828125 C 4.066406 -2.859375 4.144531 -2.882812 4.21875 -2.90625 C 4.289062 -2.925781 4.335938 -2.953125 4.359375 -2.984375 C 4.367188 -2.992188 4.378906 -3.003906 4.390625 -3.015625 C 4.398438 -3.035156 4.40625 -3.050781 4.40625 -3.0625 C 4.40625 -3.0625 4.394531 -3.0625 4.375 -3.0625 C 4.363281 -3.070312 4.34375 -3.09375 4.3125 -3.125 C 4.226562 -3.207031 4.171875 -3.304688 4.140625 -3.421875 C 4.117188 -3.546875 4.128906 -3.675781 4.171875 -3.8125 C 4.210938 -3.945312 4.289062 -4.070312 4.40625 -4.1875 Z M 4.40625 -4.1875 "/></g></g></g><g fill="#ffffff" fill-opacity="1"><g transform="translate(70.315058, 25.973856)"><g><path d="M 1.78125 2.6875 C 1.5625 2.375 1.378906 2.046875 1.234375 1.703125 C 1.085938 1.359375 1 1.019531 0.96875 0.6875 C 0.9375 0.351562 0.957031 0.0390625 1.03125 -0.25 C 1.0625 -0.3125 1.109375 -0.359375 1.171875 -0.390625 C 1.234375 -0.429688 1.3125 -0.445312 1.40625 -0.4375 L 2.765625 -0.21875 C 2.835938 -0.195312 2.894531 -0.15625 2.9375 -0.09375 C 2.976562 -0.03125 3 0.046875 3 0.140625 C 2.988281 0.390625 3.003906 0.628906 3.046875 0.859375 C 3.085938 1.097656 3.171875 1.304688 3.296875 1.484375 C 3.410156 1.640625 3.507812 1.738281 3.59375 1.78125 C 3.675781 1.832031 3.75 1.832031 3.8125 1.78125 C 3.851562 1.75 3.878906 1.710938 3.890625 1.671875 C 3.910156 1.628906 3.914062 1.566406 3.90625 1.484375 C 3.90625 1.410156 3.882812 1.300781 3.84375 1.15625 C 3.800781 1.019531 3.742188 0.851562 3.671875 0.65625 C 3.535156 0.289062 3.441406 -0.03125 3.390625 -0.3125 C 3.335938 -0.59375 3.328125 -0.84375 3.359375 -1.0625 C 3.398438 -1.289062 3.488281 -1.503906 3.625 -1.703125 C 3.757812 -1.898438 3.9375 -2.078125 4.15625 -2.234375 C 4.519531 -2.492188 4.894531 -2.628906 5.28125 -2.640625 C 5.664062 -2.660156 6.039062 -2.566406 6.40625 -2.359375 C 6.769531 -2.148438 7.101562 -1.832031 7.40625 -1.40625 C 7.5625 -1.195312 7.6875 -0.96875 7.78125 -0.71875 C 7.875 -0.46875 7.9375 -0.222656 7.96875 0.015625 C 8.007812 0.253906 8.007812 0.476562 7.96875 0.6875 C 7.945312 0.78125 7.898438 0.851562 7.828125 0.90625 C 7.753906 0.96875 7.671875 0.988281 7.578125 0.96875 L 6.390625 0.859375 C 6.253906 0.847656 6.160156 0.804688 6.109375 0.734375 C 6.054688 0.660156 6.023438 0.5625 6.015625 0.4375 C 6.003906 0.269531 5.976562 0.117188 5.9375 -0.015625 C 5.90625 -0.160156 5.859375 -0.273438 5.796875 -0.359375 C 5.703125 -0.492188 5.613281 -0.578125 5.53125 -0.609375 C 5.445312 -0.648438 5.375 -0.644531 5.3125 -0.59375 C 5.226562 -0.53125 5.207031 -0.394531 5.25 -0.1875 C 5.300781 0.0195312 5.382812 0.285156 5.5 0.609375 C 5.582031 0.828125 5.648438 1.039062 5.703125 1.25 C 5.765625 1.457031 5.804688 1.660156 5.828125 1.859375 C 5.859375 2.054688 5.851562 2.25 5.8125 2.4375 C 5.769531 2.625 5.691406 2.800781 5.578125 2.96875 C 5.460938 3.132812 5.296875 3.300781 5.078125 3.46875 C 4.796875 3.664062 4.507812 3.789062 4.21875 3.84375 C 3.925781 3.894531 3.628906 3.878906 3.328125 3.796875 C 3.035156 3.722656 2.757812 3.59375 2.5 3.40625 C 2.238281 3.226562 2 2.988281 1.78125 2.6875 Z M 1.78125 2.6875 "/></g></g></g><g fill="#ffffff" fill-opacity="1"><g transform="translate(26.995622, 78.305782)"><g><path d="M 5.953125 -4.484375 C 6.335938 -4.285156 6.660156 -4.039062 6.921875 -3.75 C 7.191406 -3.457031 7.394531 -3.140625 7.53125 -2.796875 C 7.664062 -2.453125 7.722656 -2.097656 7.703125 -1.734375 C 7.679688 -1.367188 7.582031 -1.015625 7.40625 -0.671875 C 7.21875 -0.316406 6.984375 -0.0234375 6.703125 0.203125 C 6.421875 0.429688 6.097656 0.585938 5.734375 0.671875 C 5.378906 0.765625 5.003906 0.785156 4.609375 0.734375 C 4.222656 0.679688 3.835938 0.554688 3.453125 0.359375 L 2.890625 0.0625 L 2.4375 0.9375 C 2.40625 1.007812 2.351562 1.054688 2.28125 1.078125 C 2.21875 1.109375 2.144531 1.101562 2.0625 1.0625 L 0.765625 0.390625 C 0.679688 0.347656 0.628906 0.289062 0.609375 0.21875 C 0.597656 0.15625 0.609375 0.0859375 0.640625 0.015625 L 3.46875 -5.453125 C 3.5 -5.523438 3.550781 -5.570312 3.625 -5.59375 C 3.695312 -5.613281 3.769531 -5.609375 3.84375 -5.578125 L 4.53125 -5.21875 C 4.664062 -5.15625 4.785156 -5.09375 4.890625 -5.03125 C 4.992188 -4.976562 5.078125 -4.9375 5.140625 -4.90625 Z M 4.140625 -1.28125 C 4.335938 -1.1875 4.53125 -1.132812 4.71875 -1.125 C 4.914062 -1.113281 5.09375 -1.148438 5.25 -1.234375 C 5.40625 -1.316406 5.523438 -1.4375 5.609375 -1.59375 C 5.691406 -1.757812 5.722656 -1.929688 5.703125 -2.109375 C 5.679688 -2.285156 5.609375 -2.453125 5.484375 -2.609375 C 5.367188 -2.765625 5.210938 -2.890625 5.015625 -2.984375 L 4.578125 -3.21875 L 3.703125 -1.515625 Z M 4.140625 -1.28125 "/></g></g></g><g fill="#ffffff" fill-opacity="1"><g transform="translate(35.461241, 82.141953)"><g><path d="M 4.234375 -5.59375 L 2.5625 0.484375 C 2.53125 0.617188 2.445312 0.664062 2.3125 0.625 L 0.75 0.203125 C 0.625 0.171875 0.578125 0.0859375 0.609375 -0.046875 L 2.28125 -6.125 C 2.3125 -6.257812 2.390625 -6.3125 2.515625 -6.28125 L 4.078125 -5.859375 C 4.210938 -5.816406 4.265625 -5.726562 4.234375 -5.59375 Z M 4.234375 -5.59375 "/></g></g></g><g fill="#ffffff" fill-opacity="1"><g transform="translate(41.240617, 83.594531)"><g><path d="M 6.0625 -1.4375 C 6.144531 -1.425781 6.207031 -1.394531 6.25 -1.34375 C 6.300781 -1.300781 6.320312 -1.238281 6.3125 -1.15625 L 6.25 0.09375 C 6.238281 0.175781 6.207031 0.238281 6.15625 0.28125 C 6.113281 0.320312 6.050781 0.335938 5.96875 0.328125 L 0.40625 0.015625 C 0.320312 0.015625 0.253906 -0.0078125 0.203125 -0.0625 C 0.160156 -0.113281 0.140625 -0.175781 0.140625 -0.25 C 0.140625 -0.320312 0.148438 -0.382812 0.171875 -0.4375 C 0.203125 -0.488281 0.226562 -0.535156 0.25 -0.578125 L 3.203125 -4.78125 L 1.078125 -4.890625 C 0.992188 -4.898438 0.925781 -4.925781 0.875 -4.96875 C 0.832031 -5.019531 0.816406 -5.085938 0.828125 -5.171875 L 0.890625 -6.40625 C 0.898438 -6.488281 0.925781 -6.550781 0.96875 -6.59375 C 1.019531 -6.644531 1.085938 -6.664062 1.171875 -6.65625 L 6.203125 -6.375 C 6.285156 -6.375 6.347656 -6.347656 6.390625 -6.296875 C 6.441406 -6.242188 6.460938 -6.175781 6.453125 -6.09375 C 6.453125 -6.050781 6.441406 -6.003906 6.421875 -5.953125 C 6.398438 -5.910156 6.375 -5.867188 6.34375 -5.828125 L 3.4375 -1.578125 Z M 6.0625 -1.4375 "/></g></g></g><g fill="#ffffff" fill-opacity="1"><g transform="translate(50.658797, 83.746703)"><g><path d="M 5.5 -2.9375 C 5.582031 -2.957031 5.648438 -2.945312 5.703125 -2.90625 C 5.765625 -2.875 5.804688 -2.816406 5.828125 -2.734375 L 6.078125 -1.515625 C 6.085938 -1.429688 6.070312 -1.363281 6.03125 -1.3125 C 6 -1.257812 5.941406 -1.222656 5.859375 -1.203125 L 0.390625 -0.078125 C 0.316406 -0.0664062 0.25 -0.078125 0.1875 -0.109375 C 0.125 -0.148438 0.0859375 -0.207031 0.078125 -0.28125 C 0.0546875 -0.351562 0.0507812 -0.414062 0.0625 -0.46875 C 0.0703125 -0.519531 0.0820312 -0.570312 0.09375 -0.625 L 1.859375 -5.4375 L -0.21875 -5 C -0.300781 -4.988281 -0.367188 -5 -0.421875 -5.03125 C -0.484375 -5.070312 -0.519531 -5.132812 -0.53125 -5.21875 L -0.78125 -6.4375 C -0.800781 -6.507812 -0.789062 -6.570312 -0.75 -6.625 C -0.71875 -6.6875 -0.660156 -6.722656 -0.578125 -6.734375 L 4.359375 -7.75 C 4.441406 -7.769531 4.507812 -7.757812 4.5625 -7.71875 C 4.625 -7.6875 4.664062 -7.632812 4.6875 -7.5625 C 4.695312 -7.519531 4.695312 -7.472656 4.6875 -7.421875 C 4.675781 -7.367188 4.660156 -7.320312 4.640625 -7.28125 L 2.921875 -2.40625 Z M 5.5 -2.9375 "/></g></g></g><g fill="#ffffff" fill-opacity="1"><g transform="translate(59.827353, 81.495375)"><g><path d="M 5.96875 -3.375 C 6.039062 -3.3125 6.070312 -3.242188 6.0625 -3.171875 C 6.0625 -3.109375 6.015625 -3.050781 5.921875 -3 L 4.484375 -2.265625 C 4.410156 -2.234375 4.332031 -2.222656 4.25 -2.234375 C 4.175781 -2.242188 4.117188 -2.28125 4.078125 -2.34375 L 3.71875 -2.6875 L 1.890625 -1.765625 L 1.96875 -1.265625 C 1.957031 -1.203125 1.9375 -1.132812 1.90625 -1.0625 C 1.882812 -0.988281 1.832031 -0.929688 1.75 -0.890625 L 0.328125 -0.15625 C 0.234375 -0.113281 0.15625 -0.109375 0.09375 -0.140625 C 0.03125 -0.179688 0 -0.253906 0 -0.359375 L -0.375 -7.1875 C -0.382812 -7.28125 -0.367188 -7.359375 -0.328125 -7.421875 C -0.296875 -7.492188 -0.242188 -7.550781 -0.171875 -7.59375 L 0.25 -7.796875 C 0.320312 -7.835938 0.398438 -7.847656 0.484375 -7.828125 C 0.566406 -7.804688 0.640625 -7.773438 0.703125 -7.734375 Z M 1.65625 -3.3125 L 2.578125 -3.78125 L 1.4375 -4.90625 Z M 1.65625 -3.3125 "/></g></g></g><g fill="#ffffff" fill-opacity="1"><g transform="translate(99.69973, 39.013658)"><g><path d="M 14.75 -5.046875 C 14.9375 -5.046875 15.078125 -4.992188 15.171875 -4.890625 C 15.273438 -4.785156 15.328125 -4.644531 15.328125 -4.46875 L 15.328125 -0.578125 C 15.328125 -0.191406 15.132812 0 14.75 0 L 2.21875 0 C 2.039062 0 1.898438 -0.046875 1.796875 -0.140625 C 1.691406 -0.242188 1.640625 -0.390625 1.640625 -0.578125 L 1.640625 -18.59375 C 1.640625 -18.789062 1.691406 -18.9375 1.796875 -19.03125 C 1.898438 -19.132812 2.039062 -19.1875 2.21875 -19.1875 L 6.859375 -19.1875 C 7.035156 -19.1875 7.175781 -19.132812 7.28125 -19.03125 C 7.382812 -18.9375 7.4375 -18.789062 7.4375 -18.59375 L 7.4375 -5.046875 Z M 14.75 -5.046875 "/></g></g></g><g fill="#ffffff" fill-opacity="1"><g transform="translate(117.567518, 39.013658)"><g><path d="M 19.53125 -0.875 C 19.644531 -0.625 19.648438 -0.410156 19.546875 -0.234375 C 19.453125 -0.0664062 19.257812 0.015625 18.96875 0.015625 L 14.359375 0.015625 C 14.128906 0.015625 13.921875 -0.0507812 13.734375 -0.1875 C 13.554688 -0.332031 13.429688 -0.507812 13.359375 -0.71875 L 12.921875 -2.03125 L 7.078125 -2.03125 L 6.625 -0.734375 C 6.5625 -0.535156 6.441406 -0.363281 6.265625 -0.21875 C 6.085938 -0.0703125 5.875 0 5.625 0 L 1.015625 0 C 0.742188 0 0.550781 -0.0820312 0.4375 -0.25 C 0.332031 -0.414062 0.332031 -0.628906 0.4375 -0.890625 L 8.28125 -18.78125 C 8.394531 -19.03125 8.546875 -19.21875 8.734375 -19.34375 C 8.929688 -19.46875 9.132812 -19.53125 9.34375 -19.53125 L 10.703125 -19.53125 C 10.941406 -19.53125 11.148438 -19.457031 11.328125 -19.3125 C 11.515625 -19.175781 11.648438 -19 11.734375 -18.78125 Z M 8.515625 -6.28125 L 11.484375 -6.28125 L 9.984375 -10.640625 Z M 8.515625 -6.28125 "/></g></g></g><g fill="#ffffff" fill-opacity="1"><g transform="translate(139.424024, 39.013658)"><g><path d="M 14.390625 -10.46875 C 14.992188 -10.257812 15.523438 -9.9375 15.984375 -9.5 C 16.453125 -9.070312 16.816406 -8.570312 17.078125 -8 C 17.347656 -7.4375 17.484375 -6.835938 17.484375 -6.203125 C 17.484375 -5.335938 17.296875 -4.523438 16.921875 -3.765625 C 16.546875 -3.015625 16.023438 -2.359375 15.359375 -1.796875 C 14.703125 -1.234375 13.929688 -0.789062 13.046875 -0.46875 C 12.171875 -0.15625 11.21875 0 10.1875 0 L 2.21875 0 C 2.039062 0 1.898438 -0.046875 1.796875 -0.140625 C 1.691406 -0.242188 1.640625 -0.390625 1.640625 -0.578125 L 1.640625 -18.59375 C 1.640625 -18.789062 1.691406 -18.9375 1.796875 -19.03125 C 1.898438 -19.132812 2.039062 -19.1875 2.21875 -19.1875 L 9.640625 -19.1875 C 10.585938 -19.1875 11.46875 -19.046875 12.28125 -18.765625 C 13.101562 -18.492188 13.820312 -18.113281 14.4375 -17.625 C 15.050781 -17.132812 15.53125 -16.566406 15.875 -15.921875 C 16.21875 -15.273438 16.390625 -14.578125 16.390625 -13.828125 C 16.390625 -13.347656 16.304688 -12.890625 16.140625 -12.453125 C 15.972656 -12.023438 15.738281 -11.640625 15.4375 -11.296875 C 15.132812 -10.953125 14.785156 -10.675781 14.390625 -10.46875 Z M 10.890625 -12.9375 C 10.890625 -13.238281 10.769531 -13.488281 10.53125 -13.6875 C 10.289062 -13.894531 9.992188 -14 9.640625 -14 L 7.4375 -14 L 7.4375 -11.8125 L 9.640625 -11.8125 C 9.992188 -11.8125 10.289062 -11.921875 10.53125 -12.140625 C 10.769531 -12.359375 10.890625 -12.625 10.890625 -12.9375 Z M 10.0625 -5.1875 C 10.363281 -5.1875 10.640625 -5.25 10.890625 -5.375 C 11.140625 -5.5 11.332031 -5.664062 11.46875 -5.875 C 11.613281 -6.082031 11.6875 -6.316406 11.6875 -6.578125 C 11.6875 -6.878906 11.613281 -7.15625 11.46875 -7.40625 C 11.332031 -7.65625 11.140625 -7.847656 10.890625 -7.984375 C 10.640625 -8.128906 10.363281 -8.203125 10.0625 -8.203125 L 7.4375 -8.203125 L 7.4375 -5.1875 Z M 10.0625 -5.1875 "/></g></g></g><g fill="#ffffff" fill-opacity="1"><g transform="translate(159.614356, 39.013658)"><g><path d="M 16.015625 -5.484375 C 16.367188 -5.484375 16.644531 -5.382812 16.84375 -5.1875 C 17.039062 -5 17.140625 -4.742188 17.140625 -4.421875 L 17.140625 -0.796875 C 17.140625 -0.554688 17.066406 -0.363281 16.921875 -0.21875 C 16.773438 -0.0703125 16.582031 0 16.34375 0 L 2.46875 0 C 2.207031 0 2.003906 -0.0703125 1.859375 -0.21875 C 1.710938 -0.363281 1.640625 -0.554688 1.640625 -0.796875 L 1.640625 -18.359375 C 1.640625 -18.617188 1.710938 -18.820312 1.859375 -18.96875 C 2.003906 -19.113281 2.207031 -19.1875 2.46875 -19.1875 L 16.09375 -19.1875 C 16.351562 -19.1875 16.550781 -19.109375 16.6875 -18.953125 C 16.832031 -18.804688 16.90625 -18.609375 16.90625 -18.359375 L 16.90625 -14.515625 C 16.90625 -14.253906 16.832031 -14.050781 16.6875 -13.90625 C 16.550781 -13.757812 16.351562 -13.6875 16.09375 -13.6875 L 7.4375 -13.6875 L 7.4375 -11.453125 L 13.65625 -11.453125 C 13.945312 -11.453125 14.171875 -11.375 14.328125 -11.21875 C 14.492188 -11.070312 14.578125 -10.859375 14.578125 -10.578125 L 14.578125 -8 C 14.578125 -7.738281 14.492188 -7.53125 14.328125 -7.375 C 14.171875 -7.226562 13.945312 -7.15625 13.65625 -7.15625 L 7.4375 -7.15625 L 7.4375 -5.484375 Z M 16.015625 -5.484375 "/></g></g></g><g fill="#ffffff" fill-opacity="1"><g transform="translate(179.880424, 39.013658)"><g><path d="M 14.75 -5.046875 C 14.9375 -5.046875 15.078125 -4.992188 15.171875 -4.890625 C 15.273438 -4.785156 15.328125 -4.644531 15.328125 -4.46875 L 15.328125 -0.578125 C 15.328125 -0.191406 15.132812 0 14.75 0 L 2.21875 0 C 2.039062 0 1.898438 -0.046875 1.796875 -0.140625 C 1.691406 -0.242188 1.640625 -0.390625 1.640625 -0.578125 L 1.640625 -18.59375 C 1.640625 -18.789062 1.691406 -18.9375 1.796875 -19.03125 C 1.898438 -19.132812 2.039062 -19.1875 2.21875 -19.1875 L 6.859375 -19.1875 C 7.035156 -19.1875 7.175781 -19.132812 7.28125 -19.03125 C 7.382812 -18.9375 7.4375 -18.789062 7.4375 -18.59375 L 7.4375 -5.046875 Z M 14.75 -5.046875 "/></g></g></g><g fill="#ffffff" fill-opacity="1"><g transform="translate(197.748212, 39.013658)"><g><path d="M 14.75 -5.046875 C 14.9375 -5.046875 15.078125 -4.992188 15.171875 -4.890625 C 15.273438 -4.785156 15.328125 -4.644531 15.328125 -4.46875 L 15.328125 -0.578125 C 15.328125 -0.191406 15.132812 0 14.75 0 L 2.21875 0 C 2.039062 0 1.898438 -0.046875 1.796875 -0.140625 C 1.691406 -0.242188 1.640625 -0.390625 1.640625 -0.578125 L 1.640625 -18.59375 C 1.640625 -18.789062 1.691406 -18.9375 1.796875 -19.03125 C 1.898438 -19.132812 2.039062 -19.1875 2.21875 -19.1875 L 6.859375 -19.1875 C 7.035156 -19.1875 7.175781 -19.132812 7.28125 -19.03125 C 7.382812 -18.9375 7.4375 -18.789062 7.4375 -18.59375 L 7.4375 -5.046875 Z M 14.75 -5.046875 "/></g></g></g><g fill="#ffffff" fill-opacity="1"><g transform="translate(215.616001, 39.013658)"><g><path d="M 19.53125 -0.875 C 19.644531 -0.625 19.648438 -0.410156 19.546875 -0.234375 C 19.453125 -0.0664062 19.257812 0.015625 18.96875 0.015625 L 14.359375 0.015625 C 14.128906 0.015625 13.921875 -0.0507812 13.734375 -0.1875 C 13.554688 -0.332031 13.429688 -0.507812 13.359375 -0.71875 L 12.921875 -2.03125 L 7.078125 -2.03125 L 6.625 -0.734375 C 6.5625 -0.535156 6.441406 -0.363281 6.265625 -0.21875 C 6.085938 -0.0703125 5.875 0 5.625 0 L 1.015625 0 C 0.742188 0 0.550781 -0.0820312 0.4375 -0.25 C 0.332031 -0.414062 0.332031 -0.628906 0.4375 -0.890625 L 8.28125 -18.78125 C 8.394531 -19.03125 8.546875 -19.21875 8.734375 -19.34375 C 8.929688 -19.46875 9.132812 -19.53125 9.34375 -19.53125 L 10.703125 -19.53125 C 10.941406 -19.53125 11.148438 -19.457031 11.328125 -19.3125 C 11.515625 -19.175781 11.648438 -19 11.734375 -18.78125 Z M 8.515625 -6.28125 L 11.484375 -6.28125 L 9.984375 -10.640625 Z M 8.515625 -6.28125 "/></g></g></g><g fill="#ffffff" fill-opacity="1"><g transform="translate(237.472506, 39.013658)"><g><path d="M 0.953125 -17.296875 C 0.953125 -17.765625 1.0625 -18.179688 1.28125 -18.546875 C 1.5 -18.921875 1.796875 -19.21875 2.171875 -19.4375 C 2.554688 -19.65625 2.984375 -19.765625 3.453125 -19.765625 C 3.941406 -19.765625 4.382812 -19.632812 4.78125 -19.375 C 5.1875 -19.113281 5.507812 -18.753906 5.75 -18.296875 C 5.988281 -17.847656 6.109375 -17.34375 6.109375 -16.78125 C 6.109375 -16.070312 6.046875 -15.4375 5.921875 -14.875 C 5.804688 -14.320312 5.628906 -13.789062 5.390625 -13.28125 C 5.160156 -12.769531 4.867188 -12.234375 4.515625 -11.671875 C 4.429688 -11.546875 4.304688 -11.460938 4.140625 -11.421875 C 3.984375 -11.378906 3.832031 -11.398438 3.6875 -11.484375 L 2.453125 -12.15625 C 2.328125 -12.226562 2.253906 -12.347656 2.234375 -12.515625 C 2.222656 -12.691406 2.269531 -12.875 2.375 -13.0625 C 2.488281 -13.25 2.613281 -13.453125 2.75 -13.671875 C 2.882812 -13.898438 3 -14.109375 3.09375 -14.296875 C 3.195312 -14.484375 3.25 -14.628906 3.25 -14.734375 C 3.25 -14.796875 3.238281 -14.84375 3.21875 -14.875 C 3.207031 -14.914062 3.195312 -14.945312 3.1875 -14.96875 C 3.15625 -14.96875 3.117188 -14.960938 3.078125 -14.953125 C 3.046875 -14.953125 2.984375 -14.953125 2.890625 -14.953125 C 2.535156 -14.953125 2.210938 -15.050781 1.921875 -15.25 C 1.628906 -15.457031 1.394531 -15.738281 1.21875 -16.09375 C 1.039062 -16.457031 0.953125 -16.859375 0.953125 -17.296875 Z M 0.953125 -17.296875 "/></g></g></g><g fill="#ffffff" fill-opacity="1"><g transform="translate(246.441417, 39.013658)"><g><path d="M 9.203125 0.359375 C 8.097656 0.359375 7.03125 0.226562 6 -0.03125 C 4.96875 -0.289062 4.03125 -0.65625 3.1875 -1.125 C 2.351562 -1.601562 1.675781 -2.164062 1.15625 -2.8125 C 1.03125 -2.976562 0.984375 -3.160156 1.015625 -3.359375 C 1.054688 -3.566406 1.164062 -3.769531 1.34375 -3.96875 L 4.125 -6.75 C 4.28125 -6.914062 4.46875 -6.988281 4.6875 -6.96875 C 4.90625 -6.957031 5.125 -6.867188 5.34375 -6.703125 C 5.882812 -6.285156 6.460938 -5.925781 7.078125 -5.625 C 7.703125 -5.320312 8.328125 -5.171875 8.953125 -5.171875 C 9.492188 -5.171875 9.882812 -5.234375 10.125 -5.359375 C 10.363281 -5.484375 10.484375 -5.65625 10.484375 -5.875 C 10.484375 -6.019531 10.441406 -6.144531 10.359375 -6.25 C 10.285156 -6.363281 10.148438 -6.472656 9.953125 -6.578125 C 9.753906 -6.679688 9.46875 -6.796875 9.09375 -6.921875 C 8.71875 -7.054688 8.226562 -7.210938 7.625 -7.390625 C 6.582031 -7.691406 5.691406 -8.019531 4.953125 -8.375 C 4.210938 -8.738281 3.609375 -9.148438 3.140625 -9.609375 C 2.671875 -10.078125 2.328125 -10.617188 2.109375 -11.234375 C 1.898438 -11.847656 1.796875 -12.5625 1.796875 -13.375 C 1.796875 -14.625 2.09375 -15.707031 2.6875 -16.625 C 3.289062 -17.550781 4.140625 -18.265625 5.234375 -18.765625 C 6.328125 -19.273438 7.617188 -19.53125 9.109375 -19.53125 C 9.859375 -19.53125 10.59375 -19.429688 11.3125 -19.234375 C 12.039062 -19.046875 12.71875 -18.785156 13.34375 -18.453125 C 13.96875 -18.117188 14.484375 -17.734375 14.890625 -17.296875 C 15.078125 -17.109375 15.171875 -16.882812 15.171875 -16.625 C 15.179688 -16.375 15.09375 -16.140625 14.90625 -15.921875 L 12.671875 -13.34375 C 12.398438 -13.03125 12.140625 -12.882812 11.890625 -12.90625 C 11.640625 -12.925781 11.363281 -13.019531 11.0625 -13.1875 C 10.65625 -13.4375 10.253906 -13.632812 9.859375 -13.78125 C 9.460938 -13.9375 9.113281 -14.015625 8.8125 -14.015625 C 8.382812 -14.015625 8.050781 -13.953125 7.8125 -13.828125 C 7.582031 -13.710938 7.46875 -13.539062 7.46875 -13.3125 C 7.46875 -13 7.75 -12.722656 8.3125 -12.484375 C 8.882812 -12.253906 9.648438 -12.003906 10.609375 -11.734375 C 11.242188 -11.554688 11.851562 -11.359375 12.4375 -11.140625 C 13.019531 -10.929688 13.554688 -10.6875 14.046875 -10.40625 C 14.535156 -10.125 14.960938 -9.785156 15.328125 -9.390625 C 15.703125 -8.992188 15.988281 -8.515625 16.1875 -7.953125 C 16.382812 -7.398438 16.484375 -6.738281 16.484375 -5.96875 C 16.484375 -5 16.296875 -4.125 15.921875 -3.34375 C 15.554688 -2.5625 15.039062 -1.894531 14.375 -1.34375 C 13.71875 -0.800781 12.945312 -0.378906 12.0625 -0.078125 C 11.1875 0.210938 10.234375 0.359375 9.203125 0.359375 Z M 9.203125 0.359375 "/></g></g></g><g fill="#ffffff" fill-opacity="1"><g transform="translate(126.373116, 75.091518)"><g><path d="M 9.21875 -19.1875 C 10.476562 -19.1875 11.632812 -18.988281 12.6875 -18.59375 C 13.75 -18.207031 14.664062 -17.664062 15.4375 -16.96875 C 16.21875 -16.269531 16.820312 -15.441406 17.25 -14.484375 C 17.6875 -13.535156 17.90625 -12.492188 17.90625 -11.359375 C 17.90625 -10.234375 17.6875 -9.195312 17.25 -8.25 C 16.820312 -7.3125 16.21875 -6.492188 15.4375 -5.796875 C 14.664062 -5.109375 13.75 -4.570312 12.6875 -4.1875 C 11.632812 -3.8125 10.476562 -3.625 9.21875 -3.625 L 7.4375 -3.625 L 7.4375 -0.796875 C 7.4375 -0.554688 7.359375 -0.363281 7.203125 -0.21875 C 7.054688 -0.0703125 6.847656 0 6.578125 0 L 2.453125 0 C 2.191406 0 1.988281 -0.0664062 1.84375 -0.203125 C 1.707031 -0.347656 1.640625 -0.546875 1.640625 -0.796875 L 1.640625 -18.359375 C 1.640625 -18.597656 1.710938 -18.796875 1.859375 -18.953125 C 2.015625 -19.109375 2.210938 -19.1875 2.453125 -19.1875 L 4.671875 -19.1875 C 5.085938 -19.1875 5.46875 -19.1875 5.8125 -19.1875 C 6.164062 -19.1875 6.429688 -19.1875 6.609375 -19.1875 Z M 8.8125 -8.671875 C 9.445312 -8.671875 10.015625 -8.785156 10.515625 -9.015625 C 11.015625 -9.253906 11.40625 -9.578125 11.6875 -9.984375 C 11.976562 -10.398438 12.125 -10.867188 12.125 -11.390625 C 12.125 -11.921875 11.976562 -12.390625 11.6875 -12.796875 C 11.40625 -13.203125 11.015625 -13.519531 10.515625 -13.75 C 10.015625 -13.988281 9.445312 -14.109375 8.8125 -14.109375 L 7.4375 -14.109375 L 7.4375 -8.671875 Z M 8.8125 -8.671875 "/></g></g></g><g fill="#ffffff" fill-opacity="1"><g transform="translate(151.493847, 75.091518)"><g><path d="M 7.421875 -18.59375 L 7.421875 -0.578125 C 7.421875 -0.191406 7.226562 0 6.84375 0 L 2.21875 0 C 1.832031 0 1.640625 -0.191406 1.640625 -0.578125 L 1.640625 -18.59375 C 1.640625 -18.988281 1.832031 -19.1875 2.21875 -19.1875 L 6.84375 -19.1875 C 7.226562 -19.1875 7.421875 -18.988281 7.421875 -18.59375 Z M 7.421875 -18.59375 "/></g></g></g><g fill="#ffffff" fill-opacity="1"><g transform="translate(167.021461, 75.091518)"><g><path d="M 17.078125 -5.03125 C 17.304688 -5.03125 17.488281 -4.960938 17.625 -4.828125 C 17.757812 -4.703125 17.828125 -4.523438 17.828125 -4.296875 L 17.828125 -0.71875 C 17.828125 -0.488281 17.757812 -0.304688 17.625 -0.171875 C 17.488281 -0.046875 17.304688 0.015625 17.078125 0.015625 L 1.15625 0 C 0.925781 0 0.734375 -0.0664062 0.578125 -0.203125 C 0.421875 -0.347656 0.34375 -0.523438 0.34375 -0.734375 C 0.34375 -0.929688 0.375 -1.113281 0.4375 -1.28125 C 0.5 -1.445312 0.5625 -1.582031 0.625 -1.6875 L 8.34375 -14.140625 L 2.265625 -14.125 C 2.035156 -14.125 1.851562 -14.191406 1.71875 -14.328125 C 1.59375 -14.460938 1.53125 -14.648438 1.53125 -14.890625 L 1.53125 -18.4375 C 1.53125 -18.664062 1.59375 -18.847656 1.71875 -18.984375 C 1.851562 -19.117188 2.035156 -19.1875 2.265625 -19.1875 L 16.671875 -19.1875 C 16.910156 -19.1875 17.097656 -19.117188 17.234375 -18.984375 C 17.367188 -18.847656 17.4375 -18.664062 17.4375 -18.4375 C 17.4375 -18.289062 17.410156 -18.15625 17.359375 -18.03125 C 17.304688 -17.914062 17.25 -17.796875 17.1875 -17.671875 L 9.53125 -5.03125 Z M 17.078125 -5.03125 "/></g></g></g><g fill="#ffffff" fill-opacity="1"><g transform="translate(192.104324, 75.091518)"><g><path d="M 17.078125 -5.03125 C 17.304688 -5.03125 17.488281 -4.960938 17.625 -4.828125 C 17.757812 -4.703125 17.828125 -4.523438 17.828125 -4.296875 L 17.828125 -0.71875 C 17.828125 -0.488281 17.757812 -0.304688 17.625 -0.171875 C 17.488281 -0.046875 17.304688 0.015625 17.078125 0.015625 L 1.15625 0 C 0.925781 0 0.734375 -0.0664062 0.578125 -0.203125 C 0.421875 -0.347656 0.34375 -0.523438 0.34375 -0.734375 C 0.34375 -0.929688 0.375 -1.113281 0.4375 -1.28125 C 0.5 -1.445312 0.5625 -1.582031 0.625 -1.6875 L 8.34375 -14.140625 L 2.265625 -14.125 C 2.035156 -14.125 1.851562 -14.191406 1.71875 -14.328125 C 1.59375 -14.460938 1.53125 -14.648438 1.53125 -14.890625 L 1.53125 -18.4375 C 1.53125 -18.664062 1.59375 -18.847656 1.71875 -18.984375 C 1.851562 -19.117188 2.035156 -19.1875 2.265625 -19.1875 L 16.671875 -19.1875 C 16.910156 -19.1875 17.097656 -19.117188 17.234375 -18.984375 C 17.367188 -18.847656 17.4375 -18.664062 17.4375 -18.4375 C 17.4375 -18.289062 17.410156 -18.15625 17.359375 -18.03125 C 17.304688 -17.914062 17.25 -17.796875 17.1875 -17.671875 L 9.53125 -5.03125 Z M 17.078125 -5.03125 "/></g></g></g><g fill="#ffffff" fill-opacity="1"><g transform="translate(217.187187, 75.091518)"><g><path d="M 19.53125 -0.875 C 19.644531 -0.625 19.648438 -0.410156 19.546875 -0.234375 C 19.453125 -0.0664062 19.257812 0.015625 18.96875 0.015625 L 14.359375 0.015625 C 14.128906 0.015625 13.921875 -0.0507812 13.734375 -0.1875 C 13.554688 -0.332031 13.429688 -0.507812 13.359375 -0.71875 L 12.921875 -2.03125 L 7.078125 -2.03125 L 6.625 -0.734375 C 6.5625 -0.535156 6.441406 -0.363281 6.265625 -0.21875 C 6.085938 -0.0703125 5.875 0 5.625 0 L 1.015625 0 C 0.742188 0 0.550781 -0.0820312 0.4375 -0.25 C 0.332031 -0.414062 0.332031 -0.628906 0.4375 -0.890625 L 8.28125 -18.78125 C 8.394531 -19.03125 8.546875 -19.21875 8.734375 -19.34375 C 8.929688 -19.46875 9.132812 -19.53125 9.34375 -19.53125 L 10.703125 -19.53125 C 10.941406 -19.53125 11.148438 -19.457031 11.328125 -19.3125 C 11.515625 -19.175781 11.648438 -19 11.734375 -18.78125 Z M 8.515625 -6.28125 L 11.484375 -6.28125 L 9.984375 -10.640625 Z M 8.515625 -6.28125 "/></g></g></g></svg>