<?xml version="1.0" encoding="UTF-8"?>
<svg id="Layer_1" data-name="Layer 1" xmlns="http://www.w3.org/2000/svg" xmlns:xlink="http://www.w3.org/1999/xlink" version="1.1" viewBox="0 0 364 122">
  <defs>
    <style>
      .cls-1 {
        fill: #ce222a;
      }

      .cls-1, .cls-2, .cls-3, .cls-4, .cls-5, .cls-6, .cls-7, .cls-8, .cls-9, .cls-10, .cls-11, .cls-12 {
        stroke-width: 0px;
      }

      .cls-13 {
        clip-path: url(#clippath);
      }

      .cls-2, .cls-14 {
        fill: none;
      }

      .cls-3 {
        fill: #ec2236;
      }

      .cls-4, .cls-8 {
        fill: #b8b8ca;
      }

      .cls-5 {
        fill: #e81919;
      }

      .cls-15 {
        clip-path: url(#clippath-1);
      }

      .cls-16 {
        clip-path: url(#clippath-4);
      }

      .cls-17 {
        clip-path: url(#clippath-3);
      }

      .cls-18 {
        clip-path: url(#clippath-2);
      }

      .cls-19 {
        clip-path: url(#clippath-6);
      }

      .cls-20 {
        clip-path: url(#clippath-5);
      }

      .cls-6 {
        fill: #349c3d;
      }

      .cls-7 {
        fill: #008037;
      }

      .cls-8, .cls-9, .cls-10 {
        fill-rule: evenodd;
      }

      .cls-9, .cls-12 {
        fill: #1c2247;
      }

      .cls-10, .cls-11 {
        fill: #fff;
      }

      .cls-14 {
        stroke: #fff;
        stroke-miterlimit: 4;
        stroke-width: 4px;
      }
    </style>
    <clipPath id="clippath">
      <rect class="cls-2" x="13.1" y="57.6" width="8.2" height="8.2"/>
    </clipPath>
    <clipPath id="clippath-1">
      <circle class="cls-2" cx="17.2" cy="61.7" r="4.1"/>
    </clipPath>
    <clipPath id="clippath-2">
      <rect class="cls-2" x="7" y="6.8" width="109.4" height="109.4"/>
    </clipPath>
    <clipPath id="clippath-3">
      <path class="cls-2" d="M61.9,6.8C31.6,6.8,7,31.4,7,61.7s24.6,54.9,54.9,54.9,54.9-24.6,54.9-54.9S92.3,6.8,61.9,6.8Z"/>
    </clipPath>
    <clipPath id="clippath-4">
      <rect class="cls-2" x="23.4" y="23.2" width="76.6" height="76.6"/>
    </clipPath>
    <clipPath id="clippath-5">
      <rect class="cls-2" x="103.4" y="57.6" width="8.2" height="8.2"/>
    </clipPath>
    <clipPath id="clippath-6">
      <circle class="cls-2" cx="107.6" cy="61.7" r="4.1"/>
    </clipPath>
  </defs>
  <g class="cls-13">
    <g class="cls-15">
      <path class="cls-7" d="M13.1,57.6h8.2v8.2h-8.2v-8.2Z"/>
    </g>
  </g>
  <g class="cls-18">
    <g class="cls-17">
      <path class="cls-14" d="M61.9,6.8C31.6,6.8,7,31.4,7,61.7s24.6,54.9,54.9,54.9,54.9-24.6,54.9-54.9S92.3,6.8,61.9,6.8Z"/>
    </g>
  </g>
  <g class="cls-16">
    <path class="cls-4" d="M100,61.5c0,21.1-17.1,38.3-38.3,38.3s-38.3-17.1-38.3-38.3S40.6,23.2,61.7,23.2s38.3,17.1,38.3,38.3"/>
  </g>
  <path class="cls-12" d="M61.7,24.5c20.4,0,37,16.6,37,37s-16.6,37-37,37-37-16.6-37-37S41.3,24.5,61.7,24.5"/>
  <path class="cls-11" d="M27.6,61.5c0-18.8,15.3-34.1,34.1-34.1s34.1,15.3,34.1,34.1-15.3,34.1-34.1,34.1-34.1-15.3-34.1-34.1"/>
  <path class="cls-11" d="M61.7,28.7c18.1,0,32.8,14.7,32.8,32.8s-14.7,32.8-32.8,32.8-32.8-14.7-32.8-32.8,14.7-32.8,32.8-32.8"/>
  <path class="cls-6" d="M49.9,30.9v61.2c-12.3-4.8-21-16.7-21-30.6s8.7-25.9,21-30.6"/>
  <path class="cls-3" d="M73.5,92.2V30.9c12.3,4.7,21,16.7,21,30.6s-8.7,25.9-21,30.6"/>
  <path class="cls-1" d="M73.5,31.2c0,0,.2-.2.3-.2,8.4,3.3,15.1,10,18.5,18.4-1,4.6-4.2,5.7-9.2,2.7,0,.4-.3.7-.3.7.8.3,1,.7.8,1.6.7.1,1.2.7,1.4,1.6,1.4.3,2.3,1.2,2.5,2.2,1,.5,2.2,1.3,3.5,2.6,2.1,2.4.8,8.3-2.9,13.4,1.2,3-1.1,6.4-3.7,6.3-.7.9-3.1,3.8-4.5,5.3.1,1,.3,2,.4,2.8-2.1,1.4-4.4,2.6-6.8,3.6V31.2"/>
  <path class="cls-12" d="M42.9,90c1.4-2.7,3.2-5.9,4.4-7.9,14.9.2,24.4,1.7,28.5,4.5.3,2.4.6,4.2.7,5.6-4.5,2.2-9.5,3.4-14.8,3.4s-13.4-2.1-18.8-5.6"/>
  <path class="cls-12" d="M25.3,60.8c0-6.5,7.5-11.8,16.7-11.8s16.7,5.3,16.7,11.8-7.5,11.8-16.7,11.8-16.7-5.3-16.7-11.8"/>
  <path class="cls-9" d="M75.4,83.6c.1,1.1.3,2.1.4,3-5.1-.8-15.1-2.4-28.5-4.5.7-1.2,1.6-2.7,1.6-2.7.4-2.4.4-3.1.8-5.6h-2.5c-.6-.1-1.8-.1-2.1-.8-1.5-.3-2.2-.7-2.1-1.3-1.3,0-2.4-.5-2.6-1.3-2-.2-2.5-.8-2.7-1.7l16.4-14.8c.9-.5,2.8-1.2,6.1-1.4,0-1.5,1-2.4,3-2.7.9-1.1,2.3-1.6,3.8-1.2-.3-1.6-.1-2.8.2-4.1,0-1.1-.2-1.7.4-2.9-3.3-2.4-4.3-4.4-3.3-6.1-.7-3.9,1.2-6.8,4.4-6.2,2.3-2.4,6.9-3.8,10.2-1.6,4.3,0,8.7,2.3,9,8,3,1.8,2.8,5.7.2,9.4-.5,6.3-3.8,8.1-9.5,4.8,0,.4-.3.7-.3.7.8.3,1,.7.8,1.6.7.1,1.2.7,1.4,1.6,1.4.3,2.3,1.2,2.5,2.2,1,.5,2.2,1.3,3.5,2.6,2.1,2.4.8,8.3-2.9,13.4,1.2,3-1.1,6.4-3.7,6.3-.7.9-3.1,3.8-4.5,5.3"/>
  <path class="cls-12" d="M24.7,59.2c0-6.5,7.5-11.8,16.7-11.8s16.7,5.3,16.7,11.8-7.5,11.8-16.7,11.8-16.7-5.3-16.7-11.8"/>
  <path class="cls-9" d="M39.3,48.1l-1.4-1.2c-1.4,0-3.1-.2-5.2-.8-.7,1.1.3,1.9,3,2.4l-1.9.8h-1.7c0,.1-3.5-1.4-3.5-1.4-.8,0-1,.2-.7,1l2.6,1.8-.4.2-2.6-1.4c-.7,0-1,.2-1,.9l2.4,1.7v.3c0,0-2.3-1.6-2.3-1.6-1-.2-1.4.2-1.2,1l2.3,1.6c-.1.2-1.8-.8-1.8-.8-1,0-1.3.3-.9,1l2.9,1.6,11.4-7"/>
  <path class="cls-10" d="M69,39.4l-.3,1.1v.9c-.6.8-.8,1.9-.7,3.3-.3,1.2-.4,2.6-.3,4.2.1,1.3,1.8,1.9,4.4,2.2.9.1,2.4-.5,4.4-1.8-2.1,2.9-4.7,3.5-7.7,2-.4.8-.6,1.5-.6,2.4.8-.5,1.6-.2,2.5,1,2.4.2,4.6-.8,6.4-2.9l1.1-3.8c1.9,2.4,4.7-6,.9-3l-.9-.4-.2-1.4.5-1c-4.1-3-7.8-3.4-9.4-2.7"/>
  <path class="cls-10" d="M80.3,43.3c-3.3-4.1-8.3-5.2-11.4-4.6.2-.7.6-1.5,1.4-2.4,4.5-.5,8,1.1,10.3,4.9l-.3,2.2"/>
  <path class="cls-10" d="M69.6,36.3c-.8.4-1.3,1.3-1.5,2.7-.3.4-.4.8-.4,1.2-1.7-.9-2.6-2-2.9-3.4.7.9,1.8,2.6,2.6,2-4.2-3-3-8.8.9-8.7l-.3,1.3c2.9-3.6,6.1-4.6,9.8-3.1l-1.1.9c7.2-2.2,10.6,4.2,10.1,7.1l-.3.6c2.7-.9,4.4,4.1-1.3,9.3.6.1,1.3-.2,2.1-1-.3,5.3-3.2,6.7-8.7,4.1l.2-.6c0,.3.9.6,2.3.8l-1.4-.9c1.8-1.1,2.2-3.5,1.7-4.3v-1.2c.7.5,1.8.7,3.4.4-2.5-.3-3.6-1-3.3-2.1.7.4,1.6.2,2.9-.6-1.9.4-2.9.3-3.1,0-.8-1.1-1.7-2.1-2.6-2.9,1,0,1.9-.2,2.9-.7-3.6,0-6-.5-7.2-1.4-.3-1.1.2-2.6,1.6-4.6-1.5,1.2-2.3,2.7-2.3,4.5h-3.1c-.7-.6-.9-1.7-.5-3.4-1.1,1.8-1.1,2.7-.5,4.1"/>
  <path class="cls-9" d="M71.5,41.3l-.6-.4c-.7-.2-1.2-.3-1.6-.3v.6c0,0,.7.9.7.9h.8s0,.5,0,.5l.8-1.2"/>
  <path class="cls-9" d="M73.3,41.5l-.2.6c.1.3.5.7,1,1.2l1.5-.2h.2c0,.1.3,0,.3,0l-.7-1c-1.2-.4-1.9-.6-2.3-.6"/>
  <path class="cls-9" d="M71.4,44.3c-.6,0-.9-.1-1.2-.4l-.4.9h.4s.2,0,.2,0l.3.5.3-.3c.3,0,.7.6,1.5.4-.5-.2-.8-.8-1.1-1.2"/>
  <path class="cls-9" d="M72.8,47.1l-1.6-.7h-.7s-.5-.4-.5-.4c-.6,0-.9,0-1.2-.2l-.2.2.7.3c.3.4,1.1.7,2.5.8l1,.3v-.3"/>
  <path class="cls-9" d="M71.6,48.1c-1.4-.2-2-.5-2.5-1l.4.9c.5,0,1.3.2,2.5.8l-.3-.8"/>
  <path class="cls-10" d="M78.1,51.7c-2.5,2.5-5.1,3.7-7.7,3.7-.3.7-.6,1.3-1,1.6,1.4.7,5.8.5,13-.4-.1-1-.7-1.6-1.9-1.6-1.4.9-2.9,1.4-4.5,1.5,1.5-.5,2.8-1.2,4-2-.2-.9-.6-1.3-1.1-1.2-1.3,1.8-3,2.8-5.1,3.2,2.2-.8,3.8-2.1,4.9-3.9,0-.6-.3-.8-.5-.8"/>
  <path class="cls-10" d="M67.1,49.6c-.7,1-.5,2.3.6,3.9-.9.3-1.4,1.2-1.5,2.9-1.4-.2-3.1-1.2-5.3-3.2.2-1.4.9-2.3,2.2-2.5,0,1.1.7,2.4,2.3,3.8-1.1-1.6-1.6-3-1.5-4.1.2-1,1.2-1.3,3.2-.9"/>
  <path class="cls-10" d="M69.8,54.2c-2-.6-3,.3-2.9,2.7l.6.5c-.3-1-.2-1.7.2-1.9-.2,1,0,1.7.4,2h.7c.7-1.2,1.1-1.9,1.1-2.2v-1"/>
  <path class="cls-10" d="M66.4,57c-3.2.8-4.3,3.5-3.3,8.2,2-2.7,3-5.8,4.3-6.7l-.2-.7c-1.2.5-2.2,1.6-3,3.5.4-1.9,1.3-3.2,2.8-3.9l-.4-.3"/>
  <path class="cls-10" d="M67.6,58c-.6,2.9-.4,5.9.5,9,2.5-4.3,2.9-7.5,1.1-9.5l-.8.2c.3,1.2.3,2.2.1,3-.1-1.4-.4-2.3-.9-2.8"/>
  <path class="cls-10" d="M60.3,53.6c-1.5,0-3,.2-3.9.7,2.1,4,2,8.6-1.4,12.5,0,.2,0,.2.2.5,2.2,1.1,6.8,2,12.5,3,.6-2.3,2.1-4.1,4-4.7,4.4-.7,8.1,1.4,11.5,5.6,2.8-4.4,4.6-9.2,2.9-11.7-1.3-1.4-2.4-2.2-3.3-2.3-6.3,1.1-10.4,1.3-12.3.8,1.2,3.3.3,7-2.5,10.4-.8-2.2-1.3-4.4-1.4-7.5-.9,2-2.1,4-3.8,6.4-1.5-4.6-.6-8.4,2.4-10.4-2.4-.5-4-1.7-4.8-3"/>
  <path class="cls-10" d="M72.8,66.2c-2.8.6-4.3,2-4.5,4.2,4.5-1.5,8.5.5,12.2,6-.2-2.9-1.8-5.1-4.9-6.7,2.8.2,5.4,1.7,6,6.1,1.1-.9,1.3-1.4,1.1-3-1.8-3.4-5.9-6.4-9.9-6.6"/>
  <path class="cls-10" d="M79.1,76.7c-3.6-4.4-6.7-6.7-10.3-5.7,1.8.9,3.2,1.8,4,3-5.2-2.7-12-3.8-17.9-6.2l-3.7-3.7-3.8-.7-4.4.9c0,.8,1.4,1,4.3.8.8,0,1,.6.5,1.5l-2.4,1.2-3.5.4h-3.7c-.5.7,0,1.1,1.2,1.4h2c0,.1,3.7-.1,3.7-.1.4,0,.4.2.3.4l-3,.5h-1.3c.2.3.5.6,1.1.7l1.4.2,2.5-.4c.4,0,.6.2.4.3l-2.6.5c0,.4.4.6,1.4.8l1.9-.3c.4,0,.5.1.4.3l-1.4.2c0,.3.4.4,1.1.4l5.5-.7c7.7,3.4,12.7,8.3,20.5,10.1,1.8-1.1,3.4-2.6,5.7-5.8"/>
  <path class="cls-10" d="M51.3,73.8l-.7,7.4c5.8,3.6,12.6,4.2,22.8,2.3-7.6-1.5-15.2-6.8-20-10.1l-2.2.4"/>
  <path class="cls-9" d="M78.6,58.5c-3.2,1.1-5.6,3.7-7.2,7.6l1.5-.2c1-2.4,2.9-4.9,5.7-7.5"/>
  <path class="cls-11" d="M41.3,48.3c9,0,15.6,5.3,15.6,10.9s-1.2,4.7-3.4,6.6l-2-2-4-.7-4.8.9v.3c-.1.8.7,1.2,1.4,1.3.8.1,1.9.1,3.4,0,.3,0,.5,0,.2.7l-2.2,1.1-3.4.4h-3.9v.2c-.5.4-.6,1-.2,1.4,0,0,.1.1.2.2-7.3-1-12.3-5.6-12.3-10.5s6.5-10.9,15.5-10.9"/>
  <path class="cls-9" d="M48.1,49.1l-6.6,7.7,7.7-7.3-1-.3Z"/>
  <path class="cls-9" d="M38.3,48.2l2.8,8.6-3.6-8.6h.8Z"/>
  <path class="cls-9" d="M41.1,57.3l-12.2-5.1-.6.6,12.7,4.5Z"/>
  <path class="cls-9" d="M40.9,57.5l-11.2,8.9,1.2.9,10-9.7Z"/>
  <path class="cls-9" d="M41.2,57.3v10.8c-.1,0,.8-.1.8-.1l-.8-10.7Z"/>
  <path class="cls-9" d="M56,55.4l-15,1.9,15.5-1.1-.5-.8Z"/>
  <path class="cls-9" d="M55.9,63.5l-14.6-6,14.1,6.7.5-.7Z"/>
  <path class="cls-9" d="M41.2,57.4l-15.6,2.1-.2,1,15.8-3.1Z"/>
  <path class="cls-12" d="M28.1,55.9c0,0,0-.1,0-.2.2.4.7.7,1.3.7s1.4-.4,1.5-1c0,.1.1.3.1.5,0,.6-.7,1.2-1.5,1.2s-1.5-.5-1.5-1.2"/>
  <path class="cls-12" d="M34,51.7c0-.6.7-1.2,1.5-1.2s1.5.5,1.5,1.2-.7,1.2-1.5,1.2-1.5-.5-1.5-1.2ZM34.4,51.8c0,.5.5.9,1.1.9s1.1-.4,1.1-.9-.5-.9-1.1-.9-1.1.4-1.1.9"/>
  <path class="cls-12" d="M33.8,59.5c0,0,0-.1,0-.2.2.4.7.7,1.3.7s1.4-.4,1.5-1c0,.1.1.3.1.5,0,.6-.7,1.2-1.5,1.2s-1.5-.5-1.5-1.2"/>
  <path class="cls-12" d="M28.7,62.1c0,0,0-.1,0-.2.2.4.7.7,1.3.7s1.4-.4,1.5-1c0,.1.1.3.1.5,0,.6-.7,1.2-1.5,1.2s-1.5-.5-1.5-1.2"/>
  <path class="cls-12" d="M37,66.1c0,0,0-.1,0-.2.2.4.7.7,1.3.7s1.4-.4,1.5-1c0,.1.1.3.1.5,0,.6-.7,1.2-1.5,1.2s-1.5-.5-1.5-1.2"/>
  <path class="cls-12" d="M48.3,58.6c0,0,0-.1,0-.2.2.4.7.7,1.3.7s1.4-.4,1.5-1c0,.1.1.3.1.5,0,.6-.7,1.2-1.5,1.2s-1.5-.5-1.5-1.2"/>
  <path class="cls-12" d="M44.4,61.9c0,0,0-.1,0-.2.2.4.7.7,1.3.7s1.4-.4,1.5-1c0,.1.1.3.1.5,0,.6-.7,1.2-1.5,1.2s-1.5-.5-1.5-1.2"/>
  <path class="cls-12" d="M48.4,53.8c0,0,0-.1,0-.2.2.4.7.7,1.3.7s1.4-.4,1.5-1c0,.1.1.3.1.5,0,.6-.7,1.2-1.5,1.2s-1.5-.5-1.5-1.2"/>
  <path class="cls-9" d="M33.8,61.4c-.5-.9-1.4-1.2-2.9-1.1l.3-.3c1.3-.3,2.3,0,2.8.9l-.2.5"/>
  <path class="cls-9" d="M31.9,55.1c.6.7.8,1.3.5,2l.6-.2c.2-1-.1-1.6-1.2-1.8"/>
  <path class="cls-9" d="M29.2,58.1l-1.6-.9-.2.7,1.8.2Z"/>
  <path class="cls-9" d="M30.2,61.8l.2.6h-.4l.3-.6Z"/>
  <path class="cls-9" d="M29.9,55.6l.7.3-.3.3-.4-.6Z"/>
  <path class="cls-9" d="M29.3,55.8l-.5.5-.2-.2.7-.3Z"/>
  <path class="cls-9" d="M36.2,56.4l-1.3.2.2.6,1.2-.4,1.4.2-.4-.6h-1.1"/>
  <path class="cls-9" d="M39.5,54.6s-.3-.4-.6-.3c-.3.2-.6.4-.8.4-.2,0-1.3-.5-1.3-.5v-.4c.1,0,1.1.7,1.5.5.3-.2.5-.4.7-.4.3,0,.5.6.5.6h0"/>
  <path class="cls-9" d="M32.8,51.3l-1.7.6.5.4,1.2-1Z"/>
  <path class="cls-9" d="M38.4,63.7c0-.1-.8-.5-1.2-.4s-1.2.8-1.4.9c-.2,0-1-.3-1-.3l.3-.5s.3.4.8,0c.5-.3.7-.7,1-.7s.7-.1.9,0c.2.2.6,1,.5.9"/>
  <path class="cls-9" d="M40.2,59.4l-1.5,1,1.5.7v-1.8Z"/>
  <path class="cls-9" d="M35.2,66.1h-2.2c0,.1.6.8.6.8l1.7-.8Z"/>
  <path class="cls-9" d="M44,61.8c-.2,0-1.6.2-1.6.2l.3,1,1.3-1.1"/>
  <path class="cls-9" d="M42.9,58.8s-.6.2-.7.5c-.2.3.1,1.1,0,1.4-.1.2-.4.7-.4.7,0,0,.7-.2.9-.6.2-.4,0-.8,0-1,0-.2-.2-.3,0-.4.2-.1.2-.6.2-.6"/>
  <path class="cls-12" d="M41.8,53.1c0-.6.7-1.2,1.5-1.2s1.5.5,1.5,1.2-.7,1.2-1.5,1.2-1.5-.5-1.5-1.2ZM42.3,53.1c0,.5.5.9,1.1.9s1.1-.4,1.1-.9-.5-.9-1.1-.9-1.1.4-1.1.9"/>
  <path class="cls-12" d="M39.7,49.9c0-.6.7-1.2,1.5-1.2s1.5.5,1.5,1.2-.7,1.2-1.5,1.2-1.5-.5-1.5-1.2ZM40.2,50c0,.5.5.9,1.1.9s1.1-.4,1.1-.9-.5-.9-1.1-.9-1.1.4-1.1.9"/>
  <path class="cls-12" d="M52.6,61.2c0-.6.7-1.2,1.5-1.2s1.5.5,1.5,1.2-.7,1.2-1.5,1.2-1.5-.5-1.5-1.2ZM53,61.3c0,.5.5.9,1.1.9s1.1-.4,1.1-.9-.5-.9-1.1-.9-1.1.4-1.1.9"/>
  <path class="cls-12" d="M37.9,62.4c0-.6.7-1.2,1.5-1.2s1.5.5,1.5,1.2-.7,1.2-1.5,1.2-1.5-.5-1.5-1.2ZM38.4,62.4c0,.5.5.9,1.1.9s1.1-.4,1.1-.9-.5-.9-1.1-.9-1.1.4-1.1.9"/>
  <path class="cls-9" d="M47,54.7l-1.8.4v1c.1,0,2.4-.3,2.4-.3l-.6-1.1"/>
  <path class="cls-9" d="M47.4,57.8l-1.7.9,1.2.9.6-.6v-1.1"/>
  <path class="cls-9" d="M55,58.1l-2,.3,1.7.7.3-1Z"/>
  <path class="cls-9" d="M54.2,54.4c-.2.2-.7-.4-1.4-.4s-.8.6-1.2.8c-.5.1-.8.2-.8.2,0,0,.8.5,1.3.3.5-.2.5-.7.8-.6s1.3-.2,1.3-.2"/>
  <path class="cls-9" d="M45.1,49.5l-1.7.9,1.2.8,1.2-1.3-.6-.5"/>
  <path class="cls-9" d="M50,61.9l-1.6.8,1.4.3.2-1.1Z"/>
  <path class="cls-9" d="M43.9,66.1c-.3,0-1.4.2-1.4.2l.2.9,1.4-.3-.2-.8"/>
  <path class="cls-9" d="M37,67.8l-1-1.1-1,.8,1.2.7.9-.4"/>
  <path class="cls-12" d="M39.8,56.8c0-.3.3-.5.7-.5s.8.2.8.5-.3.5-.8.5-.7-.2-.7-.5"/>
  <path class="cls-4" d="M26.5,64.4c2.6,4,8.3,6.7,14.8,6.8l1.2.9c-.2,0-.3,0-.5,0-7.1,0-13.2-3.2-15.6-7.6"/>
  <path class="cls-8" d="M49.3,82.2c2.3,2.7,7,4.3,14.2,4.7-7.3.3-12.4-.8-15.3-3.2l1.2-1.5"/>
  <path class="cls-4" d="M38.9,69.5l6.4-.3,8.2,1.7c8.2,4.7,14.7,7.4,19.3,8.3,0,0,3-2.7,4.7-4.4.5.6,1.1,1.2,1.7,1.9-2.3,3.2-3.8,4.7-5.7,5.8-7.8-1.8-12.7-6.7-20.5-10.1l-5.5.7c-.8,0-1.1-.2-1.1-.4l1.4-.2c.1-.1,0-.2-.4-.3l-1.9.3c-1-.1-1.4-.4-1.4-.8l2.6-.5c.1-.2,0-.3-.4-.3l-2.5.4-1.4-.2c-.6-.1-1-.4-1.1-.8h1.3c0,0,3-.4,3-.4.2-.2,0-.3-.3-.4l-3.7.2h-2c-.3-.2-.5-.2-.7-.3"/>
  <path class="cls-8" d="M51.3,73.8l-.7,7.4c5.8,3.6,12.6,4.2,22.8,2.3-7.6-1.5-15.2-6.8-20-10.1l-2.2.4"/>
  <path class="cls-4" d="M78.2,73.4c.3-.4.5-.8.7-1.2,1,1.2,1.5,2.6,1.7,4.2-.8-1.1-1.5-2.1-2.3-3ZM79.3,71c.2-.7.2-1.5,0-2.2,1.5,1.1,2.7,2.5,3.5,4,.1,1.6,0,2.1-1.1,3-.3-2.3-1.2-3.8-2.4-4.8"/>
  <path class="cls-4" d="M79.1,67.4c1.7-1.3,6.3-3.4,4.3-10.1.7.4,1.6,1.1,2.5,2,1.7,2.5-.1,7.3-2.9,11.7-1.3-1.5-2.6-2.7-3.9-3.7"/>
  <path class="cls-4" d="M69.9,33.9c.3.4.9,1,1.7,1.1.8.1,1.8-.5,2.3-1-.2.5-.2,1.1-.2,1.7h-3.1c-.4-.4-.7-.9-.7-1.7ZM74.6,33.9c.2.5.8,1.5,1.6,1.8,1.1.5,5.2,1.4,5.2,1.4-3.5,0-5.8-.5-6.9-1.4-.2-.5-.1-1.1.1-1.9ZM81.2,37.3c-.3.3-.7,1-.5,1.4.2.5,2.4,2,2.8,2.3-1.2.2-1.9,0-2-.3-.8-1.1-1.7-2.1-2.6-2.9.8,0,1.6-.2,2.5-.5ZM83.1,41.5c-.2.3-.5.7-.3.9.1.2.7.7,1,.9-1.7-.4-2.4-1-2.2-1.9.4.3.9.3,1.6,0ZM83.8,43.6c-.3.3-1.3,1.3-1.3,1.9,0,.7.5,1.6.6,2.4,0,.6,2.4.4,3.4.7-1.2,2.4-3.9,2.6-7.9.7l.2-.6c0,.3.9.6,2.3.8l-1.4-.9c1.8-1.1,2.2-3.5,1.7-4.3v-1.2c.5.4,1.3.6,2.4.5ZM65.6,38.6v-.9c.5.8,1.2,1.5,1.8,1.1-.4-.3-.7-.6-1-.9.3,0,.5,0,.5-.5,0-1.3-.2-2.3.4-2.7.4-.3,1.5-.7,2-.9-.3.9-.2,1.6.3,2.6-.8.4-1.3,1.3-1.5,2.7-.3.4-.4.8-.4,1.2-.9-.5-1.6-1-2-1.6"/>
  <path class="cls-8" d="M80.3,43.3c-.4-.5-.9-1-1.4-1.5v-.6c-2-3.3-4.9-5-8.6-5h0c4.5-.6,8,1.1,10.3,4.8l-.3,2.2"/>
  <path class="cls-4" d="M77.9,57c.7-.5,1.1-1,1.2-1.5.4-.2.8-.4,1.2-.7,1.2,0,1.8.6,1.9,1.6-1.6.2-3.1.4-4.4.5ZM78.9,55l-1.3-.6c.4-.4.8-.8,1.2-1.3.6,0,.9.4,1.1,1.2-.3.2-.6.5-1,.7ZM77.5,53.8c.1-.6,0-1.1-.2-1.4.3-.2.5-.5.8-.7.2,0,.4.2.5.8-.3.5-.7,1-1,1.4"/>
  <g class="cls-20">
    <g class="cls-19">
      <path class="cls-5" d="M103.4,57.6h8.2v8.2h-8.2v-8.2Z"/>
    </g>
  </g>
  <path class="cls-11" d="M27.6,34.2c0,0,0-.1.2-.1,0,0,.1,0,.2,0l1.5,1c.2.1.2.2,0,.4l-3.4,4.8c0,0-.1.1-.2.1,0,0-.1,0-.2,0l-6.9-4.9c0,0-.1-.1-.1-.2,0,0,0-.1,0-.2l1.3-1.8c0,0,.1,0,.2-.1,0,0,.1,0,.2,0l5.2,3.7,2-2.8Z"/>
  <path class="cls-11" d="M38,27.2c.1,0,.2.1.2.2,0,0,0,.2-.1.3l-1.6,1.4c0,0-.2.1-.3.1,0,0-.2,0-.3,0l-.6-.3-2.1,1.8.3.6c0,0,0,.2,0,.3,0,0,0,.2-.2.3l-1.6,1.4c0,0-.2.1-.3.1,0,0-.1-.1-.2-.2l-2.6-8.8c0-.1,0-.2,0-.3,0-.1,0-.2.2-.3l.5-.4c0,0,.2-.1.3-.1s.2,0,.3,0l8.2,4ZM32.5,28.6l1-.9-1.8-1.1.8,2Z"/>
  <path class="cls-11" d="M44.4,18.9c.3,0,.6,0,.8.1.3,0,.5.2.8.4.2.2.4.4.5.7.2.4.2.7.2,1.1,0,.4,0,.8-.3,1.1-.2.4-.4.7-.7,1-.3.3-.7.6-1.1.8l-3.4,1.6c0,0-.1,0-.2,0,0,0-.1,0-.1-.2l-3.6-7.6c0,0,0-.2,0-.2,0,0,0-.1.1-.1l3.1-1.5c.4-.2.8-.3,1.2-.4.4,0,.8,0,1.1,0,.4,0,.7.2.9.4.3.2.5.5.6.8,0,.2.2.4.2.6,0,.2,0,.4,0,.6,0,.2-.1.4-.3.5ZM42.4,18.6c0-.1-.2-.2-.3-.3-.1,0-.3,0-.4,0l-.9.4.4.9.9-.4c.2,0,.3-.2.3-.3,0-.1,0-.3,0-.4ZM43.6,22c.1,0,.2-.1.3-.2,0-.1.1-.2.1-.3,0-.1,0-.2,0-.4,0-.1-.1-.2-.3-.3,0,0-.2-.1-.4-.1-.1,0-.3,0-.4,0l-1.1.5.6,1.3,1.1-.5Z"/>
  <path class="cls-11" d="M57.1,18c.2,0,.3,0,.4,0,.1,0,.2.2.2.3l.3,1.6c0,.1,0,.2,0,.3,0,0-.1.1-.3.1l-6.4,1.2c-.1,0-.2,0-.3,0,0,0-.1-.2-.1-.3l-1.5-8.1c0-.1,0-.2,0-.3,0,0,.1-.1.3-.1l6.3-1.1c.1,0,.2,0,.3,0,0,0,.1.1.1.3l.3,1.8c0,.1,0,.2,0,.3,0,0-.1.1-.3.1l-4,.7.2,1,2.9-.5c.1,0,.3,0,.3,0,0,0,.2.2.2.3l.2,1.2c0,.1,0,.2,0,.3,0,0-.2.1-.3.2l-2.9.5v.8c.1,0,4.1-.7,4.1-.7Z"/>
  <path class="cls-11" d="M68,18.4c0,0,.1,0,.2,0,0,0,0,.1,0,.2v1.8c-.1.2-.2.3-.4.3l-5.8-.4c0,0-.2,0-.2,0,0,0,0-.1,0-.2l.5-8.4c0,0,0-.2,0-.2,0,0,.1,0,.2,0h2.2c0,.1.1.2.2.2,0,0,0,.1,0,.2l-.4,6.3,3.4.2Z"/>
  <path class="cls-11" d="M77.9,20.9c0,0,.1,0,.1.1,0,0,0,.1,0,.2l-.5,1.8c0,.2-.2.2-.3.2l-5.6-1.7c0,0-.1,0-.2-.1,0,0,0-.1,0-.2l2.4-8.1c0,0,0-.2.1-.2,0,0,.1,0,.2,0l2.1.6c0,0,.1,0,.2.1,0,0,0,.1,0,.2l-1.8,6.1,3.3,1Z"/>
  <path class="cls-11" d="M87.9,28.6c0,.1,0,.2-.1.3,0,0-.2,0-.3,0l-1.8-1.1c0,0-.2-.2-.2-.3,0,0,0-.2,0-.3l.2-.6-2.3-1.4-.5.4c0,0-.2,0-.3,0,0,0-.2,0-.3,0l-1.8-1.1c-.1,0-.2-.2-.2-.3,0,0,0-.2.2-.3l7.5-5.2c0,0,.2-.1.3-.1s.2,0,.3,0l.5.3c0,0,.2.1.2.3,0,0,0,.2,0,.3l-1.3,9ZM84.8,23.7l1.2.7.5-2.1-1.6,1.4Z"/>
  <path class="cls-11" d="M95.4,25.1c.1-.2.3-.3.5-.3.2,0,.4,0,.6,0,.2,0,.4.1.6.3.2.2.3.3.3.6,0,.2,0,.4,0,.7,0,.2-.2.5-.4.6-.2.2-.4.4-.6.6-.2.1-.5.3-.7.4-.3,0-.5.2-.8.3,0,0-.1,0-.2,0,0,0-.1-.1-.1-.2l-.2-.6c0,0,0-.1,0-.2,0,0,.1-.1.2-.2.1,0,.2,0,.3,0,.1,0,.2,0,.3-.1,0,0,.2,0,.2-.1,0,0,0,0,0,0,0,0,0,0,0,0h0s0,0,0,0c-.1-.1-.2-.2-.2-.4,0-.2,0-.3,0-.5,0-.2.2-.3.3-.5Z"/>
  <path class="cls-11" d="M96.1,38.2c-.3-.4-.5-.9-.7-1.3-.2-.5-.3-.9-.4-1.4,0-.4,0-.9,0-1.3,0,0,.1-.1.2-.2,0,0,.2,0,.3,0l1.8.3c0,0,.2,0,.2.2,0,0,0,.2,0,.3,0,.3,0,.7,0,1,0,.3.2.6.3.8.2.2.3.3.4.4.1,0,.2,0,.3,0,0,0,0,0,.1-.1,0,0,0-.1,0-.3,0,0,0-.2,0-.4,0-.2-.1-.4-.2-.7-.2-.5-.3-.9-.4-1.3,0-.4,0-.7,0-1,0-.3.2-.6.4-.9.2-.3.4-.5.7-.7.5-.3,1-.5,1.5-.5.5,0,1,0,1.5.4.5.3.9.7,1.3,1.3.2.3.4.6.5.9s.2.7.3,1c0,.3,0,.6,0,.9,0,.1,0,.2-.2.3,0,0-.2.1-.3,0h-1.6c-.2-.2-.3-.2-.4-.3,0,0-.1-.2-.1-.4,0-.2,0-.4-.1-.6,0-.2-.1-.3-.2-.5-.1-.2-.2-.3-.4-.3-.1,0-.2,0-.3,0-.1,0-.1.3,0,.5,0,.3.2.6.3,1.1.1.3.2.6.3.9,0,.3.1.5.2.8,0,.3,0,.5,0,.8,0,.3-.2.5-.3.7-.2.2-.4.4-.7.7-.4.3-.8.4-1.1.5-.4,0-.8,0-1.2,0-.4,0-.8-.3-1.1-.5-.3-.2-.7-.6-1-1Z"/>
  <path class="cls-11" d="M43.9,98.4c.5.3.9.6,1.3,1,.4.4.6.8.8,1.3.2.5.3.9.2,1.4,0,.5-.2,1-.4,1.4-.3.5-.6.9-.9,1.2-.4.3-.8.5-1.3.6-.5.1-1,.2-1.5,0-.5,0-1-.2-1.5-.5l-.8-.4-.6,1.2c0,0-.1.2-.2.2,0,0-.2,0-.3,0l-1.7-.9c-.1,0-.2-.1-.2-.2,0,0,0-.2,0-.3l3.8-7.3c0,0,.1-.2.2-.2,0,0,.2,0,.3,0l.9.5c.2,0,.3.2.5.3.1,0,.3.1.3.2l1.1.6ZM41.5,102.7c.3.1.5.2.8.2.3,0,.5,0,.7-.1.2-.1.4-.3.5-.5.1-.2.2-.4.1-.7,0-.2-.1-.5-.3-.7-.2-.2-.4-.4-.6-.5l-.6-.3-1.2,2.3.6.3Z"/>
  <path class="cls-11" d="M52.9,102.1l-2.2,8.1c0,.2-.2.2-.3.2l-2.1-.6c-.2,0-.2-.2-.2-.3l2.2-8.1c0-.2.1-.3.3-.2l2.1.6c.2,0,.3.2.2.4Z"/>
  <path class="cls-11" d="M63.1,109.5c.1,0,.2,0,.3.1,0,0,0,.1,0,.3v1.7c0,.1-.1.2-.2.3,0,0-.1,0-.3,0l-7.4-.4c-.1,0-.2,0-.3-.1,0,0,0-.2,0-.3s0-.2,0-.3c0,0,0-.1.1-.2l3.9-5.6h-2.8c-.1-.2-.2-.2-.3-.3,0,0,0-.2,0-.3v-1.6c0-.1.1-.2.2-.3,0,0,.2,0,.3,0l6.7.4c.1,0,.2,0,.3.1,0,0,0,.2,0,.3,0,0,0,.1,0,.2,0,0,0,.1-.1.2l-3.9,5.7,3.5.2Z"/>
  <path class="cls-11" d="M74.9,107.7c.1,0,.2,0,.3,0,0,0,.1.1.2.2l.3,1.6c0,.1,0,.2,0,.3,0,0-.1.1-.2.1l-7.3,1.5c0,0-.2,0-.3,0,0,0-.1-.1-.1-.2,0,0,0-.2,0-.3,0,0,0-.1,0-.2l2.4-6.4-2.8.6c-.1,0-.2,0-.3,0,0,0-.1-.1-.1-.3l-.3-1.6c0,0,0-.2,0-.3,0,0,.1-.1.2-.1l6.6-1.4c.1,0,.2,0,.3,0,0,0,.1.1.2.2,0,0,0,.1,0,.2,0,0,0,.1,0,.2l-2.3,6.5,3.4-.7Z"/>
  <path class="cls-11" d="M87.7,104.2c0,0,.1.2.1.3,0,0,0,.2-.2.2l-1.9,1c0,0-.2,0-.3,0,0,0-.2,0-.2-.1l-.5-.5-2.4,1.2v.7c0,0,0,.2,0,.3,0,0,0,.2-.2.2l-1.9,1c-.1,0-.2,0-.3,0,0,0-.1-.2-.1-.3l-.5-9.1c0-.1,0-.2,0-.3,0,0,.1-.2.2-.2l.6-.3c0,0,.2,0,.3,0,.1,0,.2,0,.3.1l7,5.8ZM82,104.2l1.2-.6-1.5-1.5.3,2.1Z"/>
  <path class="cls-5" d="M152.6,45.3c.3,0,.4,0,.6.2.1.1.2.3.2.6v5.2c0,.5-.3.8-.8.8h-16.7c-.2,0-.4,0-.6-.2-.1-.1-.2-.3-.2-.6v-24c0-.3,0-.5.2-.6.1-.1.3-.2.6-.2h6.2c.2,0,.4,0,.6.2.1.1.2.3.2.6v18.1h9.8Z"/>
  <path class="cls-5" d="M182.8,50.9c.2.3.2.6,0,.9-.1.2-.4.3-.8.3h-6.1c-.3,0-.6,0-.8-.3-.2-.2-.4-.4-.5-.7l-.6-1.8h-7.8l-.6,1.7c0,.3-.2.5-.5.7-.2.2-.5.3-.9.3h-6.1c-.4,0-.6-.1-.8-.3-.1-.2-.1-.5,0-.9l10.5-23.9c.2-.3.4-.6.6-.8.3-.2.5-.3.8-.3h1.8c.3,0,.6,0,.8.3.3.2.4.4.5.7l10.4,23.9ZM168.1,43.6h4l-2-5.8-2,5.8Z"/>
  <path class="cls-5" d="M205.1,38.1c.8.3,1.5.7,2.1,1.3.6.6,1.1,1.2,1.5,2,.4.8.5,1.6.5,2.4s-.3,2.2-.8,3.3c-.5,1-1.2,1.9-2.1,2.6-.9.8-1.9,1.3-3.1,1.8-1.2.4-2.4.6-3.8.6h-10.6c-.2,0-.4,0-.6-.2-.1-.1-.2-.3-.2-.6v-24c0-.3,0-.5.2-.6.1-.1.3-.2.6-.2h9.9c1.3,0,2.4.2,3.5.6,1.1.4,2.1.9,2.9,1.5.8.7,1.5,1.4,1.9,2.3.5.9.7,1.8.7,2.8s-.1,1.3-.3,1.8c-.2.6-.5,1.1-.9,1.5-.4.5-.9.8-1.4,1.1ZM200.4,34.8c0-.4-.2-.7-.5-1-.3-.3-.7-.4-1.2-.4h-2.9v2.9h2.9c.5,0,.9-.1,1.2-.4.3-.3.5-.6.5-1.1ZM199.3,45.1c.4,0,.8,0,1.1-.3s.6-.4.8-.7c.2-.3.3-.6.3-.9s0-.8-.3-1.1c-.2-.3-.4-.6-.8-.8-.3-.2-.7-.3-1.1-.3h-3.5v4h3.5Z"/>
  <path class="cls-5" d="M234.2,44.7c.5,0,.8.1,1.1.4.3.3.4.6.4,1v4.8c0,.3,0,.6-.3.8-.2.2-.5.3-.8.3h-18.5c-.3,0-.6,0-.8-.3-.2-.2-.3-.4-.3-.8v-23.4c0-.3,0-.6.3-.8.2-.2.5-.3.8-.3h18.2c.3,0,.6.1.8.3.2.2.3.5.3.8v5.1c0,.3,0,.6-.3.8-.2.2-.4.3-.8.3h-11.5v3h8.3c.4,0,.7.1.9.3.2.2.3.5.3.9v3.4c0,.3-.1.6-.3.8-.2.2-.5.3-.9.3h-8.3v2.2h11.4Z"/>
  <path class="cls-5" d="M259.5,45.3c.3,0,.4,0,.6.2.1.1.2.3.2.6v5.2c0,.5-.3.8-.8.8h-16.7c-.2,0-.4,0-.6-.2-.1-.1-.2-.3-.2-.6v-24c0-.3,0-.5.2-.6.1-.1.3-.2.6-.2h6.2c.2,0,.4,0,.6.2.1.1.2.3.2.6v18.1h9.8Z"/>
  <path class="cls-5" d="M283.3,45.3c.3,0,.4,0,.6.2.1.1.2.3.2.6v5.2c0,.5-.3.8-.8.8h-16.7c-.2,0-.4,0-.6-.2-.1-.1-.2-.3-.2-.6v-24c0-.3,0-.5.2-.6.1-.1.3-.2.6-.2h6.2c.2,0,.4,0,.6.2.1.1.2.3.2.6v18.1h9.8Z"/>
  <path class="cls-5" d="M313.5,50.9c.2.3.2.6,0,.9-.1.2-.4.3-.8.3h-6.1c-.3,0-.6,0-.8-.3-.2-.2-.4-.4-.5-.7l-.6-1.8h-7.8l-.6,1.7c0,.3-.2.5-.5.7-.2.2-.5.3-.9.3h-6.1c-.4,0-.6-.1-.8-.3-.1-.2-.1-.5,0-.9l10.5-23.9c.2-.3.4-.6.6-.8.3-.2.5-.3.8-.3h1.8c.3,0,.6,0,.8.3.3.2.4.4.5.7l10.4,23.9ZM298.8,43.6h4l-2-5.8-2,5.8Z"/>
  <path class="cls-5" d="M317.9,29c0-.6.1-1.2.4-1.7.3-.5.7-.9,1.2-1.2.5-.3,1.1-.4,1.7-.4s1.2.2,1.8.5c.5.3,1,.8,1.3,1.4.3.6.5,1.3.5,2s0,1.8-.3,2.5c-.2.7-.4,1.4-.7,2.1-.3.7-.7,1.4-1.2,2.1-.1.2-.3.3-.5.3-.2,0-.4,0-.6,0l-1.6-.9c-.2,0-.3-.3-.3-.5,0-.2,0-.5.2-.7.2-.3.3-.5.5-.8.2-.3.3-.6.5-.8.1-.3.2-.4.2-.6s0-.1,0-.2c0,0,0,0,0-.1,0,0,0,0-.1,0h-.3c-.5,0-.9-.1-1.3-.4-.4-.3-.7-.7-.9-1.1-.2-.5-.4-1-.4-1.6Z"/>
  <path class="cls-5" d="M340.9,52.5c-1.5,0-2.9-.2-4.3-.5s-2.6-.8-3.8-1.5c-1.1-.6-2-1.4-2.7-2.3-.2-.2-.2-.5-.2-.7,0-.3.2-.5.4-.8l3.7-3.7c.2-.2.5-.3.8-.3.3,0,.6.1.9.4.7.6,1.5,1,2.3,1.4.8.4,1.7.6,2.5.6s1.2,0,1.6-.3c.3-.2.5-.4.5-.7s0-.4-.2-.5c0-.2-.3-.3-.5-.4-.3-.1-.6-.3-1.1-.5-.5-.2-1.2-.4-2-.6-1.4-.4-2.6-.8-3.6-1.3-1-.5-1.8-1-2.4-1.6-.6-.6-1.1-1.3-1.4-2.2-.3-.8-.4-1.8-.4-2.9,0-1.7.4-3.1,1.2-4.3.8-1.2,1.9-2.2,3.4-2.9,1.5-.7,3.2-1,5.2-1s2,.1,2.9.4c1,.3,1.9.6,2.7,1,.8.4,1.5,1,2.1,1.5.3.3.4.6.4.9,0,.3-.1.6-.4.9l-3,3.4c-.4.4-.7.6-1,.6-.3,0-.7-.2-1.1-.4-.5-.3-1.1-.6-1.6-.8-.5-.2-1-.3-1.4-.3-.6,0-1,0-1.3.3-.3.2-.5.4-.5.7s.4.8,1.1,1.1c.8.3,1.8.6,3.1,1,.8.2,1.7.5,2.4.8.8.3,1.5.6,2.1,1,.7.4,1.2.8,1.7,1.4.5.5.9,1.2,1.1,1.9.3.7.4,1.6.4,2.6s-.3,2.5-.8,3.5c-.5,1-1.2,1.9-2.1,2.7-.9.7-1.9,1.3-3.1,1.7-1.2.4-2.4.6-3.8.6Z"/>
  <path class="cls-5" d="M180.8,74.5c1.7,0,3.2.3,4.6.8,1.4.5,2.6,1.2,3.7,2.2,1,.9,1.8,2,2.4,3.3.6,1.3.9,2.7.9,4.2s-.3,2.9-.9,4.1c-.6,1.3-1.4,2.3-2.4,3.3-1,.9-2.3,1.6-3.7,2.1-1.4.5-2.9.8-4.6.8h-2.4v3.8c0,.3-.1.6-.3.8-.2.2-.5.3-.8.3h-5.5c-.3,0-.6,0-.8-.3-.2-.2-.3-.5-.3-.8v-23.4c0-.3,0-.6.3-.8.2-.2.5-.3.8-.3h9ZM180.2,88.6c.8,0,1.6-.2,2.3-.5.7-.3,1.2-.8,1.6-1.3.4-.6.6-1.2.6-1.9s-.2-1.3-.6-1.9c-.4-.5-.9-1-1.6-1.3-.7-.3-1.4-.5-2.3-.5h-1.8v7.3h1.8Z"/>
  <path class="cls-5" d="M211.9,75.3v24c0,.5-.3.8-.8.8h-6.2c-.5,0-.8-.3-.8-.8v-24c0-.5.3-.8.8-.8h6.2c.5,0,.8.3.8.8Z"/>
  <path class="cls-5" d="M245.5,93.4c.3,0,.5,0,.7.3.2.2.3.4.3.7v4.8c0,.3,0,.6-.3.7-.2.2-.4.3-.7.3h-21.2c-.3,0-.6-.1-.8-.3-.2-.2-.3-.4-.3-.7s0-.5.1-.7c0-.2.2-.4.3-.5l10.3-16.6h-8.1c-.3,0-.6,0-.7-.3-.2-.2-.3-.4-.3-.8v-4.7c0-.3,0-.5.3-.7.2-.2.4-.3.7-.3h19.2c.3,0,.6,0,.8.3.2.2.3.4.3.7s0,.4-.1.5c0,.2-.1.3-.2.5l-10.2,16.9h10.1Z"/>
  <path class="cls-5" d="M278.9,93.4c.3,0,.5,0,.7.3.2.2.3.4.3.7v4.8c0,.3,0,.6-.3.7-.2.2-.4.3-.7.3h-21.2c-.3,0-.6-.1-.8-.3-.2-.2-.3-.4-.3-.7s0-.5.1-.7c0-.2.2-.4.3-.5l10.3-16.6h-8.1c-.3,0-.6,0-.7-.3-.2-.2-.3-.4-.3-.8v-4.7c0-.3,0-.5.3-.7.2-.2.4-.3.7-.3h19.2c.3,0,.6,0,.8.3.2.2.3.4.3.7s0,.4-.1.5c0,.2-.1.3-.2.5l-10.2,16.9h10.1Z"/>
  <path class="cls-5" d="M315.6,99c.2.3.2.6,0,.9-.1.2-.4.3-.8.3h-6.1c-.3,0-.6,0-.8-.3-.2-.2-.4-.4-.5-.7l-.6-1.8h-7.8l-.6,1.7c0,.3-.2.5-.5.7-.2.2-.5.3-.9.3h-6.1c-.4,0-.6-.1-.8-.3-.1-.2-.1-.5,0-.9l10.5-23.9c.2-.3.4-.6.6-.8.3-.2.5-.3.8-.3h1.8c.3,0,.6,0,.8.3.3.2.4.4.5.7l10.4,23.9ZM300.9,91.7h4l-2-5.8-2,5.8Z"/>
</svg>