<?xml version="1.0" encoding="UTF-8"?>
<svg id="a" xmlns="http://www.w3.org/2000/svg" viewBox="0 0 20.69 22.72">
    <path
        d="M14.48,1.96l-2.95,8.44c-.42,1.21-1.94,1.21-2.36,0L6.21,1.96c-.33-.94.28-1.96,1.18-1.96h5.9c.9,0,1.51,1.02,1.18,1.96ZM.36,9.82L0,14.17c-.05.66.66,1.17,1.37.99l6.4-1.67c.92-.24,1.01-1.35.14-1.74l-6.04-2.68c-.67-.3-1.46.09-1.52.75ZM6.28,22.11l3.16-5.81c.45-.83-.3-1.66-1.17-1.29l-6.09,2.57c-.68.29-.93,1.13-.49,1.62l2.93,3.24c.44.49,1.31.32,1.66-.33ZM18.81,9.07l-6.04,2.68c-.87.38-.77,1.5.14,1.74l6.4,1.67c.71.19,1.43-.33,1.37-.99l-.36-4.35c-.05-.66-.84-1.05-1.52-.75ZM16.07,22.44l2.93-3.24c.44-.49.19-1.33-.49-1.62l-6.09-2.57c-.87-.37-1.62.46-1.17,1.29l3.16,5.81c.35.65,1.22.82,1.66.33Z"
        style="fill:currentColor; stroke-width:0px;" />
</svg>