<?xml version="1.0" encoding="UTF-8"?><svg id="a" xmlns="http://www.w3.org/2000/svg" xmlns:xlink="http://www.w3.org/1999/xlink" viewBox="0 0 1438.4 488.88"><defs><clipPath id="b"><rect x="87.45" y="87.35" width="313.2" height="313.2" style="fill:none; stroke-width:0px;"/></clipPath><clipPath id="c"><rect x="42.05" y="227.35" width="33.6" height="33.6" style="fill:none; stroke-width:0px;"/></clipPath><clipPath id="d"><circle cx="58.85" cy="244.05" r="16.8" style="fill:none; stroke-width:0px;"/></clipPath><clipPath id="e"><rect x="413.15" y="227.35" width="33.6" height="33.6" style="fill:none; stroke-width:0px;"/></clipPath><clipPath id="f"><circle cx="429.85" cy="244.05" r="16.8" style="fill:none; stroke-width:0px;"/></clipPath></defs><path d="M244.44,0C379.43,0,488.88,109.45,488.88,244.44s-109.45,244.44-244.44,244.44S0,379.43,0,244.44,109.29,0,244.44,0" style="fill:#ec2236; stroke-width:0px;"/><circle cx="244.15" cy="244.05" r="223.7" style="fill:#fff; stroke-width:0px;"/><g style="clip-path:url(#b);"><path d="M400.65,243.95c0,86.5-70.1,156.6-156.6,156.6s-156.6-70.1-156.6-156.6S157.55,87.35,244.05,87.35s156.6,70.2,156.6,156.6" style="fill:#b8b8ca; stroke-width:0px;"/></g><path d="M244.05,92.75c83.5,0,151.2,67.7,151.2,151.2s-67.7,151.2-151.2,151.2-151.2-67.7-151.2-151.2S160.45,92.75,244.05,92.75" style="fill:#008037; stroke-width:0px;"/><g style="clip-path:url(#c);"><g style="clip-path:url(#d);"><path d="M42.05,227.35h33.6v33.6h-33.6v-33.6h0Z" style="fill:#008037; stroke-width:0px;"/></g></g><g style="clip-path:url(#e);"><g style="clip-path:url(#f);"><path d="M413.15,227.35h33.6v33.6h-33.6v-33.6h0Z" style="fill:#e81919; stroke-width:0px;"/></g></g><path d="M104.45,132.15s.05-.07.08-.1h-.08v.1Z" style="fill:#ec2236; stroke-width:0px;"/><path d="M112.05,136.25l-6.1-4.3c-.3-.2-.5-.2-.8-.2-.26,0-.44.08-.62.3h.22l-8.1,11.4-21-14.9c-.4-.3-.6-.3-.9-.3-.3.1-.5.2-.7.5l-5.1,7.2c-.3.3-.3.5-.3.8.1.3.2.5.5.7l27.9,19.9c.3.3.5.3.8.3.3-.1.5-.2.7-.5l13.8-19.4c.4-.5.3-1.1-.3-1.5Z" style="fill:#ec2236; stroke-width:0px;"/><path d="M147.65,104.35c-.1-.4-.4-.6-.8-.9v.2l-33.4-16.5c-.5-.3-.8-.3-1.3-.3s-.8.1-1.2.4l-2,1.7c-.2.2-.6.6-.6,1-.2.3-.2.8,0,1.3l10.6,35.6c.2.5.4.9.8.9s.8,0,1.2-.4l6.7-5.6c.4-.3.7-.7.7-1.1.2-.5.2-.8,0-1.2l-1-2.4,8.5-7.2,2.2,1.3c.4.3.7.3,1.2.3s.8-.1,1.2-.4l6.7-5.6c.5-.4.5-.7.5-1.1ZM124.15,109.25v-.2l-3.2-8.1,7.5,4.6-4.3,3.7Z" style="fill:#ec2236; stroke-width:0px;"/><path d="M179.25,72.05c-1-.8-1.9-1.3-3.1-1.7-1.2-.4-2.3-.4-3.5-.4v.1h-.3c.6-.6.9-1.4,1.2-2.2.3-.9.3-1.7.3-2.6s-.2-1.8-.6-2.6c-.6-1.3-1.4-2.4-2.6-3.2-1-.8-2.4-1.4-3.8-1.8-1.6-.3-3.1-.5-4.7-.3-1.6.1-3.2.7-4.8,1.4l-12.8,6c-.2.2-.6.3-.6.6-.2.3-.2.5,0,.9l14.5,31c.2.3.3.6.6.6.3.2.6.2.9,0l13.7-6.4c1.8-.8,3.3-1.8,4.6-3.1,1.3-1.2,2.3-2.5,3-4.1.7-1.6,1.1-3,1.1-4.7s-.3-3.2-1-4.7c-.5-1.1-1.2-2-2.1-2.8ZM159.45,73.25l-1.8-3.8,3.8-1.8c.6-.2,1.3-.4,1.8-.2.7.2,1,.5,1.3,1,.3.5.3,1.1,0,1.7-.3.6-.7,1-1.3,1.3l-3.8,1.8ZM170.75,81.55c-.3.5-.8.7-1.3,1h-.1l-4.5,2.1-2.4-5.2,4.5-2.1c.5-.3,1.1-.3,1.6-.3.5.1,1.1.2,1.5.5.5.4.8.8,1.1,1.3.2.4.2,1,.2,1.4-.1.4-.2.9-.6,1.3Z" style="fill:#ec2236; stroke-width:0px;"/><path d="M199.85,80.95c.4.2.9.2,1.3.2l25.9-4.7c.5-.1.7-.2,1-.6.2-.4.2-.8.2-1.2l-1.3-6.8c-.1-.6-.4-1-.8-1.3s-1-.3-1.6-.3v.1h-.2l-16,3-.5-3.1,11.6-2.1c.7-.1,1-.2,1.3-.6.3-.4.3-.8.3-1.3l-.9-4.8c-.1-.6-.3-.9-.7-1.2-.3-.2-.8-.2-1.3-.2l-11.6,2.1-.8-4.2,16.2-3c.6-.1.9-.3,1.1-.6.2-.4.2-.8.2-1.3l-1.3-7.2c-.1-.6-.2-.8-.6-1.1-.4-.2-.8-.2-1.3-.2l-25.5,4.7c-.6.1-.8.2-1.1.6-.2.4-.2.8-.2,1.3l6,32.8c.1.5.2.7.6,1Z" style="fill:#ec2236; stroke-width:0px;"/><path d="M244.55,75.75l23.7,1.5c.8.1,1.2-.3,1.2-1l.4-7.4c0-.4-.1-.6-.3-.8-.2-.2-.4-.4-.8-.4h.2l-13.9-.9,1.6-25.7c0-.5-.1-.7-.3-.9-.2-.2-.4-.4-.8-.4l-8.8-.5c-.4,0-.6.1-.8.3s-.4.4-.4.8l-2.1,34.2c0,.4.1.6.3.8.2.4.4.4.8.4Z" style="fill:#ec2236; stroke-width:0px;"/><path d="M309.35,77.95s0,.2,0,.2l-13.3-4,7.5-24.6c.2-.4.2-.6,0-.9-.2-.2-.3-.5-.7-.5l-8.4-2.6c-.4-.2-.6,0-.9,0-.2.1-.5.3-.5.7l-9.9,32.7c-.2.3-.2.5,0,.8.2.2.3.5.7.5l22.8,6.9c.6.2,1.1,0,1.3-.7l2.1-7.1c.2-.4,0-.6,0-.9-.2-.2-.3-.5-.7-.5Z" style="fill:#ec2236; stroke-width:0px;"/><path d="M353.85,69.65l-2.2-1.3c-.4-.3-.7-.3-1.2-.3s-.9.1-1.3.4l-30.4,21.3c-.4.4-.6.7-.6,1.1s.3.7.7,1l7.4,4.6c.5.3.8.3,1.3.3s.8-.1,1.1-.4l2.1-1.7,9.5,5.8-.6,2.6c-.2.5-.2.9,0,1.3.2.5.4.7.8,1l7.5,4.6c.6.4.9.4,1.3.2.3-.2.6-.5.6-1v-.1h-.2v-.3l5-36.8c.2-.5.2-.9,0-1.3-.2-.5-.4-.7-.8-1ZM342.15,92.45l-4.8-3h0l6.7-5.6-1.9,8.6Z" style="fill:#ec2236; stroke-width:0px;"/><path d="M384.35,104.95c.9-.6,1.8-1.4,2.7-2.4.8-.8,1.2-1.7,1.5-2.6.2-1,.2-1.9,0-2.8-.1-.8-.6-1.6-1.3-2.2-.7-.7-1.4-1-2.2-1.2-.8-.3-1.6-.2-2.4,0-.8.2-1.5.7-2.1,1.3l-.2.2c-.6.7-.9,1.3-1.2,2,0,.8-.2,1.4,0,2.1s.6,1.3,1,1.7c.1.3.3.3.3.3h.2v.2c0,.1-.2.3-.2.3-.2.1-.4.3-.8.4-.4.1-.9.2-1.3.4-.4.1-.9.4-1.3.4-.4.1-.7.2-.9.5s-.2.5-.2.8l.8,2.5c.1.3.2.5.5.7h.9c1.2-.4,2.3-.7,3.3-1.1,1-.3,2-.9,2.9-1.5Z" style="fill:#ec2236; stroke-width:0px;"/><path d="M417.55,133.95c-.2-1.3-.6-2.7-1.1-4-.5-1.4-1.2-2.6-2-3.8-1.7-2.2-3.5-3.9-5.5-5.1-2.1-1.1-4.1-1.5-6.2-1.5-2.1.1-4,.8-6,2.2-1.3.9-2.3,1.9-3,2.9s-1.1,2.1-1.3,3.4c-.3,1.1-.3,2.6,0,4.1.2,1.5.7,3.2,1.4,5.2.4,1.2.7,2.1.9,2.8.2.7.4,1.3.4,1.7v1c0,.2-.1.4-.4.6-.4.3-.9.3-1.3,0-.4-.3-1-.8-1.6-1.6-.6-1-1-2.1-1.3-3.4s-.3-2.6-.3-3.9c0-.5-.1-.9-.4-1.3-.3-.3-.6-.6-1-.6l-7.4-1.2c-.5-.1-.9,0-1.3.2-.3.2-.7.4-.7.8-.4,1.5-.5,3.3-.4,5,.1,1.7.6,3.6,1.4,5.5.8,1.9,1.7,3.7,3,5.4h0l.4.2.3.2c1.1,1.6,2.4,2.8,3.8,3.9,1.5.9,3,1.6,4.6,2.1s3.2.5,4.8.2c1.7-.3,3.2-1,4.7-2.1,1.3-.8,2.2-1.7,2.8-2.7.7-1,1.1-2,1.3-3,0-1,.1-2,0-3.1-.1-1.1-.2-2.1-.6-3.3-.4-1.2-.8-2.3-1.2-3.5-.6-1.8-1-3.2-1.3-4.4-.2-1.1,0-1.8.4-2.2.4-.2.8-.2,1.2,0,.4.2.9.7,1.3,1.3.4.5.6,1.1.8,1.9s.4,1.8.4,2.5.1,1.2.4,1.6c.2.4.7.7,1.5.7l6.4.6c.6,0,1.1-.1,1.4-.4.3-.3.7-.7.7-1.2.2-1.1.2-2.4,0-3.7Z" style="fill:#ec2236; stroke-width:0px;"/><path d="M176.25,397.45c-1.5-1.6-3.3-2.9-5.4-4h0l-4.4-2.2c-.2-.2-.7-.4-1.3-.7-.7-.3-1.3-.6-2-1l-3.8-2c-.4,0-.8-.1-1.2,0-.4.1-.7.4-.9.8l-15.3,29.7c-.2.5-.2.8-.2,1.2.1.4.4.6.8.9l7,3.6c.5.2.9.2,1.3.2.4-.2.7-.4.9-.8l2.5-4.8,3,1.5c2.2,1.1,4.3,1.8,6.4,2.1,2.2.2,4.2.1,6.1-.4,1.9-.5,3.7-1.3,5.2-2.6,1.6-1.2,2.8-2.8,3.8-4.7,1-2,1.6-3.9,1.6-5.9.1-1.9-.2-3.8-.9-5.7s-1.7-3.6-3.2-5.2ZM169.15,409.25c-.5.9-1.2,1.6-2,2-.9.4-1.8.6-2.9.6-1.1-.1-2.1-.4-3.2-.9v-.1s-2.3-1.2-2.3-1.2l4.7-9.2,2.3,1.2c1.1.6,2,1.3,2.6,2.1.7.9,1,1.7,1.2,2.7s.1,1.9-.4,2.8Z" style="fill:#ec2236; stroke-width:0px;"/><path d="M206.65,407.05l-8.5-2.3c-.7-.2-1.1.1-1.3.8l-9,33c-.2.7.1,1.1.8,1.3l8.5,2.3c.7.2,1.1-.1,1.3-.8l9-33c.2-.7-.1-1.1-.8-1.3Z" style="fill:#ec2236; stroke-width:0px;"/><path d="M249.65,412.15l-27.3-1.5c-.5,0-.8.1-1.1.4-.2.3-.4.6-.4,1l-.4,6.7c0,.5.1.8.4,1.1.2.2.6.4,1,.4l11.5.6-16,22.8c-.1.3-.2.5-.4.8-.3.3-.3.6-.3,1s.1.7.4,1c.4.2.8.4,1.2.4l30.2,1.7c.5,0,.8-.1,1.1-.4.2-.3.4-.6.4-1l.4-6.8c0-.5-.1-.9-.4-1.1-.3-.2-.7-.4-1.1-.4h-.1s.3.2.3.2l-14.3-.8,15.8-23.2c.1-.2.4-.3.4-.6q.2-.3.2-.8c0-.5-.1-.8-.4-1.1-.3-.2-.7-.4-1.1-.4Z" style="fill:#ec2236; stroke-width:0px;"/><path d="M298.15,431.75c-.4-.2-.8-.2-1.2-.2h0v-.2l-14,2.9,9.4-26.5c.2-.2.2-.4.2-.7v-.8c-.1-.4-.2-.7-.5-.9-.4-.2-.8-.2-1.2-.2l-26.8,5.5c-.4.1-.7.3-.9.6-.2.3-.2.7-.2,1.1l1.3,6.6c.1.5.2.8.5,1s.7.2,1.1.2l11.3-2.3-9.6,26.1c-.2.2-.2.4-.2.8v1.1c.1.5.2.7.6.9.4.2.9.2,1.3.2l29.6-6.1c.5-.1.8-.2,1-.5s.2-.7.2-1.1l-1.3-6.6c-.1-.4-.3-.7-.6-.9Z" style="fill:#ec2236; stroke-width:0px;"/><path d="M348.95,416.95v-.2l-28.6-23.7c-.4-.2-.8-.5-1.2-.5-.5-.1-.9,0-1.3.2l-2.3,1.2c-.3.2-.6.5-.8.9-.3.4-.3.8-.3,1.3l2.1,37.1c0,.6.1.9.5,1.1.4.3.9.3,1.3,0l7.8-3.9c.5-.2.7-.5.9-.9s.2-.8.2-1.2l-.4-2.6,9.9-5,1.9,1.9c.3.2.7.5,1.1.5.5.1.9,0,1.3-.2l7.8-3.9c.5-.3.8-.6.8-1s-.1-.7-.5-1.1h-.2ZM325.85,417.25v-.1l-1.3-8.7,6.3,6.2-5,2.6Z" style="fill:#ec2236; stroke-width:0px;"/><path d="M244.15,20.35C120.55,20.35,20.45,120.45,20.45,244.05s100.1,223.7,223.7,223.7,223.7-100.1,223.7-223.7S367.75,20.35,244.15,20.35Z" style="fill:none; stroke:#fff; stroke-width:18px;"/><path d="M809.02,272.64c-7.45-3.32-16.28-4.93-26.59-4.93h-51.24v112.21h31.86v-29.34h19.37c10.2,0,19.14-1.72,26.59-5.04,7.45-3.44,13.18-8.14,17.19-14.33,3.9-6.19,5.96-13.87,5.96-22.24s-1.95-15.82-5.96-22.01c-4.01-6.19-9.74-11-17.19-14.33ZM795.38,321.23c-3.32,2.87-8.25,4.24-14.9,4.24h-17.42v-32.78h17.42c6.65,0,11.58,1.49,14.9,4.47,3.32,2.87,4.93,6.65,4.93,11.92s-1.6,9.28-4.93,12.15Z" style="fill:#ec2236; stroke-width:0px;"/><rect x="849.48" y="267.71" width="31.75" height="112.33" style="fill:#ec2236; stroke-width:0px;"/><polygon points="996.31 287.65 996.31 267.59 899.57 267.59 899.57 292.81 954.69 292.81 898.31 359.98 898.31 380.03 998.6 380.03 998.6 354.82 939.73 354.82 996.31 287.65" style="fill:#ec2236; stroke-width:0px;"/><polygon points="1105.2 287.65 1105.2 267.59 1008.46 267.59 1008.46 292.81 1063.58 292.81 1007.2 359.98 1007.2 380.03 1107.49 380.03 1107.49 354.82 1048.62 354.82 1105.2 287.65" style="fill:#ec2236; stroke-width:0px;"/><path d="M1157.81,267.71l-49.63,112.33h32.44l8.84-22.01h47.54l8.84,22.01h33.01l-49.74-112.33h-31.29ZM1158.8,334.76l14.42-35.91,14.42,35.91h-28.85Z" style="fill:#ec2236; stroke-width:0px;"/><path d="M691.53,77.09h-31.29l-48.71,110.25v-23.14h-53.41v-87.11h-31.75v112.33h116.68l8.84-22.01h47.54l8.84,22.01h33.01l-49.74-112.33ZM661.24,144.15l14.42-35.91,14.42,35.91h-28.85Z" style="fill:#ec2236; stroke-width:0px;"/><path d="M852.23,142.08c-3.21-4.58-7.79-8.14-13.75-10.55-.61-.23-1.23-.45-1.85-.66,4.5-2.39,8-5.45,10.56-9.2,2.98-4.36,4.47-6.53,4.47-15.24s-3.67-15.7-10.89-21.2c-7.34-5.39-18.34-8.14-33.24-8.14h-57.08v112.21h60.29c15.24,0,26.71-2.64,34.62-8.14,7.91-5.39,11.81-12.95,11.81-22.58,0-6.42-1.72-11.92-4.93-16.51ZM781.74,100.02h21.78c5.39,0,9.4.92,12.04,2.64s4.01,4.7,4.01,8.25-1.38,6.19-4.01,8.02-6.65,2.75-12.04,2.75h-21.78v-21.66ZM820.83,163.63c-2.75,1.95-6.88,2.87-12.49,2.87h-26.59v-22.81h26.59c5.5,0,9.74.92,12.49,2.75,2.75,1.83,4.13,4.7,4.13,8.6s-1.38,6.76-4.13,8.6Z" style="fill:#ec2236; stroke-width:0px;"/><polygon points="963.76 164.66 905.07 164.66 905.07 144.15 955.05 144.15 955.05 120.54 905.07 120.54 905.07 101.85 961.69 101.85 961.69 77.09 873.78 77.09 873.78 189.42 963.76 189.42 963.76 164.66" style="fill:#ec2236; stroke-width:0px;"/><polygon points="1066.8 189.42 1066.8 164.21 1013.39 164.21 1013.39 77.09 981.64 77.09 981.64 189.42 981.64 189.42 1066.8 189.42" style="fill:#ec2236; stroke-width:0px;"/><path d="M1213.4,77.09l-48.71,110.25v-23.14h-53.41v-87.11h-31.75v112.33h116.68l8.84-22.01h47.54l8.84,22.01h33.01l-49.74-112.33h-31.29ZM1214.39,144.15l14.42-35.91,14.42,35.91h-28.85Z" style="fill:#ec2236; stroke-width:0px;"/><polygon points="1298.56 128.79 1298.59 128.67 1298.45 128.67 1298.56 128.79" style="fill:#ec2236; stroke-width:0px;"/><path d="M1314.95,68.84c-5.39,0-9.74,1.6-13.18,4.81s-5.16,7.68-5.16,13.18,1.72,9.74,5.16,12.84c1.31,1.18,2.77,2.14,4.36,2.89l-7.53,26.11h18.99l10.32-23.38c1.6-3.55,2.75-6.3,3.44-8.48s1.15-4.01,1.38-5.5c.34-1.49.34,1.03.34-4.47s-1.72-9.86-5.16-13.07c-3.32-3.32-7.57-4.93-12.95-4.93Z" style="fill:#ec2236; stroke-width:0px;"/><path d="M1434.84,140.71c-2.29-3.9-5.39-7.11-9.17-9.51-3.9-2.41-8.02-4.24-12.49-5.73-4.47-1.38-8.94-2.64-13.53-3.55-4.47-1.03-8.6-1.95-12.38-2.87-3.78-.92-6.76-2.06-9.17-3.55-2.41-1.38-3.55-3.44-3.55-5.96,0-1.72.57-3.32,1.72-4.81s3.09-2.75,5.73-3.67c2.64-1.03,5.62-1.49,10.54-1.49s9.97.69,15.24,2.06,10.55,3.55,15.93,6.53l9.63-23.38c-5.5-3.32-11.81-5.85-18.91-7.45-7.11-1.72-10.77-2.52-21.78-2.52s-20.29,1.6-27.62,4.93c-7.34,3.32-12.84,7.68-16.51,13.18-3.67,5.39-5.5,12.15-5.5,18.11s1.15,10.89,3.44,14.9,5.27,7.22,9.05,9.63c3.67,2.52,7.91,4.47,12.49,5.96,4.58,1.6,9.05,2.75,13.53,3.67s8.6,1.83,12.38,2.87c3.78,1.03,6.76,2.18,9.17,3.67,2.41,1.49,3.55,4.01,3.55,5.85s-.57,3.55-1.83,4.93c-1.15,1.38-3.09,2.41-5.73,3.21-2.64.8-4.24,1.15-10.66,1.15s-13.07-1.03-19.6-3.09-12.38-4.7-17.42-7.91l-10.43,23.61c5.27,3.44,12.15,6.42,20.63,8.71s17.42,3.44,26.71,3.44v.11s.23,0,.23,0c11.12,0,20.4-1.6,27.74-4.93,7.45-3.32,12.95-7.79,16.62-13.3,3.67-5.62,5.5-12.26,5.5-18.11s-1.15-10.77-3.55-14.67Z" style="fill:#ec2236; stroke-width:0px;"/><path d="M244.95,103.95c-76.9,0-139.4,62.4-139.4,139.4s62.5,139.4,139.4,139.4,139.4-62.5,139.4-139.4-62.5-139.4-139.4-139.4Z" style="fill:#fff; stroke-width:0px;"/><path d="M287.85,368.65V118.05c50.3,19.3,86,68.2,86,125.4s-35.7,105.9-86,125.4" style="fill:#ec2236; stroke-width:0px;"/><path d="M198.35,118.85v250.5c-50.2-19.4-85.7-68.2-85.7-125.2s35.6-105.8,85.7-125.2" style="fill:#349c3d; stroke-width:0px;"/></svg>