<?xml version="1.0" encoding="UTF-8"?>
<svg id="Layer_1" data-name="Layer 1" xmlns="http://www.w3.org/2000/svg" xmlns:xlink="http://www.w3.org/1999/xlink" version="1.1" viewBox="0 0 1500 500">
  <defs>
    <style>
      .cls-1 {
        fill: #ce222a;
      }

      .cls-1, .cls-2, .cls-3, .cls-4, .cls-5, .cls-6, .cls-7, .cls-8, .cls-9, .cls-10, .cls-11, .cls-12 {
        stroke-width: 0px;
      }

      .cls-13 {
        stroke: #fff;
        stroke-width: 18px;
      }

      .cls-13, .cls-2 {
        fill: none;
      }

      .cls-14 {
        clip-path: url(#clippath);
      }

      .cls-3 {
        fill: #ec2236;
      }

      .cls-4, .cls-8 {
        fill: #b8b8ca;
      }

      .cls-5 {
        fill: #e81919;
      }

      .cls-15 {
        clip-path: url(#clippath-1);
      }

      .cls-16 {
        clip-path: url(#clippath-4);
      }

      .cls-17 {
        clip-path: url(#clippath-3);
      }

      .cls-18 {
        clip-path: url(#clippath-2);
      }

      .cls-6 {
        fill: #349c3d;
      }

      .cls-7 {
        fill: #008037;
      }

      .cls-8, .cls-9, .cls-10 {
        fill-rule: evenodd;
      }

      .cls-9, .cls-12 {
        fill: #1c2247;
      }

      .cls-10, .cls-11 {
        fill: #fff;
      }

      .cls-19 {
        display: none;
      }
    </style>
    <clipPath id="clippath">
      <rect class="cls-2" x="115.5" y="93.3" width="313.2" height="313.2"/>
    </clipPath>
    <clipPath id="clippath-1">
      <rect class="cls-2" x="70.1" y="233.3" width="33.6" height="33.6"/>
    </clipPath>
    <clipPath id="clippath-2">
      <circle class="cls-2" cx="86.9" cy="250" r="16.8"/>
    </clipPath>
    <clipPath id="clippath-3">
      <rect class="cls-2" x="441.2" y="233.3" width="33.6" height="33.6"/>
    </clipPath>
    <clipPath id="clippath-4">
      <circle class="cls-2" cx="457.9" cy="250" r="16.8"/>
    </clipPath>
  </defs>
  <g>
    <circle class="cls-11" cx="272.2" cy="250" r="223.7"/>
    <g class="cls-14">
      <path class="cls-4" d="M428.7,249.9c0,86.5-70.1,156.6-156.6,156.6s-156.6-70.1-156.6-156.6,70.1-156.6,156.6-156.6,156.6,70.2,156.6,156.6"/>
    </g>
    <path class="cls-7" d="M272.1,98.7c83.5,0,151.2,67.7,151.2,151.2s-67.7,151.2-151.2,151.2-151.2-67.7-151.2-151.2,67.6-151.2,151.2-151.2"/>
    <g class="cls-19">
      <path class="cls-11" d="M132.6,249.9c0-77,62.5-139.4,139.4-139.4s139.4,62.5,139.4,139.4-62.5,139.4-139.4,139.4-139.4-62.5-139.4-139.4"/>
      <path class="cls-11" d="M272.1,115.7c74.1,0,134.2,60.1,134.2,134.2s-60.1,134.2-134.2,134.2-134.2-60.1-134.2-134.2,60-134.2,134.2-134.2"/>
      <path class="cls-6" d="M223.6,124.6v250.5c-50.2-19.4-85.7-68.2-85.7-125.2s35.6-105.8,85.7-125.2"/>
      <path class="cls-3" d="M320.2,375.2V124.5c50.3,19.3,86,68.2,86,125.4s-35.7,105.9-86,125.4"/>
      <path class="cls-1" d="M320.2,125.9c.4-.3.7-.6,1.1-.9,34.5,13.6,61.9,41,75.6,75.4-4.1,18.8-17.3,23.2-37.8,11,0,1.6-1.3,2.7-1.3,2.7,3.4,1.1,3.9,2.7,3.4,6.4,2.8.5,4.9,2.9,5.9,6.7,5.8,1.2,9.4,4.9,10.1,8.9,4,1.9,9,5.5,14.2,10.6,8.8,9.8,3.3,34.1-11.8,54.9,5,12.2-4.6,26-15.2,25.7-3,3.7-12.7,15.7-18.3,21.6.5,4.2,1.1,8.1,1.6,11.6-8.6,5.9-17.9,10.8-27.7,14.6V125.9"/>
      <path class="cls-12" d="M195.3,366.3c5.8-11.2,13.2-24.1,18-32.1,61,.9,100,7.1,116.5,18.3,1.3,9.7,2.4,17.1,3,22.9-18.3,8.9-38.9,13.9-60.7,13.9s-54.8-8.5-76.8-23"/>
      <path class="cls-12" d="M123,247c0-26.8,30.5-48.4,68.2-48.4s68.2,21.7,68.2,48.4-30.5,48.4-68.2,48.4-68.2-21.7-68.2-48.4"/>
      <path class="cls-9" d="M328.1,340.4c.6,4.4,1.2,8.5,1.7,12.2-20.9-3.3-61.7-9.8-116.5-18.3,3-4.9,6.7-11,6.7-11,1.6-9.8,1.7-12.7,3-22.8l-10-.5c-2.5,0-7.4,0-8.8-2.6-6.1-1.1-8.9-2.9-8.6-5.4-5.5.2-9.9-2.1-10.6-5.3-8.1-1-10.1-3-11-6.9l67.2-60.6c3.8-2.1,11.4-4.7,25.1-5.9-.2-6,4.1-9.7,12.1-11.2,3.8-4.5,9.2-6.6,15.3-4.7-1.1-6.6-.5-11.3.9-16.7.3-4.7-.6-7,1.4-11.7-13.4-9.7-17.7-17.9-13.7-24.8-3-15.9,4.8-27.8,18.2-25.4,9.6-9.9,28.1-15.6,41.6-6.4,17.5,0,35.5,9.5,37,32.7,12.3,7.2,11.5,23.3.6,38.3-1.9,25.8-15.7,33.3-38.9,19.5,0,1.6-1.3,2.7-1.3,2.7,3.4,1.1,3.9,2.7,3.4,6.4,2.8.5,4.9,2.9,5.9,6.7,5.8,1.2,9.4,4.9,10.1,8.9,4,1.9,9,5.5,14.2,10.6,8.8,9.8,3.3,34.1-11.8,54.9,5,12.2-4.6,26-15.2,25.7-3,3.7-12.7,15.7-18.3,21.6"/>
      <path class="cls-12" d="M120.7,240.3c0-26.8,30.5-48.4,68.2-48.4s68.2,21.7,68.2,48.4-30.5,48.4-68.2,48.4-68.2-21.7-68.2-48.4"/>
      <path class="cls-9" d="M180.3,195l-5.7-4.8c-5.7,0-12.8-.9-21.1-3.1-3,4.7,1.2,7.9,12.3,9.8l-7.7,3.1-6.9.5-14.4-6.1c-3.1-.4-4.1.9-3,3.9l10.7,7.2-1.6.8-10.6-5.9c-2.9-.2-4.2,1-4.2,3.5l9.8,7.2-.4,1.1-9.1-6.6c-4.1-.6-5.8.7-5.1,4l9.4,6.4c-.5.6-7.4-3.2-7.4-3.2-4.2-.2-5.5,1.2-3.8,4l12,6.7,46.6-28.7"/>
      <path class="cls-10" d="M301.7,159.4l-1.3,4.3-.5,3.8c-2.1,3.2-2.8,7.6-2.1,13.3-1.3,5-1.8,10.6-1.3,17,.5,5.4,7.5,8,18.1,9.1,3.8.5,9.9-2,18.2-7.5-8.7,11.7-19.2,14.5-31.7,8.2-1.8,3-2.6,6.3-2.5,9.7,3.2-2.2,6.6-.8,10,4.2,9.9.8,18.6-3.1,26.1-11.7l4.7-15.5c8,9.7,19.1-24.5,3.5-12.2l-3.8-1.6-1-5.9,2.1-4.1c-16.8-12.4-32-13.8-38.6-11"/>
      <path class="cls-10" d="M348.2,175.5c-13.4-16.8-33.9-21.2-46.4-19,.8-2.9,2.6-6.2,5.5-9.8,18.5-2.1,32.6,4.5,42.2,20l-1.3,8.9"/>
      <path class="cls-10" d="M304.4,146.9c-3.2,1.7-5.4,5.5-6.4,11.2-1.2,1.5-1.7,3-1.6,4.7-6.7-3.7-10.6-8.3-11.7-14,2.8,3.8,7.2,10.7,10.7,8.2-17.1-12.3-12.3-36,3.8-35.4l-1.1,5.1c11.6-14.7,25.1-18.9,40.3-12.7l-4.7,3.8c29.5-8.9,43.3,17.4,41.2,29.2l-1.3,2.3c11.2-3.6,17.9,16.6-5.5,37.9,2.2.6,5.1-.8,8.6-4.2-1.1,21.7-13,27.4-35.5,16.9l.6-2.2c.4,1.3,3.6,2.4,9.6,3.1l-5.8-3.8c7.4-4.6,9-14.4,6.9-17.7l.4-4.7c2.2,2.2,6.7,2.8,13.4,1.8-10.1-1.4-14.6-4.2-13.4-8.5,2.7,1.7,6.6.8,12-2.6-7.8,1.4-12,1.3-12.6-.4-3.5-4.7-7.1-8.7-10.7-11.8,3.9,0,7.9-.9,11.9-2.7-14.8,0-24.6-2-29.4-5.6-1.3-4.3.9-10.6,6.6-19-6.4,4.9-9.5,11.1-9.6,18.6h-12.7c-2.9-2.3-3.6-7.1-2.1-14-4.4,7.5-4.4,10.8-1.9,16.6"/>
      <path class="cls-9" d="M312.3,167.1l-2.6-1.9c-2.8-.8-4.9-1.3-6.4-1.1l-.4,2.5,3.1,3.5,3.2-.2-.4,2.1,3.3-5"/>
      <path class="cls-9" d="M319.4,167.9l-.7,2.3c.5,1.2,2,3,4.2,4.7l6.1-.7,1,.5,1.3-.4-2.8-4c-4.7-1.6-7.8-2.4-9.2-2.5"/>
      <path class="cls-9" d="M311.6,179.6c-2.6.3-3.6-.5-5.1-1.4l-1.6,3.8h1.6l.9.3,1.3,1.9,1.3-1.3c1.2.4,2.9,2.4,6.1,1.8-2.2-.6-3.4-3.1-4.4-5"/>
      <path class="cls-9" d="M317.5,191.1l-6.6-3h-2.7l-1.9-1.5c-2.3-.3-3.7-.4-5.1-.8l-.7.7,3,1.3c1.3,1.9,4.7,2.9,10.1,3.1l3.9,1.4-.2-1.2"/>
      <path class="cls-9" d="M312.4,195.1c-5.7-.6-8-2.1-10.3-3.9l1.5,3.7c2,0,5.5,1,10,3.5l-1.3-3.2"/>
      <path class="cls-10" d="M338.9,209.6c-10.2,10.3-20.8,15.2-31.7,14.9-1.1,3-2.4,5.1-4.2,6.4,5.9,2.8,23.5,2.1,53.1-1.8-.4-4.2-3-6.4-7.8-6.6-5.9,3.6-12,5.6-18.3,6.2,6.1-2,11.5-4.7,16.3-8.2-.9-3.6-2.4-5.2-4.7-5-5.2,7.2-12.2,11.5-20.9,13,8.9-3.1,15.6-8.4,20.1-15.7-.4-2.4-1-3.4-1.9-3"/>
      <path class="cls-10" d="M294.1,201.1c-3,4-2.1,9.4,2.4,16.1-3.6,1.1-5.6,5-6.1,11.9-5.5-.6-12.8-4.9-21.7-13,.8-5.9,3.8-9.3,9-10.2-.3,4.5,2.9,9.7,9.6,15.7-4.6-6.6-6.6-12.3-6.1-16.8.7-3.9,5-5.2,13-3.7"/>
      <path class="cls-10" d="M305,219.8c-8.3-2.2-12.2,1.4-11.7,11l2.2,2c-1.1-4.1-.8-6.8.9-8-.8,4.1-.2,6.8,1.8,8.1l3-.5c2.9-4.6,4.3-7.4,4.3-8.7l-.5-3.9"/>
      <path class="cls-10" d="M291.1,231.3c-13,3.2-17.5,14.4-13.7,33.5,8.1-10.9,12.2-23.8,17.4-27.4l-1-3c-5.1,2-9.2,6.6-12.3,14.2,1.5-7.6,5.4-13,11.4-16.1l-1.8-1.3"/>
      <path class="cls-10" d="M296,235.7c-2.2,11.7-1.5,24.1,2.2,37,10.4-17.7,11.8-30.6,4.3-38.7l-3.2,1c1.1,4.9,1.3,9,.4,12.2-.5-5.6-1.8-9.5-3.8-11.5"/>
      <path class="cls-10" d="M266.1,217.3c-6-.2-12.4.9-16.1,2.9,8.4,16.5,8.3,35.2-5.9,51.1,0,.7,0,1,.8,1.9,9.2,4.3,28,8.1,50.9,12.2,2.6-9.3,8.7-16.6,16.3-19.2,17.9-2.7,32.9,5.8,47.2,22.7,11.3-17.8,18.6-37.4,11.9-47.8-5.5-5.6-9.9-8.8-13.6-9.6-25.7,4.3-42.4,5.3-50.2,3,4.8,13.6,1.2,28.5-10.2,42.5-3.3-9.1-5.5-18.2-5.9-30.9-3.8,8.2-8.8,16.5-15.5,26.2-6-18.8-2.2-34.5,10-42.7-9.7-2.1-16.5-7.1-19.8-12.3"/>
      <path class="cls-10" d="M317.5,269.1c-11.4,2.5-17.4,8.1-18.4,17,18.3-6.4,34.9,1.9,49.8,24.8-.8-11.9-7.5-21-20-27.6,11.3.9,22.2,7,24.5,24.8,4.6-3.8,5.1-5.6,4.6-12.3-7.4-13.9-24.2-26-40.6-26.8"/>
      <path class="cls-10" d="M343.3,312.1c-14.6-17.9-27.4-27.3-42-23.2,7.5,3.5,12.9,7.5,16.2,12.2-21.1-11.2-49.2-15.7-73.2-25.2l-15-15-15.5-2.7-18,3.6c-.4,3.2,5.5,4.3,17.7,3.1,3.4.4,4.2,2.5,2.2,6.2l-9.8,5.1-14.4,1.5h-15c-2.1,2.8-.4,4.6,5.1,5.5l8.1.5,15.1-1c1.4.3,1.8.8,1.1,1.5l-12.4,2-5.5-.4c.7,1.6,2.2,2.7,4.7,3.1l5.7.9,10.3-1.5c1.8.2,2.3.6,1.8,1.3l-10.8,2.1c.2,1.6,1.8,2.6,5.9,3.1l7.8-1.3c1.6.2,2.1.5,1.5,1.1l-5.7.9c0,1.1,1.5,1.6,4.7,1.8l22.6-2.7c31.7,13.8,51.9,33.9,83.8,41.3,7.4-4.5,13.9-10.7,23.2-23.8"/>
      <path class="cls-10" d="M229.7,299.9l-2.7,30.2c23.9,14.9,51.5,17,93.4,9.6-31.3-6.3-62.1-27.6-81.8-41.3l-8.9,1.5"/>
      <path class="cls-9" d="M341.3,237.5c-13.1,4.6-22.8,14.9-29.3,31.2l6-.6c4.2-9.9,12-20.1,23.3-30.6"/>
      <path class="cls-11" d="M188.7,195.7c36.7,0,63.6,21.8,63.6,44.7s-5,19.4-13.7,27l-8.3-8.3-16.5-2.9-19.7,3.8-.2,1.3c-.4,3.4,2.9,4.7,5.7,5.3,3.2.5,7.9.5,13.9,0,1.3.2,2.1.4.8,3l-8.9,4.7-14,1.5h-15.9l-.5.7c-1.3,1.7-1.9,3.9,0,5.8.3.3.6.5,1,.8-29.8-4.2-50.5-22.8-50.5-42.8s26.7-44.7,63.3-44.7"/>
      <path class="cls-9" d="M216.3,199.3l-27.1,31.3,31.3-29.9-4.2-1.4h0Z"/>
      <path class="cls-9" d="M176.2,195.5l11.5,35.3-14.9-35.3h3.4Z"/>
      <path class="cls-9" d="M187.7,232.7l-49.7-20.8-2.3,2.3,52.1,18.3h0v.2h0Z"/>
      <path class="cls-9" d="M186.8,233.4l-45.7,36.2,4.7,3.5,41-39.8h0Z"/>
      <path class="cls-9" d="M188.2,232.7l-.4,44.3,3.5-.4-3-43.8h-.1Z"/>
      <path class="cls-9" d="M248.7,224.9l-61.5,7.8,63.4-4.5-1.9-3.3h0Z"/>
      <path class="cls-9" d="M248.3,257.9l-59.6-24.7,57.7,27.6,1.9-2.9h0Z"/>
      <path class="cls-9" d="M188,233.2l-63.8,8.5-.7,4,64.5-12.4h0Z"/>
      <path class="cls-12" d="M134.6,227.1v-.6c.9,1.7,3,2.9,5.5,2.9s5.5-1.8,6-4.1c.4.6.5,1.3.5,2,0,2.6-2.7,4.7-6,4.7s-6-2.1-6-4.7"/>
      <path class="cls-12" d="M158.5,209.9c0-2.6,2.7-4.7,6-4.7s6,2.1,6,4.7-2.7,4.7-6,4.7-6-2.1-6-4.7ZM160.4,210.2c0,2,2,3.6,4.5,3.6s4.5-1.6,4.5-3.6-2-3.6-4.5-3.6-4.5,1.6-4.5,3.6"/>
      <path class="cls-12" d="M158.1,241.7v-.6c1,1.7,3,2.8,5.5,2.8s5.5-1.8,6-4.1c.4.6.5,1.3.5,2,0,2.6-2.7,4.7-6,4.7s-6-2.1-6-4.7"/>
      <path class="cls-12" d="M137.1,252.3v-.6c1,1.7,3,2.9,5.5,2.9s5.5-1.8,6-4.1c.4.6.5,1.3.5,2,0,2.6-2.7,4.7-6,4.7s-6-2.1-6-4.7"/>
      <path class="cls-12" d="M170.8,268.5v-.6c.9,1.7,3,2.9,5.5,2.9s5.5-1.8,6-4.1c.4.6.5,1.3.5,2,0,2.6-2.7,4.7-6,4.7s-6-2.1-6-4.7"/>
      <path class="cls-12" d="M217.2,238.2v-.6c.9,1.7,3,2.9,5.5,2.9s5.5-1.8,6-4.1c.4.6.5,1.3.5,2,0,2.6-2.7,4.7-6,4.7s-6-2.1-6-4.7"/>
      <path class="cls-12" d="M201.4,251.3v-.6c1,1.7,3,2.9,5.5,2.9s5.5-1.8,6-4.1c.4.6.5,1.3.5,2,0,2.6-2.7,4.7-6,4.7s-6-2.1-6-4.7"/>
      <path class="cls-12" d="M217.4,218.1v-.6c1,1.7,3,2.9,5.5,2.9s5.5-1.8,6-4.1c.4.6.5,1.3.5,2,0,2.6-2.7,4.7-6,4.7s-6-2.1-6-4.7"/>
      <path class="cls-9" d="M157.9,249.3c-1.9-3.6-5.9-5.1-12-4.6l1.3-1.3c5.5-1.3,9.2,0,11.3,3.7l-.6,2.1"/>
      <path class="cls-9" d="M150.2,223.5c2.5,2.7,3.2,5.5,2.2,8.1l2.5-1c1-4-.6-6.4-4.7-7.2"/>
      <path class="cls-9" d="M139.2,236.1l-6.7-3.8-.6,2.8,7.3,1h0Z"/>
      <path class="cls-9" d="M143.3,251.2l.6,2.5h-1.8l1.2-2.5Z"/>
      <path class="cls-9" d="M141.9,225.8l3,1.2-1.3,1.3-1.7-2.4h0Z"/>
      <path class="cls-9" d="M139.7,226.5l-2.1,2-.8-.8,3-1.2h0Z"/>
      <path class="cls-9" d="M167.5,229.2l-5.4.8,1,2.2,4.9-1.4,5.6.8-1.5-2.2-4.6-.2"/>
      <path class="cls-9" d="M181.3,221.5s-1.3-1.8-2.7-1.2-2.5,1.5-3.3,1.7-5.4-2-5.4-2l.4-1.6s4.2,2.8,5.6,2c1.4-.8,2.1-1.8,3-1.6,1.1.2,2.1,2.2,2.1,2.2v.4"/>
      <path class="cls-9" d="M153.8,207.9l-7.1,2.7,2.1,1.6,5-4.3Z"/>
      <path class="cls-9" d="M176.9,259c-.2-.4-3.2-2-4.9-1.6-1.8.4-4.7,3.3-5.7,3.6-1,.4-4.1-1.3-4.1-1.3l1.3-1.9s1.3,1.6,3.4.4,2.8-3,4.3-3,2.7-.5,3.6.2c1,.7,2.3,4.1,2.1,3.6"/>
      <path class="cls-9" d="M184.1,241.2l-6.1,4.3,6.1,3v-7.2h0Z"/>
      <path class="cls-9" d="M163.6,268.6l-9.1.4,2.4,2.7,6.7-3.1h0Z"/>
      <path class="cls-9" d="M199.5,251.2c-.9.2-6.5.7-6.5.7l1.3,3.9,5.3-4.7"/>
      <path class="cls-9" d="M195,238.7s-2.3.9-3,2.1.4,4.6,0,5.5c-.4,1-1.7,2.8-1.7,2.8,0,0,2.8-.7,3.6-2.3s.4-3.5.2-4.3-.9-1.2,0-1.6.9-2.3.9-2.3"/>
      <path class="cls-12" d="M190.8,215.4c0-2.6,2.7-4.7,6-4.7s6,2.1,6,4.7-2.7,4.7-6,4.7-6-2.1-6-4.7ZM192.6,215.5c0,2,2,3.6,4.5,3.6s4.5-1.6,4.5-3.6-2-3.6-4.5-3.6-4.5,1.6-4.5,3.6"/>
      <path class="cls-12" d="M182.1,202.6c0-2.6,2.7-4.7,6-4.7s6,2.1,6,4.7-2.7,4.7-6,4.7-6-2.1-6-4.7ZM184,202.8c0,2,2,3.6,4.5,3.6s4.5-1.6,4.5-3.6-2-3.6-4.5-3.6-4.5,1.6-4.5,3.6"/>
      <path class="cls-12" d="M234.6,248.7c0-2.6,2.7-4.7,6-4.7s6,2.1,6,4.7-2.7,4.7-6,4.7-6-2.1-6-4.7ZM236.5,249c0,2,2,3.6,4.5,3.6s4.5-1.6,4.5-3.6-2-3.6-4.5-3.6-4.5,1.6-4.5,3.6"/>
      <path class="cls-12" d="M174.8,253.5c0-2.6,2.7-4.7,6-4.7s6,2.1,6,4.7-2.7,4.7-6,4.7-6-2.1-6-4.7h0ZM176.7,253.8c0,2,2,3.6,4.5,3.6s4.5-1.6,4.5-3.6-2-3.6-4.5-3.6-4.5,1.6-4.5,3.6"/>
      <path class="cls-9" d="M211.8,221.9l-7.3,1.6.4,4,9.2-1.2-2.3-4.5"/>
      <path class="cls-9" d="M213.7,234.6l-7.1,3.5,4.9,3.5,2.6-2.6-.4-4.5"/>
      <path class="cls-9" d="M244.5,236l-8.2,1.2,7.1,2.9,1.2-4h-.1Z"/>
      <path class="cls-9" d="M241.2,220.7c-1,.7-2.9-1.6-5.6-1.6s-3,2.6-4.9,3-3,.7-3,.7c0,0,3.3,2.1,5.2,1.2,1.9-1,2.1-2.9,3.3-2.6s5.2-.7,5.2-.7"/>
      <path class="cls-9" d="M204.3,200.7l-7.1,3.8,4.7,3.3,4.9-5.2-2.6-1.9"/>
      <path class="cls-9" d="M224.2,251.5l-6.6,3.3,5.9,1.2.7-4.5h0Z"/>
      <path class="cls-9" d="M199.3,268.5c-1.2,0-5.9.7-5.9.7l1,3.5,5.6-1.2-.7-3"/>
      <path class="cls-9" d="M170.8,275.8l-4.2-4.5-4.2,3.3,4.7,2.9,3.8-1.6"/>
      <path class="cls-12" d="M182.5,230.9c0-1.2,1.3-2.1,3-2.1s3,1,3,2.1-1.3,2.1-3,2.1-3-1-3-2.1"/>
      <path class="cls-4" d="M127.9,261.7c10.8,16.2,33.8,27.5,60.7,27.6l5,3.5h-2c-29.1,0-54-13-63.7-31.2"/>
      <path class="cls-8" d="M221.2,334.6c9.2,11,28.5,17.4,58,19.3-29.9,1.3-50.8-3.1-62.6-13.2l4.7-6.1"/>
      <path class="cls-4" d="M178.8,282.4l26.2-1.3,33.4,7c33.7,19.1,60,30.4,79,33.9,0,0,12.3-11.1,19.1-17.8,2.2,2.4,4.5,5,6.8,7.9-9.3,13.2-15.7,19.3-23.2,23.8-31.9-7.3-52.1-27.5-83.8-41.3l-22.6,2.7c-3.1-.2-4.7-.7-4.7-1.8l5.7-.9c.5-.5,0-.9-1.5-1.1l-7.8,1.3c-4-.5-5.6-1.5-5.9-3.1l10.8-2.1c.5-.7,0-1.2-1.8-1.3l-10.3,1.5-5.7-.9c-2.4-.4-3.9-1.4-4.7-3.1l5.5.4,12.4-2c.7-.7.4-1.3-1.1-1.5l-15.1,1-8.1-.5c-1.2-.2-2.1-.4-2.9-.7"/>
      <path class="cls-8" d="M229.7,299.9l-2.7,30.2c23.9,14.9,51.5,17,93.4,9.6-31.3-6.3-62.1-27.6-81.8-41.3l-8.9,1.5"/>
      <path class="cls-4" d="M339.6,298.6c1.1-1.7,2-3.4,2.7-5.1,4,4.9,6.3,10.6,6.8,17.3-3-4.7-6.2-8.8-9.4-12.2h-.1ZM343.8,288.6c.6-3,.7-6.1.2-9.1,5.9,4.6,10.9,10.3,14.1,16.3.5,6.6,0,8.4-4.6,12.3-1.3-9.5-4.9-15.7-9.8-19.5"/>
      <path class="cls-4" d="M343.3,273.9c6.9-5.5,25.9-14,17.5-41.2,3,1.5,6.4,4.3,10.4,8.4,6.7,10.4-.5,30-11.9,47.8-5.2-6.2-10.5-11.2-16-15"/>
      <path class="cls-4" d="M305.6,137.1c1.2,1.5,3.7,3.9,7,4.5,3.2.5,7.2-2.2,9.6-4.1-.6,2.1-1,4.4-1,6.8h-12.7c-1.8-1.5-2.8-3.8-2.9-7.2h0ZM324.6,137c1,2.1,3.1,6,6.4,7.3,4.6,1.9,21.2,5.9,21.2,5.9-14.1-.2-23.5-2-28.3-5.5-.6-2.1-.4-4.7.5-7.7h.2,0ZM351.6,151.1c-1.1,1.3-2.9,4-2.2,5.5.7,2,9.7,8.1,11.3,9.2-5,.6-7.8.3-8.3-1.1-3.5-4.7-7.1-8.7-10.7-11.8,3.3,0,6.6-.6,10-1.9h0ZM359.3,168c-.9,1.3-1.9,3-1.4,3.7.5.9,2.8,2.8,4.1,3.8-7-1.6-9.9-4.1-9-7.7,1.6,1,3.8,1.1,6.4.2h-.1ZM362.6,176.7c-1.3,1.3-5.2,5.2-5.5,7.6-.3,3,2.1,6.7,2.4,9.7.2,2.3,9.8,1.5,14,3-5,9.7-15.7,10.7-32.4,3l.6-2.2c.4,1.3,3.6,2.4,9.6,3.1l-5.8-3.8c7.4-4.6,9-14.4,6.9-17.7l.4-4.7c1.8,1.8,5,2.5,9.6,2.2v-.2h.2,0ZM288.1,156.1l-.6-3.6c2.5,3.2,5.5,6.3,8,4.5-1.6-1.2-3-2.4-4.2-3.7,1.1.3,2-.2,2.1-2.1.3-5.1-.8-9.4,1.6-11,1.8-1.2,6.1-3,8.3-3.8-1.2,3.8-.6,6.5,1,10.5-3.2,1.7-5.4,5.5-6.4,11.2-1.2,1.5-1.7,3-1.6,4.7-3.6-2-6.4-4.2-8.3-6.7"/>
      <path class="cls-8" d="M348.2,175.5c-1.8-2.2-3.8-4.3-5.7-6.1l.4-2.3c-8.4-13.6-20.3-20.3-35.6-20.3v-.2c18.6-2.1,32.7,4.5,42.3,20l-1.3,8.9"/>
      <path class="cls-4" d="M338.3,231.3c2.8-2.1,4.4-4.1,4.9-6.1,1.7-.8,3.4-1.7,5.1-2.7,4.7.2,7.4,2.4,7.8,6.6-6.5.9-12.4,1.6-17.8,2.1h0ZM342.3,223.2l-5.5-2.3c1.8-1.6,3.3-3.4,4.8-5.4,2.2-.2,3.8,1.5,4.7,5-1.3,1-2.6,1.9-4,2.7h0ZM336.5,218.2c.5-2.5.4-4.4-.6-5.7,1.1-.9,2.1-1.9,3-3,.8-.4,1.4.6,1.9,3-1.3,2.1-2.7,3.9-4.3,5.6"/>
    </g>
    <g class="cls-15">
      <g class="cls-18">
        <path class="cls-7" d="M70.1,233.3h33.6v33.6h-33.6v-33.6h0Z"/>
      </g>
    </g>
    <g class="cls-17">
      <g class="cls-16">
        <path class="cls-5" d="M441.2,233.3h33.6v33.6h-33.6v-33.6h0Z"/>
      </g>
    </g>
  </g>
  <g>
    <path class="cls-3" d="M132.5,138.1s0,0,0,0h0Z"/>
    <path class="cls-3" d="M140.1,142.2l-6.1-4.3c-.3-.2-.5-.2-.8-.2s-.4,0-.6.3h.2l-8.1,11.4-21-14.9c-.4-.3-.6-.3-.9-.3-.3,0-.5.2-.7.5l-5.1,7.2c-.3.3-.3.5-.3.8,0,.3.2.5.5.7l27.9,19.9c.3.3.5.3.8.3.3,0,.5-.2.7-.5l13.8-19.4c.4-.5.3-1.1-.3-1.5Z"/>
    <path class="cls-3" d="M175.7,110.3c-.1-.4-.4-.6-.8-.9v.2l-33.4-16.5c-.5-.3-.8-.3-1.3-.3s-.8,0-1.2.4l-2,1.7c-.2.2-.6.6-.6,1-.2.3-.2.8,0,1.3l10.6,35.6c.2.5.4.9.8.9s.8,0,1.2-.4l6.7-5.6c.4-.3.7-.7.7-1.1.2-.5.2-.8,0-1.2l-1-2.4,8.5-7.2,2.2,1.3c.4.3.7.3,1.2.3s.8-.1,1.2-.4l6.7-5.6c.5-.4.5-.7.5-1.1ZM152.2,115.2v-.2l-3.2-8.1,7.5,4.6-4.3,3.7Z"/>
    <path class="cls-3" d="M207.3,78c-1-.8-1.9-1.3-3.1-1.7-1.2-.4-2.3-.4-3.5-.4h0c0,0-.3,0-.3,0,.6-.6.9-1.4,1.2-2.2.3-.9.3-1.7.3-2.6s-.2-1.8-.6-2.6c-.6-1.3-1.4-2.4-2.6-3.2-1-.8-2.4-1.4-3.8-1.8-1.6-.3-3.1-.5-4.7-.3-1.6.1-3.2.7-4.8,1.4l-12.8,6c-.2.2-.6.3-.6.6-.2.3-.2.5,0,.9l14.5,31c.2.3.3.6.6.6.3.2.6.2.9,0l13.7-6.4c1.8-.8,3.3-1.8,4.6-3.1,1.3-1.2,2.3-2.5,3-4.1.7-1.6,1.1-3,1.1-4.7s-.3-3.2-1-4.7c-.5-1.1-1.2-2-2.1-2.8ZM187.5,79.2l-1.8-3.8,3.8-1.8c.6-.2,1.3-.4,1.8-.2.7.2,1,.5,1.3,1,.3.5.3,1.1,0,1.7-.3.6-.7,1-1.3,1.3l-3.8,1.8ZM198.8,87.5c-.3.5-.8.7-1.3,1h0l-4.5,2.1-2.4-5.2,4.5-2.1c.5-.3,1.1-.3,1.6-.3.5,0,1.1.2,1.5.5.5.4.8.8,1.1,1.3.2.4.2,1,.2,1.4-.1.4-.2.9-.6,1.3Z"/>
    <path class="cls-3" d="M227.9,86.9c.4.2.9.2,1.3.2l25.9-4.7c.5-.1.7-.2,1-.6.2-.4.2-.8.2-1.2l-1.3-6.8c0-.6-.4-1-.8-1.3s-1-.3-1.6-.3h0c0,0-.2,0-.2,0l-16,3-.5-3.1,11.6-2.1c.7,0,1-.2,1.3-.6.3-.4.3-.8.3-1.3l-.9-4.8c0-.6-.3-.9-.7-1.2-.3-.2-.8-.2-1.3-.2l-11.6,2.1-.8-4.2,16.2-3c.6-.1.9-.3,1.1-.6.2-.4.2-.8.2-1.3l-1.3-7.2c0-.6-.2-.8-.6-1.1-.4-.2-.8-.2-1.3-.2l-25.5,4.7c-.6,0-.8.2-1.1.6-.2.4-.2.8-.2,1.3l6,32.8c.1.5.2.7.6,1Z"/>
    <path class="cls-3" d="M272.6,81.7l23.7,1.5c.8,0,1.2-.3,1.2-1l.4-7.4c0-.4,0-.6-.3-.8-.2-.2-.4-.4-.8-.4h.2l-13.9-.9,1.6-25.7c0-.5,0-.7-.3-.9-.2-.2-.4-.4-.8-.4l-8.8-.5c-.4,0-.6,0-.8.3s-.4.4-.4.8l-2.1,34.2c0,.4,0,.6.3.8.2.4.4.4.8.4Z"/>
    <path class="cls-3" d="M337.4,83.9s0,.2,0,.2l-13.3-4,7.5-24.6c.2-.4.2-.6,0-.9-.2-.2-.3-.5-.7-.5l-8.4-2.6c-.4-.2-.6,0-.9,0-.2,0-.5.3-.5.7l-9.9,32.7c-.2.3-.2.5,0,.8.2.2.3.5.7.5l22.8,6.9c.6.2,1.1,0,1.3-.7l2.1-7.1c.2-.4,0-.6,0-.9-.2-.2-.3-.5-.7-.5Z"/>
    <path class="cls-3" d="M381.9,75.6l-2.2-1.3c-.4-.3-.7-.3-1.2-.3s-.9,0-1.3.4l-30.4,21.3c-.4.4-.6.7-.6,1.1s.3.7.7,1l7.4,4.6c.5.3.8.3,1.3.3s.8-.1,1.1-.4l2.1-1.7,9.5,5.8-.6,2.6c-.2.5-.2.9,0,1.3.2.5.4.7.8,1l7.5,4.6c.6.4.9.4,1.3.2.3-.2.6-.5.6-1h0c0,0-.2,0-.2,0v-.3l5-36.8c.2-.5.2-.9,0-1.3-.2-.5-.4-.7-.8-1ZM370.2,98.4l-4.8-3h0l6.7-5.6-1.9,8.6Z"/>
    <path class="cls-3" d="M412.4,110.9c.9-.6,1.8-1.4,2.7-2.4.8-.8,1.2-1.7,1.5-2.6.2-1,.2-1.9,0-2.8,0-.8-.6-1.6-1.3-2.2-.7-.7-1.4-1-2.2-1.2-.8-.3-1.6-.2-2.4,0-.8.2-1.5.7-2.1,1.3l-.2.2c-.6.7-.9,1.3-1.2,2,0,.8-.2,1.4,0,2.1s.6,1.3,1,1.7c0,.3.3.3.3.3h.2v.2c0,0-.2.3-.2.3-.2,0-.4.3-.8.4-.4,0-.9.2-1.3.4-.4.1-.9.4-1.3.4-.4,0-.7.2-.9.5s-.2.5-.2.8l.8,2.5c0,.3.2.5.5.7h.9c1.2-.4,2.3-.7,3.3-1.1,1-.3,2-.9,2.9-1.5Z"/>
    <path class="cls-3" d="M445.6,139.9c-.2-1.3-.6-2.7-1.1-4-.5-1.4-1.2-2.6-2-3.8-1.7-2.2-3.5-3.9-5.5-5.1-2.1-1.1-4.1-1.5-6.2-1.5-2.1,0-4,.8-6,2.2-1.3.9-2.3,1.9-3,2.9s-1.1,2.1-1.3,3.4c-.3,1.1-.3,2.6,0,4.1.2,1.5.7,3.2,1.4,5.2.4,1.2.7,2.1.9,2.8.2.7.4,1.3.4,1.7v1c0,.2,0,.4-.4.6-.4.3-.9.3-1.3,0-.4-.3-1-.8-1.6-1.6-.6-1-1-2.1-1.3-3.4s-.3-2.6-.3-3.9,0-.9-.4-1.3c-.3-.3-.6-.6-1-.6l-7.4-1.2c-.5-.1-.9,0-1.3.2-.3.2-.7.4-.7.8-.4,1.5-.5,3.3-.4,5,0,1.7.6,3.6,1.4,5.5.8,1.9,1.7,3.7,3,5.4h0l.4.2.3.2c1.1,1.6,2.4,2.8,3.8,3.9,1.5.9,3,1.6,4.6,2.1s3.2.5,4.8.2c1.7-.3,3.2-1,4.7-2.1,1.3-.8,2.2-1.7,2.8-2.7.7-1,1.1-2,1.3-3,0-1,.1-2,0-3.1,0-1.1-.2-2.1-.6-3.3-.4-1.2-.8-2.3-1.2-3.5-.6-1.8-1-3.2-1.3-4.4-.2-1.1,0-1.8.4-2.2.4-.2.8-.2,1.2,0,.4.2.9.7,1.3,1.3.4.5.6,1.1.8,1.9s.4,1.8.4,2.5,0,1.2.4,1.6c.2.4.7.7,1.5.7l6.4.6c.6,0,1.1-.1,1.4-.4.3-.3.7-.7.7-1.2.2-1.1.2-2.4,0-3.7Z"/>
    <path class="cls-3" d="M204.3,403.4c-1.5-1.6-3.3-2.9-5.4-4h0l-4.4-2.2c-.2-.2-.7-.4-1.3-.7-.7-.3-1.3-.6-2-1l-3.8-2c-.4,0-.8,0-1.2,0-.4,0-.7.4-.9.8l-15.3,29.7c-.2.5-.2.8-.2,1.2,0,.4.4.6.8.9l7,3.6c.5.2.9.2,1.3.2.4-.2.7-.4.9-.8l2.5-4.8,3,1.5c2.2,1.1,4.3,1.8,6.4,2.1,2.2.2,4.2,0,6.1-.4,1.9-.5,3.7-1.3,5.2-2.6,1.6-1.2,2.8-2.8,3.8-4.7,1-2,1.6-3.9,1.6-5.9.1-1.9-.2-3.8-.9-5.7s-1.7-3.6-3.2-5.2ZM197.2,415.2c-.5.9-1.2,1.6-2,2-.9.4-1.8.6-2.9.6-1.1-.1-2.1-.4-3.2-.9h0c0,0-2.3-1.3-2.3-1.3l4.7-9.2,2.3,1.2c1.1.6,2,1.3,2.6,2.1.7.9,1,1.7,1.2,2.7s.1,1.9-.4,2.8Z"/>
    <path class="cls-3" d="M234.7,413l-8.5-2.3c-.7-.2-1.1,0-1.3.8l-9,33c-.2.7,0,1.1.8,1.3l8.5,2.3c.7.2,1.1,0,1.3-.8l9-33c.2-.7,0-1.1-.8-1.3Z"/>
    <path class="cls-3" d="M277.7,418.1l-27.3-1.5c-.5,0-.8,0-1.1.4-.2.3-.4.6-.4,1l-.4,6.7c0,.5,0,.8.4,1.1.2.2.6.4,1,.4l11.5.6-16,22.8c0,.3-.2.5-.4.8-.3.3-.3.6-.3,1s0,.7.4,1c.4.2.8.4,1.2.4l30.2,1.7c.5,0,.8,0,1.1-.4.2-.3.4-.6.4-1l.4-6.8c0-.5,0-.9-.4-1.1-.3-.2-.7-.4-1.1-.4h0s.3.2.3.2l-14.3-.8,15.8-23.2c0-.2.4-.3.4-.6q.2-.3.2-.8c0-.5,0-.8-.4-1.1-.3-.2-.7-.4-1.1-.4Z"/>
    <path class="cls-3" d="M326.2,437.7c-.4-.2-.8-.2-1.2-.2h0v-.2l-14,2.9,9.4-26.5c.2-.2.2-.4.2-.7v-.8c0-.4-.2-.7-.5-.9-.4-.2-.8-.2-1.2-.2l-26.8,5.5c-.4,0-.7.3-.9.6-.2.3-.2.7-.2,1.1l1.3,6.6c0,.5.2.8.5,1s.7.2,1.1.2l11.3-2.3-9.6,26.1c-.2.2-.2.4-.2.8v1.1c0,.5.2.7.6.9.4.2.9.2,1.3.2l29.6-6.1c.5,0,.8-.2,1-.5s.2-.7.2-1.1l-1.3-6.6c-.1-.4-.3-.7-.6-.9Z"/>
    <path class="cls-3" d="M377,422.9v-.2l-28.6-23.7c-.4-.2-.8-.5-1.2-.5-.5,0-.9,0-1.3.2l-2.3,1.2c-.3.2-.6.5-.8.9-.3.4-.3.8-.3,1.3l2.1,37.1c0,.6,0,.9.5,1.1.4.3.9.3,1.3,0l7.8-3.9c.5-.2.7-.5.9-.9s.2-.8.2-1.2l-.4-2.6,9.9-5,1.9,1.9c.3.2.7.5,1.1.5.5,0,.9,0,1.3-.2l7.8-3.9c.5-.3.8-.6.8-1s0-.7-.5-1.1h-.2ZM353.9,423.2h0c0-.1-1.3-8.8-1.3-8.8l6.3,6.2-5,2.6Z"/>
  </g>
  <path class="cls-13" d="M272.2,26.3c-123.6,0-223.7,100.1-223.7,223.7s100.1,223.7,223.7,223.7,223.7-100.1,223.7-223.7S395.8,26.3,272.2,26.3Z"/>
  <g>
    <path class="cls-7" d="M837.1,278.6c-7.5-3.3-16.3-4.9-26.6-4.9h-51.2v112.2h31.9v-29.3h19.4c10.2,0,19.1-1.7,26.6-5,7.5-3.4,13.2-8.1,17.2-14.3,3.9-6.2,6-13.9,6-22.2s-1.9-15.8-6-22c-4-6.2-9.7-11-17.2-14.3ZM823.4,327.2c-3.3,2.9-8.3,4.2-14.9,4.2h-17.4v-32.8h17.4c6.6,0,11.6,1.5,14.9,4.5,3.3,2.9,4.9,6.6,4.9,11.9s-1.6,9.3-4.9,12.1Z"/>
    <rect class="cls-7" x="877.5" y="273.7" width="31.7" height="112.3"/>
    <polygon class="cls-7" points="1024.4 293.6 1024.4 273.5 927.6 273.5 927.6 298.8 982.7 298.8 926.4 365.9 926.4 386 1026.6 386 1026.6 360.8 967.8 360.8 1024.4 293.6"/>
    <polygon class="cls-7" points="1133.2 293.6 1133.2 273.5 1036.5 273.5 1036.5 298.8 1091.6 298.8 1035.2 365.9 1035.2 386 1135.5 386 1135.5 360.8 1076.7 360.8 1133.2 293.6"/>
    <path class="cls-7" d="M1185.9,273.7l-49.6,112.3h32.4l8.8-22h47.5l8.8,22h33l-49.7-112.3h-31.3ZM1186.8,340.7l14.4-35.9,14.4,35.9h-28.8Z"/>
    <path class="cls-7" d="M719.6,83h-31.3l-48.7,110.3v-23.1h-53.4v-87.1h-31.7v112.3h116.7l8.8-22h47.5l8.8,22h33l-49.7-112.3ZM689.3,150.1l14.4-35.9,14.4,35.9h-28.8Z"/>
    <path class="cls-7" d="M880.3,148c-3.2-4.6-7.8-8.1-13.8-10.5-.6-.2-1.2-.4-1.9-.7,4.5-2.4,8-5.5,10.6-9.2,3-4.4,4.5-6.5,4.5-15.2s-3.7-15.7-10.9-21.2c-7.3-5.4-18.3-8.1-33.2-8.1h-57.1v112.2h60.3c15.2,0,26.7-2.6,34.6-8.1,7.9-5.4,11.8-13,11.8-22.6s-1.7-11.9-4.9-16.5ZM809.8,106h21.8c5.4,0,9.4.9,12,2.6s4,4.7,4,8.3-1.4,6.2-4,8-6.6,2.8-12,2.8h-21.8v-21.7ZM848.9,169.6c-2.8,1.9-6.9,2.9-12.5,2.9h-26.6v-22.8h26.6c5.5,0,9.7.9,12.5,2.8,2.8,1.8,4.1,4.7,4.1,8.6s-1.4,6.8-4.1,8.6Z"/>
    <polygon class="cls-7" points="991.8 170.6 933.1 170.6 933.1 150.1 983.1 150.1 983.1 126.5 933.1 126.5 933.1 107.8 989.7 107.8 989.7 83 901.8 83 901.8 195.4 991.8 195.4 991.8 170.6"/>
    <polygon class="cls-7" points="1094.8 195.4 1094.8 170.2 1041.4 170.2 1041.4 83 1009.7 83 1009.7 195.4 1009.7 195.4 1094.8 195.4"/>
    <path class="cls-7" d="M1241.4,83l-48.7,110.3v-23.1h-53.4v-87.1h-31.7v112.3h116.7l8.8-22h47.5l8.8,22h33l-49.7-112.3h-31.3ZM1242.4,150.1l14.4-35.9,14.4,35.9h-28.8Z"/>
    <polygon class="cls-7" points="1326.6 134.7 1326.6 134.6 1326.5 134.6 1326.6 134.7"/>
    <path class="cls-7" d="M1343,74.8c-5.4,0-9.7,1.6-13.2,4.8s-5.2,7.7-5.2,13.2,1.7,9.7,5.2,12.8c1.3,1.2,2.8,2.1,4.4,2.9l-7.5,26.1h19l10.3-23.4c1.6-3.6,2.8-6.3,3.4-8.5s1.1-4,1.4-5.5c.3-1.5.3,1,.3-4.5s-1.7-9.9-5.2-13.1c-3.3-3.3-7.6-4.9-13-4.9Z"/>
    <path class="cls-7" d="M1462.9,146.7c-2.3-3.9-5.4-7.1-9.2-9.5-3.9-2.4-8-4.2-12.5-5.7-4.5-1.4-8.9-2.6-13.5-3.6-4.5-1-8.6-1.9-12.4-2.9-3.8-.9-6.8-2.1-9.2-3.6-2.4-1.4-3.6-3.4-3.6-6s.6-3.3,1.7-4.8,3.1-2.8,5.7-3.7c2.6-1,5.6-1.5,10.5-1.5s10,.7,15.2,2.1,10.5,3.6,15.9,6.5l9.6-23.4c-5.5-3.3-11.8-5.8-18.9-7.5-7.1-1.7-10.8-2.5-21.8-2.5s-20.3,1.6-27.6,4.9c-7.3,3.3-12.8,7.7-16.5,13.2-3.7,5.4-5.5,12.1-5.5,18.1s1.1,10.9,3.4,14.9,5.3,7.2,9.1,9.6c3.7,2.5,7.9,4.5,12.5,6,4.6,1.6,9.1,2.8,13.5,3.7s8.6,1.8,12.4,2.9c3.8,1,6.8,2.2,9.2,3.7,2.4,1.5,3.6,4,3.6,5.8s-.6,3.6-1.8,4.9c-1.1,1.4-3.1,2.4-5.7,3.2-2.6.8-4.2,1.1-10.7,1.1s-13.1-1-19.6-3.1-12.4-4.7-17.4-7.9l-10.4,23.6c5.3,3.4,12.1,6.4,20.6,8.7s17.4,3.4,26.7,3.4h0c0,.1.2.1.2.1,11.1,0,20.4-1.6,27.7-4.9,7.5-3.3,13-7.8,16.6-13.3,3.7-5.6,5.5-12.3,5.5-18.1s-1.1-10.8-3.6-14.7Z"/>
  </g>
  <path class="cls-11" d="M273,109.9c-76.9,0-139.4,62.4-139.4,139.4s62.5,139.4,139.4,139.4,139.4-62.5,139.4-139.4-62.5-139.4-139.4-139.4Z"/>
  <path class="cls-3" d="M315.9,374.6V124c50.3,19.3,86,68.2,86,125.4s-35.7,105.9-86,125.4"/>
  <path class="cls-6" d="M226.4,124.8v250.5c-50.2-19.4-85.7-68.2-85.7-125.2s35.6-105.8,85.7-125.2"/>
</svg>