<svg xmlns="http://www.w3.org/2000/svg" xmlns:xlink="http://www.w3.org/1999/xlink" width="500" zoomAndPan="magnify" viewBox="0 0 375 374.999991" height="500" preserveAspectRatio="xMidYMid meet" version="1.0"><defs><g/><clipPath id="4a4b62de19"><path d="M 187.5 0 C 83.945312 0 0 83.945312 0 187.5 C 0 291.054688 83.945312 375 187.5 375 C 291.054688 375 375 291.054688 375 187.5 C 375 83.945312 291.054688 0 187.5 0 Z M 187.5 0 " clip-rule="nonzero"/></clipPath><clipPath id="cc6e755a62"><path d="M 56.15625 56.15625 L 318.65625 56.15625 L 318.65625 318.65625 L 56.15625 318.65625 Z M 56.15625 56.15625 " clip-rule="nonzero"/></clipPath><clipPath id="2301d03486"><path d="M 18.125 173.4375 L 46.25 173.4375 L 46.25 201.5625 L 18.125 201.5625 Z M 18.125 173.4375 " clip-rule="nonzero"/></clipPath><clipPath id="baebb9dcaf"><path d="M 32.1875 173.4375 C 24.421875 173.4375 18.125 179.734375 18.125 187.5 C 18.125 195.265625 24.421875 201.5625 32.1875 201.5625 C 39.953125 201.5625 46.25 195.265625 46.25 187.5 C 46.25 179.734375 39.953125 173.4375 32.1875 173.4375 Z M 32.1875 173.4375 " clip-rule="nonzero"/></clipPath><clipPath id="46a1affba8"><path d="M 329.15625 173.4375 L 357.28125 173.4375 L 357.28125 201.5625 L 329.15625 201.5625 Z M 329.15625 173.4375 " clip-rule="nonzero"/></clipPath><clipPath id="3cdfb21e18"><path d="M 343.21875 173.4375 C 335.453125 173.4375 329.15625 179.734375 329.15625 187.5 C 329.15625 195.265625 335.453125 201.5625 343.21875 201.5625 C 350.984375 201.5625 357.28125 195.265625 357.28125 187.5 C 357.28125 179.734375 350.984375 173.4375 343.21875 173.4375 Z M 343.21875 173.4375 " clip-rule="nonzero"/></clipPath></defs><g clip-path="url(#4a4b62de19)"><path stroke-linecap="butt" transform="matrix(0.75, 0, 0, 0.75, 0.0000045, 0)" fill="none" stroke-linejoin="miter" d="M 249.999994 0 C 111.927078 0 -0.000006 111.927084 -0.000006 250 C -0.000006 388.072917 111.927078 500.000001 249.999994 500.000001 C 388.072911 500.000001 499.999995 388.072917 499.999995 250 C 499.999995 111.927084 388.072911 0 249.999994 0 Z M 249.999994 0 " stroke="#1c2247" stroke-width="18" stroke-opacity="1" stroke-miterlimit="4"/></g><g clip-path="url(#cc6e755a62)"><path fill="#b8b8ca" d="M 318.652344 187.40625 C 318.652344 259.894531 259.890625 318.65625 187.40625 318.65625 C 114.917969 318.65625 56.15625 259.894531 56.15625 187.40625 C 56.15625 114.921875 114.917969 56.15625 187.40625 56.15625 C 259.890625 56.15625 318.652344 114.921875 318.652344 187.40625 " fill-opacity="1" fill-rule="nonzero"/></g><path fill="#1c2247" d="M 187.40625 60.664062 C 257.402344 60.664062 314.144531 117.410156 314.144531 187.40625 C 314.144531 257.40625 257.402344 314.148438 187.40625 314.148438 C 117.40625 314.148438 60.664062 257.40625 60.664062 187.40625 C 60.664062 117.410156 117.40625 60.664062 187.40625 60.664062 " fill-opacity="1" fill-rule="nonzero"/><path fill="#ffffff" d="M 70.535156 187.40625 C 70.535156 122.859375 122.859375 70.535156 187.40625 70.535156 C 251.953125 70.535156 304.277344 122.859375 304.277344 187.40625 C 304.277344 251.953125 251.953125 304.277344 187.40625 304.277344 C 122.859375 304.277344 70.535156 251.953125 70.535156 187.40625 " fill-opacity="1" fill-rule="nonzero"/><path fill="#ffffff" d="M 187.40625 74.898438 C 249.542969 74.898438 299.914062 125.269531 299.914062 187.40625 C 299.914062 249.546875 249.542969 299.914062 187.40625 299.914062 C 125.269531 299.914062 74.894531 249.546875 74.894531 187.40625 C 74.894531 125.269531 125.269531 74.898438 187.40625 74.898438 " fill-opacity="1" fill-rule="nonzero"/><path fill="#349c3d" d="M 146.78125 82.457031 L 146.78125 292.359375 C 104.722656 276.066406 74.894531 235.222656 74.894531 187.40625 C 74.894531 139.59375 104.722656 98.746094 146.78125 82.457031 " fill-opacity="1" fill-rule="nonzero"/><path fill="#ec2236" d="M 227.804688 292.445312 L 227.804688 82.367188 C 269.984375 98.601562 299.914062 139.507812 299.914062 187.40625 C 299.914062 235.304688 269.984375 276.214844 227.804688 292.445312 " fill-opacity="1" fill-rule="nonzero"/><path fill="#ce222a" d="M 227.804688 83.472656 C 228.085938 83.214844 228.378906 82.957031 228.671875 82.707031 C 257.550781 94.097656 280.578125 117.089844 292.023438 145.9375 C 288.550781 161.675781 277.550781 165.34375 260.398438 155.183594 C 260.488281 156.542969 259.375 157.460938 259.375 157.460938 C 262.246094 158.371094 262.660156 159.710938 262.253906 162.835938 C 264.605469 163.304688 266.378906 165.25 267.179688 168.464844 C 272.027344 169.476562 275.074219 172.589844 275.671875 175.960938 C 279.023438 177.539062 283.257812 180.503906 287.621094 184.847656 C 294.957031 193.042969 290.367188 213.417969 277.753906 230.839844 C 281.960938 241.007812 273.90625 252.65625 265.019531 252.359375 C 262.582031 255.457031 254.382812 265.558594 249.714844 270.425781 C 250.183594 273.945312 250.640625 277.191406 251.0625 280.1875 C 243.867188 285.132812 236.070312 289.261719 227.804688 292.445312 L 227.804688 83.472656 " fill-opacity="1" fill-rule="nonzero"/><path fill="#1c2247" d="M 123.054688 284.984375 C 127.894531 275.59375 134.113281 264.839844 138.132812 258.039062 C 189.316406 258.824219 221.878906 263.960938 235.804688 273.441406 C 236.945312 281.507812 237.859375 287.753906 238.261719 292.664062 C 222.886719 300.105469 205.632812 304.277344 187.40625 304.277344 C 163.628906 304.277344 141.511719 297.179688 123.054688 284.984375 " fill-opacity="1" fill-rule="nonzero"/><path fill="#1c2247" d="M 62.484375 184.925781 C 62.484375 162.519531 88.0625 144.355469 119.613281 144.355469 C 151.167969 144.355469 176.746094 162.519531 176.746094 184.925781 C 176.746094 207.335938 151.167969 225.5 119.613281 225.5 C 88.0625 225.5 62.484375 207.335938 62.484375 184.925781 " fill-opacity="1" fill-rule="nonzero"/><path fill="#1c2247" d="M 234.390625 263.214844 C 234.882812 266.914062 235.359375 270.308594 235.800781 273.433594 C 218.214844 270.652344 184.042969 265.261719 138.144531 258.023438 C 140.582031 253.894531 143.757812 248.761719 143.757812 248.761719 C 145.128906 240.605469 145.15625 238.144531 146.34375 229.652344 L 137.925781 229.195312 C 135.804688 229.242188 131.667969 229.148438 130.605469 227.019531 C 125.488281 226.148438 123.144531 224.648438 123.394531 222.542969 C 118.824219 222.726562 115.042969 220.824219 114.535156 218.101562 C 107.757812 217.28125 106.058594 215.527344 105.28125 212.351562 L 161.613281 161.613281 C 164.8125 159.800781 171.109375 157.675781 182.648438 156.671875 C 182.488281 151.636719 186.113281 148.585938 192.761719 147.304688 C 195.914062 143.519531 200.511719 141.789062 205.613281 143.292969 C 204.746094 137.746094 205.144531 133.863281 206.355469 129.242188 C 206.578125 125.308594 205.808594 123.375 207.570312 119.441406 C 196.324219 111.351562 192.738281 104.46875 196.097656 98.703125 C 193.585938 85.378906 200.125 75.410156 211.316406 77.394531 C 219.359375 69.042969 234.871094 64.371094 246.199219 72.03125 C 260.875 72.140625 275.960938 80.011719 277.15625 99.488281 C 287.398438 105.550781 286.722656 119.023438 277.699219 131.597656 C 276.117188 153.203125 264.570312 159.523438 245.074219 147.972656 C 245.164062 149.332031 244.046875 150.25 244.046875 150.25 C 246.921875 151.160156 247.332031 152.496094 246.929688 155.625 C 249.28125 156.09375 251.054688 158.035156 251.855469 161.253906 C 256.703125 162.265625 259.75 165.375 260.347656 168.75 C 263.699219 170.328125 267.933594 173.289062 272.296875 177.636719 C 279.632812 185.828125 275.039062 206.207031 262.429688 223.628906 C 266.636719 233.792969 258.582031 245.441406 249.695312 245.148438 C 247.257812 248.246094 239.058594 258.347656 234.390625 263.214844 " fill-opacity="1" fill-rule="evenodd"/><path fill="#1c2247" d="M 60.511719 179.398438 C 60.511719 156.992188 86.089844 138.828125 117.640625 138.828125 C 149.191406 138.828125 174.769531 156.992188 174.769531 179.398438 C 174.769531 201.808594 149.191406 219.972656 117.640625 219.972656 C 86.089844 219.972656 60.511719 201.808594 60.511719 179.398438 " fill-opacity="1" fill-rule="nonzero"/><path fill="#1c2247" d="M 110.492188 141.351562 L 105.722656 137.308594 C 100.894531 137.398438 95.003906 136.53125 88.050781 134.703125 C 85.5625 138.578125 89.019531 141.332031 98.410156 142.964844 L 91.980469 145.570312 L 86.21875 146.011719 L 74.136719 140.910156 C 71.515625 140.605469 70.683594 141.695312 71.640625 144.179688 L 80.671875 150.277344 L 79.347656 150.941406 L 70.425781 146.011719 C 68.042969 145.84375 66.878906 146.820312 66.933594 148.949219 L 75.128906 154.9375 L 74.796875 155.820312 L 67.15625 150.277344 C 63.714844 149.71875 62.292969 150.84375 62.890625 153.65625 L 70.753906 159.089844 C 70.3125 159.640625 64.550781 156.371094 64.550781 156.371094 C 61.050781 156.21875 59.996094 157.34375 61.390625 159.753906 L 71.417969 165.40625 L 110.492188 141.351562 " fill-opacity="1" fill-rule="evenodd"/><path fill="#ffffff" d="M 212.25 111.492188 L 211.230469 115.121094 L 210.78125 118.277344 C 209.027344 120.957031 208.425781 124.6875 208.972656 129.46875 C 207.84375 133.660156 207.480469 138.414062 207.890625 143.726562 C 208.34375 148.253906 214.195312 150.375 223.054688 151.398438 C 226.3125 151.875 231.398438 149.769531 238.304688 145.078125 C 231.058594 154.910156 222.210938 157.195312 211.769531 151.941406 C 210.300781 154.503906 209.609375 157.210938 209.695312 160.0625 C 212.417969 158.183594 215.214844 159.355469 218.089844 163.585938 C 226.414062 164.226562 233.726562 160.945312 240.019531 153.746094 L 243.898438 140.75 C 250.578125 148.820312 259.941406 120.164062 246.851562 130.550781 L 243.691406 129.183594 L 242.875 124.234375 L 244.582031 120.753906 C 230.453125 110.320312 217.714844 109.1875 212.25 111.492188 " fill-opacity="1" fill-rule="evenodd"/><path fill="#ffffff" d="M 251.253906 125.039062 C 239.972656 110.976562 222.859375 107.234375 212.332031 109.125 C 212.980469 106.695312 214.527344 103.941406 216.972656 100.867188 C 232.5 99.046875 244.300781 104.617188 252.371094 117.574219 L 251.253906 125.039062 " fill-opacity="1" fill-rule="evenodd"/><path fill="#ffffff" d="M 214.464844 101.097656 C 211.765625 102.546875 210 105.667969 209.175781 110.460938 C 208.195312 111.714844 207.746094 113.03125 207.835938 114.414062 C 202.175781 111.316406 198.902344 107.40625 198.019531 102.691406 C 200.371094 105.832031 204.109375 111.710938 207.039062 109.578125 C 192.699219 99.191406 196.652344 79.441406 210.199219 79.898438 L 209.289062 84.195312 C 219.074219 71.886719 230.316406 68.347656 243.007812 73.582031 L 239.082031 76.738281 C 263.839844 69.207031 275.394531 91.28125 273.601562 101.210938 L 272.574219 103.148438 C 281.972656 100.128906 287.570312 117.121094 267.964844 134.847656 C 269.871094 135.359375 272.269531 134.191406 275.164062 131.347656 C 274.238281 149.589844 264.3125 154.324219 245.402344 145.546875 L 245.941406 143.640625 C 246.265625 144.773438 248.941406 145.636719 253.964844 146.230469 L 249.097656 143.074219 C 255.335938 139.28125 256.671875 131 254.875 128.191406 L 255.21875 124.234375 C 257.125 126.101562 260.878906 126.59375 266.484375 125.714844 C 258.046875 124.53125 254.289062 122.160156 255.21875 118.601562 C 257.441406 119.996094 260.777344 119.273438 265.234375 116.433594 C 258.730469 117.636719 255.199219 117.53125 254.648438 116.125 C 251.757812 112.195312 248.75 108.886719 245.628906 106.191406 C 248.90625 106.226562 252.246094 105.464844 255.640625 103.914062 C 243.273438 103.832031 235.039062 102.257812 230.941406 99.191406 C 229.847656 95.578125 231.6875 90.273438 236.464844 83.285156 C 231.164062 87.398438 228.5 92.589844 228.46875 98.851562 L 217.851562 98.851562 C 215.441406 96.867188 214.84375 92.957031 216.0625 87.128906 C 212.402344 93.460938 212.402344 96.210938 214.464844 101.097656 " fill-opacity="1" fill-rule="evenodd"/><path fill="#1c2247" d="M 221.074219 118.070312 L 218.914062 116.53125 C 216.597656 115.820312 214.824219 115.511719 213.597656 115.605469 L 213.289062 117.6875 L 215.941406 120.648438 L 218.609375 120.535156 L 218.300781 122.304688 L 221.074219 118.070312 " fill-opacity="1" fill-rule="evenodd"/><path fill="#1c2247" d="M 227.082031 118.761719 L 226.464844 120.691406 C 226.878906 121.65625 228.113281 123.210938 229.957031 124.660156 L 235.09375 124.078125 L 235.9375 124.539062 L 237.097656 124.234375 L 234.785156 120.84375 C 230.84375 119.515625 228.277344 118.820312 227.082031 118.761719 " fill-opacity="1" fill-rule="evenodd"/><path fill="#1c2247" d="M 220.539062 128.449219 C 218.359375 128.683594 217.523438 127.980469 216.296875 127.234375 L 214.964844 130.394531 L 216.296875 130.355469 L 217.035156 130.628906 L 218.085938 132.191406 L 219.101562 131.136719 C 220.039062 131.449219 221.519531 133.128906 224.207031 132.660156 C 222.34375 132.121094 221.382812 130.042969 220.539062 128.449219 " fill-opacity="1" fill-rule="evenodd"/><path fill="#1c2247" d="M 225.464844 138.164062 L 219.914062 135.621094 L 217.683594 135.699219 L 216.140625 134.3125 C 214.21875 134.113281 213.050781 134.019531 211.890625 133.601562 L 211.289062 134.238281 L 213.828125 135.3125 C 214.929688 136.859375 217.757812 137.734375 222.304688 137.933594 L 225.582031 139.105469 L 225.464844 138.164062 " fill-opacity="1" fill-rule="evenodd"/><path fill="#1c2247" d="M 221.203125 141.417969 C 216.410156 140.871094 214.496094 139.621094 212.589844 138.097656 L 213.878906 141.183594 C 215.546875 141.128906 218.46875 141.996094 222.300781 144.109375 L 221.203125 141.417969 " fill-opacity="1" fill-rule="evenodd"/><path fill="#ffffff" d="M 243.425781 153.617188 C 234.882812 162.21875 226.039062 166.390625 216.90625 166.128906 C 216.042969 168.644531 214.871094 170.429688 213.390625 171.496094 C 218.308594 173.820312 233.128906 173.324219 257.851562 170.003906 C 257.484375 166.476562 255.300781 164.628906 251.292969 164.464844 C 246.359375 167.445312 241.253906 169.171875 235.976562 169.648438 C 241.09375 168.003906 245.640625 165.699219 249.625 162.734375 C 248.898438 159.769531 247.585938 158.359375 245.691406 158.5 C 241.339844 164.5 235.480469 168.136719 228.109375 169.410156 C 235.546875 166.753906 241.171875 162.34375 244.976562 156.175781 C 244.636719 154.164062 244.121094 153.308594 243.425781 153.617188 " fill-opacity="1" fill-rule="evenodd"/><path fill="#ffffff" d="M 205.878906 146.464844 C 203.386719 149.84375 204.0625 154.335938 207.90625 159.933594 C 204.894531 160.835938 203.207031 164.152344 202.839844 169.886719 C 198.183594 169.371094 192.101562 165.734375 184.605469 158.980469 C 185.277344 154.015625 187.800781 151.171875 192.171875 150.457031 C 191.921875 154.199219 194.582031 158.570312 200.160156 163.570312 C 196.324219 158.003906 194.617188 153.316406 195.035156 149.503906 C 195.644531 146.199219 199.261719 145.1875 205.878906 146.464844 " fill-opacity="1" fill-rule="evenodd"/><path fill="#ffffff" d="M 215 162.257812 C 208.042969 160.363281 204.765625 163.445312 205.164062 171.496094 L 207.070312 173.164062 C 206.167969 169.714844 206.40625 167.492188 207.789062 166.488281 C 207.144531 169.921875 207.640625 172.167969 209.277344 173.222656 L 211.839844 172.804688 C 214.230469 168.980469 215.441406 166.554688 215.476562 165.535156 L 215 162.257812 " fill-opacity="1" fill-rule="evenodd"/><path fill="#ffffff" d="M 203.316406 171.851562 C 192.464844 174.535156 188.652344 183.894531 191.875 199.921875 C 198.609375 190.804688 202.089844 179.964844 206.476562 176.976562 L 205.640625 174.535156 C 201.394531 176.148438 197.941406 180.121094 195.273438 186.453125 C 196.582031 180.0625 199.757812 175.550781 204.808594 172.925781 L 203.316406 171.851562 " fill-opacity="1" fill-rule="evenodd"/><path fill="#ffffff" d="M 207.429688 175.488281 C 205.554688 185.332031 206.171875 195.664062 209.277344 206.480469 C 217.964844 191.621094 219.179688 180.816406 212.914062 174.058594 L 210.230469 174.890625 C 211.128906 179.042969 211.25 182.441406 210.589844 185.082031 C 210.136719 180.351562 209.082031 177.152344 207.429688 175.488281 " fill-opacity="1" fill-rule="evenodd"/><path fill="#ffffff" d="M 182.367188 160.152344 C 177.355469 159.980469 171.929688 160.90625 168.847656 162.535156 C 175.894531 176.335938 175.855469 192.046875 163.910156 205.371094 C 164.011719 205.964844 163.910156 206.160156 164.605469 206.953125 C 172.300781 210.566406 188.066406 213.730469 207.3125 217.144531 C 209.453125 209.355469 214.609375 203.164062 220.972656 201.023438 C 236 198.746094 248.585938 205.90625 260.53125 220.066406 C 270.011719 205.121094 276.144531 188.6875 270.484375 180.015625 C 265.9375 175.320312 262.140625 172.636719 259.101562 171.972656 C 237.574219 175.570312 223.550781 176.425781 217.023438 174.535156 C 221.054688 185.949219 217.960938 198.457031 208.449219 210.125 C 205.675781 202.511719 203.828125 194.871094 203.503906 184.25 C 200.367188 191.152344 196.167969 198.054688 190.5625 206.207031 C 185.53125 190.421875 188.652344 177.285156 198.964844 170.421875 C 190.882812 168.667969 185.148438 164.496094 182.367188 160.152344 " fill-opacity="1" fill-rule="evenodd"/><path fill="#ffffff" d="M 225.546875 203.441406 C 216.035156 205.550781 210.890625 210.300781 210.113281 217.683594 C 225.414062 212.378906 239.339844 219.292969 251.890625 238.421875 C 251.207031 228.484375 245.625 220.796875 235.144531 215.359375 C 244.574219 216.128906 253.78125 221.183594 255.714844 236.164062 C 259.570312 232.964844 260 231.441406 259.5625 225.902344 C 253.34375 214.261719 239.304688 204.058594 225.546875 203.441406 " fill-opacity="1" fill-rule="evenodd"/><path fill="#ffffff" d="M 247.125 239.53125 C 234.863281 224.53125 224.195312 216.625 211.933594 220.105469 C 218.210938 223.03125 222.730469 226.4375 225.496094 230.332031 C 207.796875 220.960938 184.246094 217.214844 164.183594 209.148438 L 151.546875 196.511719 L 138.542969 194.277344 L 123.492188 197.253906 C 123.199219 199.972656 128.148438 200.839844 138.347656 199.855469 C 141.226562 200.199219 141.847656 201.933594 140.210938 205.0625 L 132.03125 209.332031 L 119.960938 210.628906 L 107.328125 210.628906 C 105.621094 212.925781 107.042969 214.476562 111.597656 215.28125 L 118.445312 215.742188 L 131.105469 214.910156 C 132.320312 215.152344 132.628906 215.585938 132.03125 216.207031 L 121.589844 217.84375 L 116.988281 217.511719 C 117.550781 218.878906 118.847656 219.742188 120.886719 220.105469 L 125.660156 220.851562 L 134.261719 219.550781 C 135.726562 219.722656 136.222656 220.09375 135.757812 220.671875 L 126.71875 222.488281 C 126.902344 223.871094 128.253906 224.648438 131.660156 225.128906 L 138.164062 224.015625 C 139.5 224.160156 139.933594 224.46875 139.46875 224.941406 L 134.632812 225.683594 C 134.628906 226.546875 135.933594 227.042969 138.542969 227.175781 L 157.496094 224.941406 C 184.058594 236.464844 200.964844 253.371094 227.726562 259.5 C 233.933594 255.757812 239.339844 250.53125 247.125 239.53125 " fill-opacity="1" fill-rule="evenodd"/><path fill="#ffffff" d="M 151.871094 229.378906 L 149.617188 254.621094 C 169.664062 267.054688 192.71875 268.898438 227.914062 262.660156 C 201.699219 257.40625 175.835938 239.46875 159.347656 228.097656 L 151.871094 229.378906 " fill-opacity="1" fill-rule="evenodd"/><path fill="#1c2247" d="M 245.371094 177.003906 C 234.425781 180.808594 226.253906 189.539062 220.855469 203.199219 L 225.863281 202.644531 C 229.378906 194.3125 235.882812 185.769531 245.371094 177.003906 " fill-opacity="1" fill-rule="evenodd"/><path fill="#ffffff" d="M 117.519531 142 C 148.242188 142 170.824219 160.3125 170.824219 179.398438 C 170.824219 187.675781 166.601562 195.65625 159.316406 202.046875 L 152.3125 195.042969 L 138.523438 192.671875 L 122.046875 195.929688 L 121.921875 197.082031 C 121.613281 199.921875 124.285156 201.070312 126.714844 201.496094 C 129.378906 201.964844 133.285156 201.925781 138.328125 201.445312 C 139.4375 201.585938 140.050781 201.78125 139.027344 203.898438 L 131.5625 207.792969 L 119.878906 209.050781 L 106.53125 209.050781 L 106.058594 209.6875 C 104.972656 211.148438 104.511719 213.015625 105.953125 214.582031 C 106.179688 214.832031 106.453125 215.058594 106.757812 215.265625 C 81.757812 211.710938 64.460938 196.152344 64.460938 179.398438 C 64.460938 160.3125 86.800781 142 117.519531 142 " fill-opacity="1" fill-rule="nonzero"/><path fill="#1c2247" d="M 140.617188 144.960938 L 117.914062 171.21875 L 144.167969 146.148438 Z M 140.617188 144.960938 " fill-opacity="1" fill-rule="evenodd"/><path fill="#1c2247" d="M 107.054688 141.804688 L 116.730469 171.414062 L 104.292969 141.804688 Z M 107.054688 141.804688 " fill-opacity="1" fill-rule="evenodd"/><path fill="#1c2247" d="M 116.730469 172.996094 L 75.074219 155.621094 L 73.101562 157.597656 Z M 116.730469 172.996094 " fill-opacity="1" fill-rule="evenodd"/><path fill="#1c2247" d="M 115.941406 173.589844 L 77.640625 203.992188 L 81.589844 206.953125 Z M 115.941406 173.589844 " fill-opacity="1" fill-rule="evenodd"/><path fill="#1c2247" d="M 117.125 172.996094 L 116.730469 210.109375 L 119.691406 209.714844 Z M 117.125 172.996094 " fill-opacity="1" fill-rule="evenodd"/><path fill="#1c2247" d="M 167.859375 166.480469 L 116.335938 172.996094 L 169.441406 169.246094 Z M 167.859375 166.480469 " fill-opacity="1" fill-rule="evenodd"/><path fill="#1c2247" d="M 167.464844 194.117188 L 117.519531 173.390625 L 165.886719 196.488281 Z M 167.464844 194.117188 " fill-opacity="1" fill-rule="evenodd"/><path fill="#1c2247" d="M 116.925781 173.390625 L 63.425781 180.496094 L 62.835938 183.851562 Z M 116.925781 173.390625 " fill-opacity="1" fill-rule="evenodd"/><path fill="#1c2247" d="M 72.113281 168.304688 C 72.113281 168.125 72.128906 167.945312 72.160156 167.769531 C 72.945312 169.164062 74.707031 170.132812 76.753906 170.132812 C 79.304688 170.132812 81.414062 168.625 81.742188 166.671875 C 82.023438 167.171875 82.183594 167.722656 82.183594 168.304688 C 82.183594 170.515625 79.929688 172.304688 77.148438 172.304688 C 74.367188 172.304688 72.113281 170.515625 72.113281 168.304688 " fill-opacity="1" fill-rule="nonzero"/><path fill="#1c2247" d="M 92.25 153.894531 C 92.25 151.6875 94.503906 149.898438 97.285156 149.898438 C 100.0625 149.898438 102.316406 151.6875 102.316406 153.894531 C 102.316406 156.101562 100.0625 157.894531 97.285156 157.894531 C 94.503906 157.894531 92.25 156.101562 92.25 153.894531 Z M 93.8125 154.105469 C 93.8125 155.746094 95.488281 157.070312 97.546875 157.070312 C 99.613281 157.070312 101.28125 155.746094 101.28125 154.105469 C 101.28125 152.46875 99.613281 151.140625 97.546875 151.140625 C 95.488281 151.140625 93.8125 152.46875 93.8125 154.105469 " fill-opacity="1" fill-rule="nonzero"/><path fill="#1c2247" d="M 91.855469 180.546875 C 91.855469 180.363281 91.871094 180.1875 91.898438 180.011719 C 92.6875 181.402344 94.449219 182.371094 96.492188 182.371094 C 99.046875 182.371094 101.152344 180.863281 101.484375 178.910156 C 101.765625 179.410156 101.921875 179.964844 101.921875 180.546875 C 101.921875 182.753906 99.671875 184.542969 96.890625 184.542969 C 94.109375 184.542969 91.855469 182.753906 91.855469 180.546875 " fill-opacity="1" fill-rule="nonzero"/><path fill="#1c2247" d="M 74.285156 189.429688 C 74.285156 189.25 74.300781 189.070312 74.328125 188.894531 C 75.117188 190.289062 76.878906 191.257812 78.925781 191.257812 C 81.476562 191.257812 83.585938 189.75 83.914062 187.792969 C 84.195312 188.292969 84.351562 188.847656 84.351562 189.429688 C 84.351562 191.636719 82.097656 193.429688 79.320312 193.429688 C 76.539062 193.429688 74.285156 191.636719 74.285156 189.429688 " fill-opacity="1" fill-rule="nonzero"/><path fill="#1c2247" d="M 102.515625 203.050781 C 102.515625 202.871094 102.53125 202.691406 102.5625 202.515625 C 103.347656 203.910156 105.109375 204.878906 107.15625 204.878906 C 109.707031 204.878906 111.816406 203.371094 112.144531 201.417969 C 112.425781 201.914062 112.585938 202.46875 112.585938 203.050781 C 112.585938 205.261719 110.332031 207.050781 107.550781 207.050781 C 104.769531 207.050781 102.515625 205.261719 102.515625 203.050781 " fill-opacity="1" fill-rule="nonzero"/><path fill="#1c2247" d="M 141.40625 177.585938 C 141.40625 177.402344 141.421875 177.226562 141.453125 177.050781 C 142.238281 178.441406 144 179.414062 146.046875 179.414062 C 148.597656 179.414062 150.707031 177.902344 151.035156 175.949219 C 151.316406 176.449219 151.476562 177.003906 151.476562 177.585938 C 151.476562 179.792969 149.222656 181.582031 146.441406 181.582031 C 143.660156 181.582031 141.40625 179.792969 141.40625 177.585938 " fill-opacity="1" fill-rule="nonzero"/><path fill="#1c2247" d="M 128.179688 188.640625 C 128.179688 188.460938 128.195312 188.28125 128.222656 188.105469 C 129.011719 189.496094 130.773438 190.46875 132.820312 190.46875 C 135.371094 190.46875 137.480469 188.960938 137.808594 187.003906 C 138.089844 187.503906 138.25 188.058594 138.25 188.640625 C 138.25 190.847656 135.996094 192.636719 133.214844 192.636719 C 130.433594 192.636719 128.179688 190.847656 128.179688 188.640625 " fill-opacity="1" fill-rule="nonzero"/><path fill="#1c2247" d="M 141.605469 160.804688 C 141.605469 160.621094 141.617188 160.445312 141.648438 160.269531 C 142.4375 161.660156 144.199219 162.632812 146.242188 162.632812 C 148.796875 162.632812 150.90625 161.121094 151.234375 159.167969 C 151.515625 159.667969 151.671875 160.222656 151.671875 160.804688 C 151.671875 163.011719 149.417969 164.800781 146.636719 164.800781 C 143.859375 164.800781 141.605469 163.011719 141.605469 160.804688 " fill-opacity="1" fill-rule="nonzero"/><path fill="#1c2247" d="M 91.703125 186.867188 C 90.117188 183.886719 86.777344 182.609375 81.6875 183.035156 L 82.765625 181.957031 C 87.328125 180.839844 90.484375 181.871094 92.238281 185.058594 L 91.703125 186.867188 " fill-opacity="1" fill-rule="evenodd"/><path fill="#1c2247" d="M 85.25 165.296875 C 87.332031 167.574219 87.960938 169.859375 87.136719 172.152344 L 89.21875 171.34375 C 90.050781 167.957031 88.726562 165.9375 85.25 165.296875 " fill-opacity="1" fill-rule="evenodd"/><path fill="#1c2247" d="M 76.042969 175.851562 L 70.398438 172.691406 L 69.859375 175.042969 Z M 76.042969 175.851562 " fill-opacity="1" fill-rule="evenodd"/><path fill="#1c2247" d="M 79.472656 188.484375 L 80.011719 190.566406 L 78.527344 190.566406 Z M 79.472656 188.484375 " fill-opacity="1" fill-rule="evenodd"/><path fill="#1c2247" d="M 78.332031 167.242188 L 80.820312 168.1875 L 79.742188 169.261719 Z M 78.332031 167.242188 " fill-opacity="1" fill-rule="evenodd"/><path fill="#1c2247" d="M 76.449219 167.78125 L 74.636719 169.460938 L 73.964844 168.785156 Z M 76.449219 167.78125 " fill-opacity="1" fill-rule="evenodd"/><path fill="#1c2247" d="M 99.769531 170 L 95.265625 170.671875 L 96.074219 172.554688 L 100.171875 171.34375 L 104.875 172.019531 L 103.601562 170.132812 L 99.769531 170 " fill-opacity="1" fill-rule="evenodd"/><path fill="#1c2247" d="M 111.328125 163.621094 C 111.328125 163.621094 110.191406 162.136719 109.113281 162.675781 C 108.035156 163.214844 107.03125 163.949219 106.355469 164.085938 C 105.683594 164.21875 101.851562 162.40625 101.851562 162.40625 L 102.253906 161.058594 C 102.253906 161.058594 105.746094 163.351562 106.957031 162.675781 C 108.167969 162.003906 108.644531 161.195312 109.515625 161.328125 C 110.386719 161.464844 111.328125 163.214844 111.328125 163.214844 L 111.328125 163.621094 " fill-opacity="1" fill-rule="evenodd"/><path fill="#1c2247" d="M 88.273438 152.257812 L 82.359375 154.472656 L 84.109375 155.820312 Z M 88.273438 152.257812 " fill-opacity="1" fill-rule="evenodd"/><path fill="#1c2247" d="M 107.628906 195.070312 C 107.496094 194.667969 104.949219 193.457031 103.46875 193.722656 C 101.988281 193.992188 99.5 196.480469 98.691406 196.75 C 97.882812 197.015625 95.265625 195.671875 95.265625 195.671875 L 96.34375 194.128906 C 96.34375 194.128906 97.417969 195.476562 99.230469 194.398438 C 101.042969 193.320312 101.519531 191.914062 102.796875 191.914062 C 104.066406 191.914062 105.011719 191.449219 105.816406 192.046875 C 106.625 192.648438 107.765625 195.476562 107.628906 195.070312 " fill-opacity="1" fill-rule="evenodd"/><path fill="#1c2247" d="M 113.675781 180.148438 L 108.574219 183.710938 L 113.675781 186.195312 Z M 113.675781 180.148438 " fill-opacity="1" fill-rule="evenodd"/><path fill="#1c2247" d="M 96.476562 203.066406 L 88.8125 203.46875 L 90.832031 205.6875 Z M 96.476562 203.066406 " fill-opacity="1" fill-rule="evenodd"/><path fill="#1c2247" d="M 126.582031 188.484375 C 125.847656 188.617188 121.070312 189.085938 121.070312 189.085938 L 122.148438 192.378906 L 126.582031 188.484375 " fill-opacity="1" fill-rule="evenodd"/><path fill="#1c2247" d="M 122.886719 178.066406 C 122.886719 178.066406 120.9375 178.800781 120.398438 179.878906 C 119.859375 180.953125 120.804688 183.710938 120.398438 184.519531 C 119.996094 185.328125 118.992188 186.867188 118.992188 186.867188 C 118.992188 186.867188 121.28125 186.269531 122.015625 184.921875 C 122.75 183.574219 122.285156 182.03125 122.148438 181.359375 C 122.015625 180.683594 121.414062 180.414062 122.148438 180.011719 C 122.886719 179.609375 122.886719 178.066406 122.886719 178.066406 " fill-opacity="1" fill-rule="evenodd"/><path fill="#1c2247" d="M 119.296875 158.4375 C 119.296875 156.226562 121.550781 154.4375 124.332031 154.4375 C 127.109375 154.4375 129.363281 156.226562 129.363281 158.4375 C 129.363281 160.644531 127.109375 162.433594 124.332031 162.433594 C 121.550781 162.433594 119.296875 160.644531 119.296875 158.4375 Z M 120.859375 158.644531 C 120.859375 160.285156 122.53125 161.613281 124.59375 161.613281 C 126.660156 161.613281 128.328125 160.285156 128.328125 158.644531 C 128.328125 157.007812 126.660156 155.679688 124.59375 155.679688 C 122.53125 155.679688 120.859375 157.007812 120.859375 158.644531 " fill-opacity="1" fill-rule="nonzero"/><path fill="#1c2247" d="M 111.992188 147.777344 C 111.992188 145.566406 114.246094 143.777344 117.027344 143.777344 C 119.804688 143.777344 122.058594 145.566406 122.058594 147.777344 C 122.058594 149.984375 119.804688 151.773438 117.027344 151.773438 C 114.246094 151.773438 111.992188 149.984375 111.992188 147.777344 Z M 113.554688 147.984375 C 113.554688 149.625 115.230469 150.953125 117.289062 150.953125 C 119.355469 150.953125 121.023438 149.625 121.023438 147.984375 C 121.023438 146.347656 119.355469 145.019531 117.289062 145.019531 C 115.230469 145.019531 113.554688 146.347656 113.554688 147.984375 " fill-opacity="1" fill-rule="nonzero"/><path fill="#1c2247" d="M 156.015625 186.46875 C 156.015625 184.261719 158.269531 182.472656 161.050781 182.472656 C 163.832031 182.472656 166.085938 184.261719 166.085938 186.46875 C 166.085938 188.675781 163.832031 190.46875 161.050781 190.46875 C 158.269531 190.46875 156.015625 188.675781 156.015625 186.46875 Z M 157.582031 186.679688 C 157.582031 188.316406 159.25 189.644531 161.316406 189.644531 C 163.375 189.644531 165.050781 188.316406 165.050781 186.679688 C 165.050781 185.042969 163.375 183.714844 161.316406 183.714844 C 159.25 183.714844 157.582031 185.042969 157.582031 186.679688 " fill-opacity="1" fill-rule="nonzero"/><path fill="#1c2247" d="M 105.871094 190.417969 C 105.871094 188.210938 108.125 186.417969 110.90625 186.417969 C 113.6875 186.417969 115.941406 188.210938 115.941406 190.417969 C 115.941406 192.625 113.6875 194.417969 110.90625 194.417969 C 108.125 194.417969 105.871094 192.625 105.871094 190.417969 Z M 107.4375 190.628906 C 107.4375 192.265625 109.109375 193.59375 111.171875 193.59375 C 113.234375 193.59375 114.90625 192.265625 114.90625 190.628906 C 114.90625 188.992188 113.234375 187.664062 111.171875 187.664062 C 109.109375 187.664062 107.4375 188.992188 107.4375 190.628906 " fill-opacity="1" fill-rule="nonzero"/><path fill="#1c2247" d="M 136.867188 163.914062 L 130.746094 165.296875 L 131.140625 168.652344 L 138.839844 167.664062 L 136.867188 163.914062 " fill-opacity="1" fill-rule="evenodd"/><path fill="#1c2247" d="M 138.445312 174.574219 L 132.523438 177.535156 L 136.667969 180.496094 L 138.839844 178.324219 L 138.445312 174.574219 " fill-opacity="1" fill-rule="evenodd"/><path fill="#1c2247" d="M 164.308594 175.757812 L 157.398438 176.746094 L 163.320312 179.117188 Z M 164.308594 175.757812 " fill-opacity="1" fill-rule="evenodd"/><path fill="#1c2247" d="M 161.542969 162.925781 C 160.753906 163.519531 159.175781 161.546875 156.804688 161.546875 C 154.4375 161.546875 154.238281 163.714844 152.660156 164.113281 C 151.082031 164.507812 150.09375 164.703125 150.09375 164.703125 C 150.09375 164.703125 152.855469 166.480469 154.4375 165.691406 C 156.015625 164.902344 156.210938 163.320312 157.199219 163.519531 C 158.1875 163.714844 161.542969 162.925781 161.542969 162.925781 " fill-opacity="1" fill-rule="evenodd"/><path fill="#1c2247" d="M 130.550781 146.148438 L 124.625 149.304688 L 128.574219 152.070312 L 132.71875 147.726562 L 130.550781 146.148438 " fill-opacity="1" fill-rule="evenodd"/><path fill="#1c2247" d="M 147.332031 188.789062 L 141.800781 191.554688 L 146.738281 192.539062 Z M 147.332031 188.789062 " fill-opacity="1" fill-rule="evenodd"/><path fill="#1c2247" d="M 126.402344 203.003906 C 125.414062 203.003906 121.46875 203.59375 121.46875 203.59375 L 122.257812 206.554688 L 126.996094 205.570312 L 126.402344 203.003906 " fill-opacity="1" fill-rule="evenodd"/><path fill="#1c2247" d="M 102.515625 209.121094 L 98.960938 205.371094 L 95.410156 208.136719 L 99.355469 210.503906 L 102.515625 209.121094 " fill-opacity="1" fill-rule="evenodd"/><path fill="#1c2247" d="M 112.386719 171.414062 C 112.386719 170.433594 113.535156 169.640625 114.953125 169.640625 C 116.371094 169.640625 117.519531 170.433594 117.519531 171.414062 C 117.519531 172.398438 116.371094 173.195312 114.953125 173.195312 C 113.535156 173.195312 112.386719 172.398438 112.386719 171.414062 " fill-opacity="1" fill-rule="nonzero"/><path fill="#b8b8ca" d="M 66.582031 197.351562 C 75.636719 210.914062 94.96875 220.339844 117.429688 220.5625 L 121.660156 223.511719 C 121.109375 223.519531 120.5625 223.527344 120.007812 223.527344 C 95.597656 223.527344 74.761719 212.652344 66.582031 197.351562 " fill-opacity="1" fill-rule="nonzero"/><path fill="#b8b8ca" d="M 144.761719 258.476562 C 152.492188 267.722656 168.679688 273.117188 193.328125 274.664062 C 168.257812 275.703125 150.753906 272.019531 140.8125 263.609375 L 144.761719 258.476562 " fill-opacity="1" fill-rule="evenodd"/><path fill="#b8b8ca" d="M 109.167969 214.683594 L 131.136719 213.605469 L 159.082031 219.464844 C 187.339844 235.523438 209.425781 244.988281 225.335938 247.859375 C 225.335938 247.859375 235.605469 238.59375 241.394531 232.941406 C 243.273438 234.949219 245.179688 237.152344 247.125 239.53125 C 239.339844 250.53125 233.933594 255.757812 227.726562 259.5 C 200.964844 253.371094 184.058594 236.464844 157.496094 224.941406 L 138.542969 227.175781 C 135.933594 227.042969 134.628906 226.546875 134.632812 225.683594 L 139.46875 224.941406 C 139.933594 224.46875 139.5 224.160156 138.164062 224.015625 L 131.660156 225.128906 C 128.253906 224.648438 126.902344 223.871094 126.71875 222.488281 L 135.757812 220.671875 C 136.222656 220.09375 135.726562 219.722656 134.261719 219.550781 L 125.660156 220.851562 L 120.886719 220.105469 C 118.847656 219.742188 117.550781 218.878906 116.988281 217.511719 L 121.589844 217.84375 L 132.03125 216.207031 C 132.628906 215.585938 132.320312 215.152344 131.105469 214.910156 L 118.445312 215.742188 L 111.597656 215.28125 C 110.652344 215.113281 109.84375 214.914062 109.167969 214.683594 " fill-opacity="1" fill-rule="nonzero"/><path fill="#b8b8ca" d="M 151.871094 229.378906 L 149.617188 254.621094 C 169.664062 267.054688 192.71875 268.898438 227.914062 262.660156 C 201.699219 257.40625 175.835938 239.46875 159.347656 228.097656 L 151.871094 229.378906 " fill-opacity="1" fill-rule="evenodd"/><path fill="#b8b8ca" d="M 244 228.203125 C 244.890625 226.78125 245.632812 225.367188 246.226562 223.957031 C 249.621094 228.085938 251.511719 232.90625 251.890625 238.421875 C 249.316406 234.503906 246.6875 231.09375 244 228.203125 Z M 247.535156 219.851562 C 248.089844 217.296875 248.152344 214.757812 247.71875 212.230469 C 252.699219 216.074219 256.867188 220.855469 259.5625 225.902344 C 260 231.441406 259.570312 232.964844 255.714844 236.164062 C 254.6875 228.207031 251.609375 223.050781 247.535156 219.851562 " fill-opacity="1" fill-rule="nonzero"/><path fill="#b8b8ca" d="M 247.136719 207.5 C 252.882812 202.867188 268.832031 195.800781 261.8125 172.996094 C 264.308594 174.285156 267.199219 176.625 270.484375 180.015625 C 276.144531 188.6875 270.011719 205.121094 260.53125 220.066406 C 256.179688 214.910156 251.746094 210.683594 247.136719 207.5 " fill-opacity="1" fill-rule="nonzero"/><path fill="#b8b8ca" d="M 215.457031 92.886719 C 216.464844 94.132812 218.503906 96.179688 221.28125 96.640625 C 223.960938 97.085938 227.332031 94.777344 229.308594 93.160156 C 228.757812 94.945312 228.476562 96.84375 228.46875 98.851562 L 217.851562 98.851562 C 216.347656 97.613281 215.550781 95.625 215.457031 92.886719 Z M 231.417969 92.746094 C 232.210938 94.457031 234.042969 97.746094 236.828125 98.894531 C 240.660156 100.472656 254.632812 103.851562 254.632812 103.851562 C 242.804688 103.738281 234.921875 102.171875 230.941406 99.191406 C 230.414062 97.441406 230.570312 95.292969 231.417969 92.746094 Z M 254.039062 104.589844 C 253.160156 105.742188 251.667969 107.964844 252.15625 109.261719 C 252.769531 110.902344 260.273438 116.078125 261.632812 117.007812 C 257.417969 117.539062 255.085938 117.246094 254.648438 116.125 C 251.757812 112.195312 248.75 108.886719 245.628906 106.191406 C 248.390625 106.21875 251.191406 105.6875 254.039062 104.589844 Z M 260.570312 118.777344 C 259.785156 119.886719 258.992188 121.261719 259.367188 121.882812 C 259.832031 122.660156 261.6875 124.183594 262.796875 125.054688 C 256.964844 123.742188 254.4375 121.589844 255.21875 118.601562 C 256.582031 119.457031 258.367188 119.515625 260.570312 118.777344 Z M 263.25 126.085938 C 262.109375 127.179688 258.875 130.433594 258.691406 132.472656 C 258.464844 134.953125 260.492188 138.109375 260.71875 140.585938 C 260.898438 142.554688 268.902344 141.824219 272.523438 143.023438 C 268.332031 151.152344 259.292969 151.992188 245.402344 145.546875 L 245.941406 143.640625 C 246.265625 144.773438 248.941406 145.636719 253.964844 146.230469 L 249.097656 143.074219 C 255.335938 139.28125 256.671875 131 254.875 128.191406 L 255.21875 124.234375 C 256.730469 125.714844 259.410156 126.332031 263.25 126.085938 Z M 200.847656 108.804688 L 200.351562 105.839844 C 202.464844 108.558594 204.957031 111.097656 207.039062 109.578125 C 205.71875 108.621094 204.550781 107.585938 203.535156 106.492188 C 204.441406 106.699219 205.195312 106.363281 205.28125 104.753906 C 205.503906 100.472656 204.601562 96.867188 206.632812 95.515625 C 208.109375 94.527344 211.746094 93.0625 213.605469 92.34375 C 212.621094 95.464844 213.070312 97.792969 214.464844 101.097656 C 211.765625 102.546875 210 105.667969 209.175781 110.460938 C 208.195312 111.714844 207.746094 113.03125 207.835938 114.414062 C 204.835938 112.769531 202.503906 110.902344 200.847656 108.804688 " fill-opacity="1" fill-rule="nonzero"/><path fill="#b8b8ca" d="M 251.253906 125.039062 C 249.746094 123.160156 248.136719 121.464844 246.449219 119.941406 L 246.734375 118.023438 C 239.65625 106.65625 229.703125 100.976562 216.882812 100.984375 L 216.972656 100.867188 C 232.5 99.046875 244.300781 104.617188 252.371094 117.574219 L 251.253906 125.039062 " fill-opacity="1" fill-rule="evenodd"/><path fill="#b8b8ca" d="M 242.898438 171.792969 C 245.210938 170.019531 246.589844 168.324219 247.039062 166.703125 C 248.472656 166.058594 249.886719 165.308594 251.292969 164.464844 C 255.300781 164.628906 257.484375 166.476562 257.851562 170.003906 C 252.382812 170.738281 247.398438 171.335938 242.898438 171.792969 Z M 246.285156 164.984375 L 241.660156 163.003906 C 243.125 161.691406 244.46875 160.191406 245.691406 158.5 C 247.585938 158.359375 248.898438 159.769531 249.625 162.734375 C 248.550781 163.53125 247.441406 164.285156 246.285156 164.984375 Z M 241.390625 160.902344 C 241.851562 158.8125 241.667969 157.203125 240.839844 156.074219 C 241.707031 155.300781 242.566406 154.480469 243.425781 153.617188 C 244.121094 153.308594 244.636719 154.164062 244.976562 156.175781 C 243.921875 157.890625 242.726562 159.460938 241.390625 160.902344 " fill-opacity="1" fill-rule="nonzero"/><g clip-path="url(#2301d03486)"><g clip-path="url(#baebb9dcaf)"><path fill="#008037" d="M 18.125 173.4375 L 46.25 173.4375 L 46.25 201.5625 L 18.125 201.5625 Z M 18.125 173.4375 " fill-opacity="1" fill-rule="nonzero"/></g></g><g clip-path="url(#46a1affba8)"><g clip-path="url(#3cdfb21e18)"><path fill="#e81919" d="M 329.15625 173.4375 L 357.28125 173.4375 L 357.28125 201.5625 L 329.15625 201.5625 Z M 329.15625 173.4375 " fill-opacity="1" fill-rule="nonzero"/></g></g><g fill="#1c2247" fill-opacity="1"><g transform="translate(63.406156, 117.560319)"><g><path d="M 7.03125 -23.828125 C 7.207031 -24.066406 7.410156 -24.203125 7.640625 -24.234375 C 7.867188 -24.273438 8.097656 -24.21875 8.328125 -24.0625 L 13.390625 -20.46875 C 13.890625 -20.113281 13.957031 -19.679688 13.59375 -19.171875 L 2.046875 -2.890625 C 1.890625 -2.660156 1.695312 -2.519531 1.46875 -2.46875 C 1.238281 -2.425781 1.003906 -2.488281 0.765625 -2.65625 L -22.65625 -19.28125 C -22.914062 -19.457031 -23.054688 -19.660156 -23.078125 -19.890625 C -23.109375 -20.117188 -23.046875 -20.347656 -22.890625 -20.578125 L -18.625 -26.59375 C -18.457031 -26.820312 -18.257812 -26.960938 -18.03125 -27.015625 C -17.8125 -27.066406 -17.570312 -27.003906 -17.3125 -26.828125 L 0.296875 -14.328125 Z M 7.03125 -23.828125 "/></g></g></g><g fill="#1c2247" fill-opacity="1"><g transform="translate(83.050979, 90.854488)"><g><path d="M 22.890625 -21.15625 C 23.265625 -20.96875 23.484375 -20.71875 23.546875 -20.40625 C 23.617188 -20.101562 23.472656 -19.800781 23.109375 -19.5 L 17.5 -14.75 C 17.21875 -14.519531 16.894531 -14.394531 16.53125 -14.375 C 16.175781 -14.351562 15.84375 -14.4375 15.53125 -14.625 L 13.640625 -15.765625 L 6.515625 -9.734375 L 7.3125 -7.703125 C 7.4375 -7.398438 7.46875 -7.066406 7.40625 -6.703125 C 7.34375 -6.347656 7.15625 -6.039062 6.84375 -5.78125 L 1.234375 -1.046875 C 0.898438 -0.765625 0.582031 -0.664062 0.28125 -0.75 C -0.0195312 -0.832031 -0.238281 -1.09375 -0.375 -1.53125 L -9.234375 -31.390625 C -9.359375 -31.804688 -9.363281 -32.1875 -9.25 -32.53125 C -9.144531 -32.882812 -8.96875 -33.171875 -8.71875 -33.390625 L -7.0625 -34.796875 C -6.769531 -35.035156 -6.441406 -35.160156 -6.078125 -35.171875 C -5.710938 -35.191406 -5.367188 -35.113281 -5.046875 -34.9375 Z M 3.90625 -16.390625 L 7.53125 -19.453125 L 1.203125 -23.25 Z M 3.90625 -16.390625 "/></g></g></g><g fill="#1c2247" fill-opacity="1"><g transform="translate(113.845554, 66.376756)"><g><path d="M 13.71875 -24.828125 C 14.71875 -24.929688 15.703125 -24.828125 16.671875 -24.515625 C 17.640625 -24.210938 18.503906 -23.738281 19.265625 -23.09375 C 20.035156 -22.445312 20.632812 -21.664062 21.0625 -20.75 C 21.644531 -19.5 21.921875 -18.203125 21.890625 -16.859375 C 21.859375 -15.523438 21.554688 -14.226562 20.984375 -12.96875 C 20.410156 -11.707031 19.59375 -10.550781 18.53125 -9.5 C 17.46875 -8.445312 16.191406 -7.570312 14.703125 -6.875 L 3.21875 -1.5 C 2.957031 -1.382812 2.710938 -1.363281 2.484375 -1.4375 C 2.265625 -1.507812 2.09375 -1.675781 1.96875 -1.9375 L -10.1875 -27.96875 C -10.320312 -28.25 -10.34375 -28.492188 -10.25 -28.703125 C -10.15625 -28.921875 -9.976562 -29.085938 -9.71875 -29.203125 L 0.984375 -34.21875 C 2.347656 -34.84375 3.707031 -35.234375 5.0625 -35.390625 C 6.425781 -35.546875 7.71875 -35.476562 8.9375 -35.1875 C 10.164062 -34.894531 11.242188 -34.398438 12.171875 -33.703125 C 13.109375 -33.003906 13.832031 -32.109375 14.34375 -31.015625 C 14.664062 -30.328125 14.847656 -29.613281 14.890625 -28.875 C 14.941406 -28.132812 14.863281 -27.414062 14.65625 -26.71875 C 14.457031 -26.03125 14.144531 -25.398438 13.71875 -24.828125 Z M 6.984375 -26.03125 C 6.785156 -26.457031 6.441406 -26.738281 5.953125 -26.875 C 5.472656 -27.007812 4.984375 -26.960938 4.484375 -26.734375 L 1.3125 -25.234375 L 2.78125 -22.0625 L 5.953125 -23.5625 C 6.453125 -23.789062 6.800781 -24.144531 7 -24.625 C 7.195312 -25.113281 7.191406 -25.582031 6.984375 -26.03125 Z M 11.03125 -14.28125 C 11.46875 -14.476562 11.820312 -14.75 12.09375 -15.09375 C 12.375 -15.445312 12.546875 -15.820312 12.609375 -16.21875 C 12.679688 -16.625 12.628906 -17.015625 12.453125 -17.390625 C 12.242188 -17.828125 11.953125 -18.171875 11.578125 -18.421875 C 11.203125 -18.679688 10.785156 -18.832031 10.328125 -18.875 C 9.878906 -18.914062 9.4375 -18.835938 9 -18.640625 L 5.21875 -16.859375 L 7.25 -12.5 Z M 11.03125 -14.28125 "/></g></g></g><g fill="#1c2247" fill-opacity="1"><g transform="translate(147.564424, 51.690979)"><g><path d="M 23.546875 -13.1875 C 24.078125 -13.289062 24.53125 -13.21875 24.90625 -12.96875 C 25.28125 -12.726562 25.515625 -12.359375 25.609375 -11.859375 L 26.640625 -6.171875 C 26.710938 -5.796875 26.65625 -5.472656 26.46875 -5.203125 C 26.28125 -4.929688 26 -4.757812 25.625 -4.6875 L 3.859375 -0.703125 C 3.453125 -0.628906 3.113281 -0.6875 2.84375 -0.875 C 2.570312 -1.0625 2.398438 -1.34375 2.328125 -1.71875 L -2.703125 -29.25 C -2.773438 -29.664062 -2.71875 -30.003906 -2.53125 -30.265625 C -2.34375 -30.535156 -2.046875 -30.707031 -1.640625 -30.78125 L 19.71875 -34.6875 C 20.132812 -34.769531 20.472656 -34.710938 20.734375 -34.515625 C 21.003906 -34.328125 21.175781 -34.03125 21.25 -33.625 L 22.34375 -27.609375 C 22.425781 -27.191406 22.375 -26.847656 22.1875 -26.578125 C 22.007812 -26.316406 21.710938 -26.144531 21.296875 -26.0625 L 7.75 -23.59375 L 8.390625 -20.09375 L 18.109375 -21.875 C 18.578125 -21.957031 18.960938 -21.90625 19.265625 -21.71875 C 19.566406 -21.53125 19.757812 -21.210938 19.84375 -20.765625 L 20.578125 -16.75 C 20.648438 -16.332031 20.578125 -15.976562 20.359375 -15.6875 C 20.148438 -15.40625 19.8125 -15.222656 19.34375 -15.140625 L 9.625 -13.359375 L 10.09375 -10.734375 Z M 23.546875 -13.1875 "/></g></g></g><g fill="#1c2247" fill-opacity="1"><g transform="translate(184.142279, 46.193054)"><g><path d="M 23.953125 -6.546875 C 24.253906 -6.523438 24.476562 -6.425781 24.625 -6.25 C 24.78125 -6.070312 24.851562 -5.84375 24.84375 -5.5625 L 24.453125 0.625 C 24.410156 1.238281 24.078125 1.523438 23.453125 1.484375 L 3.546875 0.21875 C 3.265625 0.207031 3.039062 0.117188 2.875 -0.046875 C 2.71875 -0.222656 2.648438 -0.457031 2.671875 -0.75 L 4.484375 -29.40625 C 4.503906 -29.71875 4.601562 -29.945312 4.78125 -30.09375 C 4.957031 -30.238281 5.1875 -30.304688 5.46875 -30.296875 L 12.828125 -29.828125 C 13.109375 -29.804688 13.328125 -29.710938 13.484375 -29.546875 C 13.648438 -29.378906 13.722656 -29.140625 13.703125 -28.828125 L 12.328125 -7.28125 Z M 23.953125 -6.546875 "/></g></g></g><g fill="#1c2247" fill-opacity="1"><g transform="translate(217.313502, 49.202603)"><g><path d="M 24.828125 -0.875 C 25.117188 -0.78125 25.3125 -0.628906 25.40625 -0.421875 C 25.507812 -0.210938 25.523438 0.0234375 25.453125 0.296875 L 23.640625 6.234375 C 23.460938 6.816406 23.078125 7.015625 22.484375 6.828125 L 3.390625 1.03125 C 3.117188 0.945312 2.925781 0.800781 2.8125 0.59375 C 2.695312 0.394531 2.679688 0.160156 2.765625 -0.109375 L 11.109375 -27.59375 C 11.203125 -27.894531 11.351562 -28.097656 11.5625 -28.203125 C 11.769531 -28.304688 12.007812 -28.316406 12.28125 -28.234375 L 19.34375 -26.09375 C 19.613281 -26.007812 19.804688 -25.863281 19.921875 -25.65625 C 20.035156 -25.457031 20.046875 -25.207031 19.953125 -24.90625 L 13.6875 -4.25 Z M 24.828125 -0.875 "/></g></g></g><g fill="#1c2247" fill-opacity="1"><g transform="translate(248.864853, 59.382323)"><g><path d="M 27.3125 15.015625 C 27.257812 15.429688 27.09375 15.71875 26.8125 15.875 C 26.539062 16.03125 26.203125 15.988281 25.796875 15.75 L 19.53125 11.921875 C 19.21875 11.734375 18.992188 11.46875 18.859375 11.125 C 18.722656 10.789062 18.695312 10.453125 18.78125 10.109375 L 19.28125 7.953125 L 11.3125 3.09375 L 9.625 4.5 C 9.375 4.71875 9.066406 4.847656 8.703125 4.890625 C 8.347656 4.941406 7.992188 4.863281 7.640625 4.65625 L 1.390625 0.84375 C 1.015625 0.613281 0.816406 0.34375 0.796875 0.03125 C 0.785156 -0.28125 0.960938 -0.570312 1.328125 -0.84375 L 26.859375 -18.703125 C 27.210938 -18.941406 27.570312 -19.066406 27.9375 -19.078125 C 28.300781 -19.097656 28.628906 -19.019531 28.921875 -18.84375 L 30.78125 -17.71875 C 31.09375 -17.519531 31.3125 -17.242188 31.4375 -16.890625 C 31.570312 -16.546875 31.609375 -16.195312 31.546875 -15.84375 Z M 16.78125 -1.484375 L 20.828125 0.96875 L 22.421875 -6.203125 Z M 16.78125 -1.484375 "/></g></g></g><g fill="#1c2247" fill-opacity="1"><g transform="translate(281.867092, 81.69984)"><g><path d="M 19.984375 -19.0625 C 20.484375 -19.601562 21.0625 -19.96875 21.71875 -20.15625 C 22.382812 -20.34375 23.054688 -20.359375 23.734375 -20.203125 C 24.421875 -20.054688 25.035156 -19.722656 25.578125 -19.203125 C 26.148438 -18.671875 26.523438 -18.035156 26.703125 -17.296875 C 26.878906 -16.554688 26.859375 -15.789062 26.640625 -15 C 26.421875 -14.21875 26.003906 -13.5 25.390625 -12.84375 C 24.628906 -12.03125 23.875 -11.359375 23.125 -10.828125 C 22.375 -10.296875 21.582031 -9.863281 20.75 -9.53125 C 19.925781 -9.195312 19.003906 -8.898438 17.984375 -8.640625 C 17.742188 -8.578125 17.503906 -8.613281 17.265625 -8.75 C 17.035156 -8.882812 16.882812 -9.082031 16.8125 -9.34375 L 16.109375 -11.453125 C 16.035156 -11.671875 16.085938 -11.890625 16.265625 -12.109375 C 16.441406 -12.328125 16.679688 -12.484375 16.984375 -12.578125 C 17.347656 -12.679688 17.726562 -12.789062 18.125 -12.90625 C 18.519531 -13.019531 18.875 -13.132812 19.1875 -13.25 C 19.507812 -13.363281 19.722656 -13.476562 19.828125 -13.59375 C 19.898438 -13.664062 19.945312 -13.726562 19.96875 -13.78125 C 20 -13.832031 20.023438 -13.882812 20.046875 -13.9375 C 19.992188 -13.945312 19.941406 -13.972656 19.890625 -14.015625 C 19.847656 -14.054688 19.773438 -14.125 19.671875 -14.21875 C 19.265625 -14.601562 19 -15.078125 18.875 -15.640625 C 18.757812 -16.203125 18.796875 -16.785156 18.984375 -17.390625 C 19.171875 -17.992188 19.503906 -18.550781 19.984375 -19.0625 Z M 19.984375 -19.0625 "/></g></g></g><g fill="#1c2247" fill-opacity="1"><g transform="translate(296.134465, 95.102942)"><g><path d="M 8.125 12.234375 C 7.09375 10.804688 6.265625 9.304688 5.640625 7.734375 C 5.015625 6.160156 4.617188 4.609375 4.453125 3.078125 C 4.285156 1.554688 4.378906 0.160156 4.734375 -1.109375 C 4.816406 -1.429688 5.003906 -1.664062 5.296875 -1.8125 C 5.597656 -1.96875 5.960938 -2.007812 6.390625 -1.9375 L 12.578125 -0.953125 C 12.921875 -0.910156 13.1875 -0.738281 13.375 -0.4375 C 13.570312 -0.144531 13.664062 0.21875 13.65625 0.65625 C 13.625 1.757812 13.695312 2.847656 13.875 3.921875 C 14.0625 5.003906 14.445312 5.945312 15.03125 6.75 C 15.53125 7.445312 15.96875 7.894531 16.34375 8.09375 C 16.726562 8.289062 17.066406 8.285156 17.359375 8.078125 C 17.546875 7.941406 17.671875 7.773438 17.734375 7.578125 C 17.804688 7.390625 17.816406 7.113281 17.765625 6.75 C 17.722656 6.382812 17.609375 5.90625 17.421875 5.3125 C 17.242188 4.71875 16.992188 3.9375 16.671875 2.96875 C 16.078125 1.332031 15.671875 -0.125 15.453125 -1.40625 C 15.234375 -2.695312 15.207031 -3.859375 15.375 -4.890625 C 15.539062 -5.929688 15.914062 -6.878906 16.5 -7.734375 C 17.09375 -8.585938 17.914062 -9.390625 18.96875 -10.140625 C 20.59375 -11.304688 22.273438 -11.929688 24.015625 -12.015625 C 25.765625 -12.097656 27.476562 -11.664062 29.15625 -10.71875 C 30.832031 -9.78125 32.363281 -8.347656 33.75 -6.421875 C 34.445312 -5.460938 35.003906 -4.421875 35.421875 -3.296875 C 35.847656 -2.171875 36.140625 -1.050781 36.296875 0.0625 C 36.460938 1.175781 36.445312 2.203125 36.25 3.140625 C 36.164062 3.554688 35.960938 3.890625 35.640625 4.140625 C 35.328125 4.390625 34.9375 4.488281 34.46875 4.4375 L 29.0625 3.9375 C 28.40625 3.882812 27.972656 3.6875 27.765625 3.34375 C 27.554688 3.007812 27.421875 2.5625 27.359375 2 C 27.304688 1.269531 27.191406 0.578125 27.015625 -0.078125 C 26.835938 -0.742188 26.609375 -1.273438 26.328125 -1.671875 C 25.929688 -2.222656 25.546875 -2.585938 25.171875 -2.765625 C 24.804688 -2.953125 24.476562 -2.941406 24.1875 -2.734375 C 23.78125 -2.441406 23.6875 -1.820312 23.90625 -0.875 C 24.125 0.0703125 24.503906 1.289062 25.046875 2.78125 C 25.421875 3.769531 25.742188 4.738281 26.015625 5.6875 C 26.285156 6.644531 26.460938 7.570312 26.546875 8.46875 C 26.640625 9.363281 26.601562 10.234375 26.4375 11.078125 C 26.269531 11.921875 25.914062 12.734375 25.375 13.515625 C 24.832031 14.304688 24.066406 15.054688 23.078125 15.765625 C 21.828125 16.671875 20.523438 17.242188 19.171875 17.484375 C 17.816406 17.734375 16.476562 17.6875 15.15625 17.34375 C 13.832031 17 12.566406 16.390625 11.359375 15.515625 C 10.160156 14.648438 9.082031 13.554688 8.125 12.234375 Z M 8.125 12.234375 "/></g></g></g><g fill="#1c2247" fill-opacity="1"><g transform="translate(99.038926, 333.205264)"><g><path d="M 27.0625 -20.46875 C 28.851562 -19.539062 30.351562 -18.414062 31.5625 -17.09375 C 32.78125 -15.769531 33.6875 -14.328125 34.28125 -12.765625 C 34.875 -11.210938 35.125 -9.601562 35.03125 -7.9375 C 34.945312 -6.269531 34.492188 -4.628906 33.671875 -3.015625 C 32.847656 -1.421875 31.785156 -0.117188 30.484375 0.890625 C 29.191406 1.910156 27.738281 2.628906 26.125 3.046875 C 24.519531 3.460938 22.828125 3.550781 21.046875 3.3125 C 19.273438 3.082031 17.492188 2.503906 15.703125 1.578125 L 13.1875 0.296875 L 11.125 4.3125 C 10.957031 4.644531 10.707031 4.859375 10.375 4.953125 C 10.050781 5.046875 9.703125 4.992188 9.328125 4.796875 L 3.46875 1.78125 C 3.101562 1.59375 2.867188 1.34375 2.765625 1.03125 C 2.671875 0.726562 2.710938 0.40625 2.890625 0.0625 L 15.71875 -24.828125 C 15.894531 -25.171875 16.144531 -25.394531 16.46875 -25.5 C 16.800781 -25.601562 17.132812 -25.570312 17.46875 -25.40625 L 20.625 -23.78125 C 21.21875 -23.46875 21.757812 -23.179688 22.25 -22.921875 C 22.75 -22.671875 23.117188 -22.484375 23.359375 -22.359375 Z M 18.8125 -5.859375 C 19.71875 -5.398438 20.609375 -5.148438 21.484375 -5.109375 C 22.359375 -5.078125 23.148438 -5.25 23.859375 -5.625 C 24.566406 -6 25.113281 -6.554688 25.5 -7.296875 C 25.882812 -8.046875 26.019531 -8.8125 25.90625 -9.59375 C 25.789062 -10.382812 25.46875 -11.128906 24.9375 -11.828125 C 24.40625 -12.523438 23.6875 -13.101562 22.78125 -13.5625 L 20.84375 -14.5625 L 16.875 -6.859375 Z M 18.8125 -5.859375 "/></g></g></g><g fill="#1c2247" fill-opacity="1"><g transform="translate(137.556202, 350.659291)"><g><path d="M 19.1875 -25.484375 L 11.640625 2.21875 C 11.484375 2.8125 11.109375 3.023438 10.515625 2.859375 L 3.421875 0.9375 C 2.816406 0.769531 2.59375 0.390625 2.75 -0.203125 L 10.296875 -27.90625 C 10.460938 -28.507812 10.847656 -28.726562 11.453125 -28.5625 L 18.546875 -26.640625 C 19.140625 -26.472656 19.351562 -26.085938 19.1875 -25.484375 Z M 19.1875 -25.484375 "/></g></g></g><g fill="#1c2247" fill-opacity="1"><g transform="translate(163.851519, 357.268293)"><g><path d="M 27.609375 -6.484375 C 27.992188 -6.460938 28.285156 -6.34375 28.484375 -6.125 C 28.691406 -5.90625 28.785156 -5.609375 28.765625 -5.234375 L 28.4375 0.453125 C 28.414062 0.804688 28.289062 1.082031 28.0625 1.28125 C 27.84375 1.476562 27.539062 1.566406 27.15625 1.546875 L 1.859375 0.109375 C 1.472656 0.0859375 1.160156 -0.0390625 0.921875 -0.28125 C 0.691406 -0.519531 0.585938 -0.804688 0.609375 -1.140625 C 0.628906 -1.460938 0.695312 -1.75 0.8125 -2 C 0.925781 -2.257812 1.039062 -2.472656 1.15625 -2.640625 L 14.546875 -21.765625 L 4.890625 -22.28125 C 4.515625 -22.300781 4.226562 -22.425781 4.03125 -22.65625 C 3.832031 -22.882812 3.742188 -23.1875 3.765625 -23.5625 L 4.078125 -29.203125 C 4.097656 -29.554688 4.21875 -29.835938 4.4375 -30.046875 C 4.664062 -30.253906 4.96875 -30.347656 5.34375 -30.328125 L 28.234375 -29.046875 C 28.628906 -29.023438 28.925781 -28.894531 29.125 -28.65625 C 29.320312 -28.425781 29.410156 -28.132812 29.390625 -27.78125 C 29.378906 -27.550781 29.328125 -27.335938 29.234375 -27.140625 C 29.140625 -26.953125 29.035156 -26.769531 28.921875 -26.59375 L 15.625 -7.15625 Z M 27.609375 -6.484375 "/></g></g></g><g fill="#1c2247" fill-opacity="1"><g transform="translate(206.702805, 357.960607)"><g><path d="M 25.015625 -13.34375 C 25.398438 -13.414062 25.71875 -13.367188 25.96875 -13.203125 C 26.21875 -13.046875 26.382812 -12.785156 26.46875 -12.421875 L 27.609375 -6.84375 C 27.679688 -6.488281 27.632812 -6.1875 27.46875 -5.9375 C 27.300781 -5.695312 27.023438 -5.539062 26.640625 -5.46875 L 1.828125 -0.375 C 1.441406 -0.300781 1.101562 -0.347656 0.8125 -0.515625 C 0.53125 -0.679688 0.359375 -0.925781 0.296875 -1.25 C 0.234375 -1.570312 0.222656 -1.867188 0.265625 -2.140625 C 0.316406 -2.421875 0.375 -2.65625 0.4375 -2.84375 L 8.484375 -24.75 L -0.984375 -22.78125 C -1.347656 -22.695312 -1.65625 -22.742188 -1.90625 -22.921875 C -2.15625 -23.097656 -2.316406 -23.367188 -2.390625 -23.734375 L -3.53125 -29.265625 C -3.601562 -29.617188 -3.554688 -29.921875 -3.390625 -30.171875 C -3.234375 -30.429688 -2.972656 -30.601562 -2.609375 -30.6875 L 19.859375 -35.3125 C 20.242188 -35.382812 20.5625 -35.332031 20.8125 -35.15625 C 21.0625 -34.988281 21.222656 -34.726562 21.296875 -34.375 C 21.335938 -34.15625 21.335938 -33.941406 21.296875 -33.734375 C 21.265625 -33.523438 21.21875 -33.316406 21.15625 -33.109375 L 13.265625 -10.921875 Z M 25.015625 -13.34375 "/></g></g></g><g fill="#1c2247" fill-opacity="1"><g transform="translate(248.418336, 347.717456)"><g><path d="M 27.15625 -15.3125 C 27.476562 -15.039062 27.628906 -14.75 27.609375 -14.4375 C 27.597656 -14.125 27.382812 -13.859375 26.96875 -13.640625 L 20.421875 -10.328125 C 20.097656 -10.160156 19.753906 -10.109375 19.390625 -10.171875 C 19.035156 -10.242188 18.734375 -10.398438 18.484375 -10.640625 L 16.90625 -12.203125 L 8.578125 -7.984375 L 8.890625 -5.8125 C 8.941406 -5.488281 8.894531 -5.160156 8.75 -4.828125 C 8.601562 -4.492188 8.347656 -4.234375 7.984375 -4.046875 L 1.453125 -0.734375 C 1.054688 -0.535156 0.71875 -0.515625 0.4375 -0.671875 C 0.164062 -0.828125 0.015625 -1.125 -0.015625 -1.5625 L -1.75 -32.6875 C -1.769531 -33.101562 -1.6875 -33.472656 -1.5 -33.796875 C -1.320312 -34.117188 -1.085938 -34.359375 -0.796875 -34.515625 L 1.140625 -35.484375 C 1.472656 -35.660156 1.820312 -35.710938 2.1875 -35.640625 C 2.550781 -35.566406 2.875 -35.410156 3.15625 -35.171875 Z M 7.578125 -15.046875 L 11.8125 -17.1875 L 6.53125 -22.328125 Z M 7.578125 -15.046875 "/></g></g></g></svg>