<?xml version="1.0" encoding="UTF-8"?>
<svg id="logo" xmlns="http://www.w3.org/2000/svg" viewBox="0 0 331.52 90.94">
    <path
        d="M26.88,30.21h-15V2.42c0-.4-.11-.7-.33-.9-.21-.19-.49-.29-.85-.29H1.19c-.36,0-.66.1-.88.29-.21.2-.31.49-.31.9v36.96c0,.38.1.67.31.88.22.21.51.31.88.31h25.69c.79,0,1.19-.4,1.19-1.19v-7.98c0-.36-.1-.65-.31-.85-.21-.22-.5-.33-.88-.33Z"
        style="fill:currentColor; stroke-width:0px;" />
    <path
        d="M57.35,2.02c-.18-.43-.46-.79-.83-1.08-.36-.29-.79-.44-1.27-.44h-2.79c-.43,0-.85.14-1.25.4-.39.25-.7.62-.92,1.12l-16.08,36.73c-.24.54-.24.98-.02,1.31.23.33.64.5,1.21.5h9.42c.53,0,.97-.15,1.33-.46.36-.3.61-.65.75-1.04l.9-2.67h12l.9,2.69c.15.43.42.79.79,1.08.38.28.79.42,1.25.42h9.46c.61,0,1.01-.17,1.21-.52.19-.36.18-.79-.04-1.29L57.35,2.02ZM50.74,27.69l3.02-8.96,3.06,8.96h-6.08Z"
        style="fill:currentColor; stroke-width:0px;" />
    <path
        d="M110.92,21.06c-.96-.89-2.05-1.55-3.27-1.98.82-.43,1.53-.99,2.15-1.69.61-.69,1.09-1.48,1.44-2.38.34-.89.52-1.82.52-2.81,0-1.54-.35-2.97-1.06-4.29-.71-1.33-1.7-2.5-2.96-3.5-1.27-1.01-2.74-1.8-4.42-2.35-1.67-.55-3.47-.83-5.4-.83h-15.23c-.36,0-.66.1-.88.29-.21.2-.31.49-.31.9v36.96c0,.38.1.67.31.88.22.21.51.31.88.31h16.33c2.11,0,4.07-.32,5.88-.96,1.82-.65,3.4-1.55,4.75-2.71,1.36-1.17,2.42-2.52,3.19-4.06.78-1.54,1.17-3.2,1.17-4.98,0-1.32-.28-2.56-.83-3.73-.54-1.17-1.29-2.19-2.25-3.06ZM93.38,11.83h4.54c.71,0,1.3.22,1.79.65.5.42.75.93.75,1.54,0,.64-.25,1.19-.75,1.65-.49.46-1.08.69-1.79.69h-4.54v-4.52ZM101.67,28.52c-.29.43-.7.77-1.21,1.02-.5.25-1.06.38-1.69.38h-5.4v-6.19h5.4c.62,0,1.19.15,1.69.44.51.29.92.7,1.21,1.21.29.52.44,1.08.44,1.69,0,.54-.15,1.03-.44,1.46Z"
        style="fill:currentColor; stroke-width:0px;" />
    <path
        d="M124.59,40.56h28.48c.5,0,.9-.15,1.19-.46.3-.3.46-.69.46-1.17v-7.44c0-.65-.21-1.18-.62-1.58-.41-.4-.96-.6-1.67-.6h-17.62v-3.44h12.75c.59,0,1.06-.15,1.4-.46.34-.32.52-.74.52-1.27v-5.29c0-.57-.18-1.01-.52-1.31-.33-.32-.8-.48-1.4-.48h-12.75v-4.58h17.75c.53,0,.94-.15,1.23-.44.3-.3.46-.73.46-1.27V2.9c0-.51-.16-.92-.46-1.21-.29-.3-.7-.46-1.23-.46h-27.96c-.53,0-.94.15-1.23.44-.29.29-.44.7-.44,1.23v36.04c0,.47.15.86.44,1.17.29.31.7.46,1.23.46Z"
        style="fill:currentColor; stroke-width:0px;" />
    <path
        d="M165.69,40.56h25.69c.79,0,1.19-.4,1.19-1.19v-7.98c0-.36-.1-.65-.31-.85-.21-.22-.5-.33-.88-.33h-15V2.42c0-.4-.11-.7-.33-.9-.21-.19-.49-.29-.85-.29h-9.5c-.36,0-.66.1-.88.29-.21.2-.31.49-.31.9v36.96c0,.38.1.67.31.88.22.21.51.31.88.31Z"
        style="fill:currentColor; stroke-width:0px;" />
    <path
        d="M202.35,40.56h25.69c.79,0,1.19-.4,1.19-1.19v-7.98c0-.36-.1-.65-.31-.85-.21-.22-.5-.33-.88-.33h-15V2.42c0-.4-.11-.7-.33-.9-.21-.19-.49-.29-.85-.29h-9.5c-.36,0-.66.1-.88.29-.21.2-.31.49-.31.9v36.96c0,.38.1.67.31.88.22.21.51.31.88.31Z"
        style="fill:currentColor; stroke-width:0px;" />
    <path
        d="M258.51,2.02c-.18-.43-.46-.79-.83-1.08-.36-.29-.79-.44-1.27-.44h-2.79c-.43,0-.85.14-1.25.4-.39.25-.7.62-.92,1.12l-16.08,36.73c-.24.54-.24.98-.02,1.31.23.33.64.5,1.21.5h9.42c.53,0,.97-.15,1.33-.46.36-.3.61-.65.75-1.04l.9-2.67h12l.9,2.69c.15.43.42.79.79,1.08.38.28.79.42,1.25.42h9.46c.61,0,1.01-.17,1.21-.52.19-.36.18-.79-.04-1.29l-16-36.75ZM251.9,27.69l3.02-8.96,3.06,8.96h-6.08Z"
        style="fill:currentColor; stroke-width:0px;" />
    <path
        d="M289.12.83c-.82-.55-1.73-.83-2.73-.83s-1.85.23-2.62.69c-.78.46-1.4,1.07-1.85,1.83-.45.75-.67,1.6-.67,2.56,0,.91.17,1.72.52,2.46.36.72.84,1.3,1.44,1.73.61.42,1.28.62,2.02.62h.4c.08-.01.15-.03.19-.04.04.04.07.1.08.19.03.08.04.18.04.29,0,.21-.1.51-.29.9-.2.39-.43.81-.71,1.27-.28.46-.54.89-.77,1.29-.21.38-.3.74-.27,1.1.03.35.17.59.42.73l2.54,1.38c.29.17.6.22.94.15.34-.08.6-.26.77-.54.72-1.14,1.32-2.23,1.81-3.27.48-1.04.84-2.14,1.08-3.29.25-1.15.38-2.45.38-3.9,0-1.15-.25-2.19-.75-3.1-.49-.93-1.14-1.67-1.96-2.21Z"
        style="fill:currentColor; stroke-width:0px;" />
    <path
        d="M330.9,24.25c-.42-1.15-1-2.13-1.75-2.94-.75-.82-1.64-1.52-2.65-2.1-1.02-.58-2.12-1.09-3.31-1.52-1.18-.43-2.43-.82-3.75-1.19-1.96-.55-3.52-1.07-4.69-1.54-1.16-.48-1.73-1.05-1.73-1.69,0-.47.23-.83.71-1.08.47-.25,1.15-.38,2.04-.38.61,0,1.32.16,2.12.48.82.31,1.65.71,2.48,1.21.62.36,1.19.56,1.69.6.51.03,1.05-.28,1.6-.92l4.58-5.29c.4-.44.59-.92.56-1.44-.02-.53-.21-.98-.58-1.38-.83-.9-1.89-1.69-3.17-2.38-1.28-.68-2.67-1.21-4.17-1.6-1.49-.4-3-.6-4.54-.6-3.06,0-5.71.52-7.96,1.56-2.24,1.03-3.97,2.49-5.19,4.38-1.22,1.89-1.83,4.12-1.83,6.69,0,1.67.21,3.14.65,4.4.44,1.25,1.15,2.35,2.1,3.31.96.95,2.19,1.79,3.71,2.54,1.53.74,3.36,1.42,5.5,2.04,1.23.36,2.23.68,3,.94.78.27,1.36.51,1.77.73.4.21.68.43.83.67.17.22.25.48.25.77,0,.45-.25.79-.75,1.04-.49.25-1.29.38-2.4.38-1.28,0-2.55-.3-3.81-.92-1.27-.61-2.46-1.34-3.58-2.21-.45-.34-.9-.53-1.35-.56-.45-.03-.82.12-1.12.46l-5.71,5.73c-.38.39-.6.8-.67,1.23-.07.42.02.79.27,1.12,1.07,1.32,2.46,2.47,4.19,3.46,1.72.97,3.64,1.72,5.75,2.25,2.11.53,4.3.79,6.56.79,2.11,0,4.07-.3,5.88-.9,1.82-.61,3.4-1.48,4.75-2.6,1.36-1.12,2.42-2.48,3.19-4.08.76-1.61,1.15-3.41,1.15-5.4,0-1.57-.21-2.92-.62-4.06Z"
        style="fill:currentColor; stroke-width:0px;" />
    <path
        d="M103.51,64.84c-1.2-1.08-2.6-1.92-4.23-2.52-1.62-.59-3.41-.9-5.35-.9h-10.4c-.36,0-.66.12-.9.35-.24.24-.35.54-.35.92v27c0,.38.1.68.31.9.22.22.53.33.94.33h6.35c.4,0,.72-.11.96-.33.23-.23.35-.53.35-.9v-4.35h2.73c1.94,0,3.73-.28,5.35-.85,1.62-.58,3.03-1.41,4.23-2.48,1.21-1.07,2.14-2.32,2.79-3.77.67-1.46,1-3.05,1-4.79s-.33-3.35-1-4.81c-.66-1.46-1.58-2.72-2.79-3.79ZM97.74,75.57c-.45.62-1.05,1.12-1.81,1.48-.77.36-1.64.54-2.6.54h-2.12v-8.38h2.12c.97,0,1.84.18,2.6.54.76.36,1.36.85,1.81,1.48.44.62.67,1.35.67,2.17s-.22,1.53-.67,2.17Z"
        style="fill:currentColor; stroke-width:0px;" />
    <rect x="120.93" y="61.42" width="8.9" height="29.5" rx=".9" ry=".9" style="fill:currentColor; stroke-width:0px;" />
    <path
        d="M168.55,83.17h-11.58l11.77-19.44c.09-.18.18-.36.25-.54.08-.19.12-.4.12-.62,0-.34-.1-.62-.31-.83-.21-.21-.5-.31-.88-.31h-22.12c-.36,0-.65.1-.85.31-.2.21-.29.49-.29.83v5.46c0,.36.09.65.29.85.21.21.49.31.85.31l9.33-.02-11.85,19.15c-.11.17-.22.39-.31.65-.1.25-.15.53-.15.83,0,.32.11.59.35.81.25.21.55.31.92.31l24.46.02c.36,0,.65-.09.85-.29.21-.21.31-.48.31-.83v-5.5c0-.36-.1-.64-.31-.83-.21-.21-.49-.31-.85-.31Z"
        style="fill:currentColor; stroke-width:0px;" />
    <path
        d="M207.13,83.17h-11.58l11.77-19.44c.09-.18.18-.36.25-.54.08-.19.12-.4.12-.62,0-.34-.1-.62-.31-.83-.21-.21-.5-.31-.88-.31h-22.12c-.36,0-.65.1-.85.31-.2.21-.29.49-.29.83v5.46c0,.36.09.65.29.85.21.21.49.31.85.31l9.33-.02-11.85,19.15c-.11.17-.22.39-.31.65-.1.25-.15.53-.15.83,0,.32.11.59.35.81.25.21.55.31.92.31l24.46.02c.36,0,.65-.09.85-.29.21-.21.31-.48.31-.83v-5.5c0-.36-.1-.64-.31-.83-.21-.21-.49-.31-.85-.31Z"
        style="fill:currentColor; stroke-width:0px;" />
    <path
        d="M237.51,62.02c-.12-.32-.33-.59-.6-.81-.28-.22-.6-.33-.98-.33h-2.08c-.33,0-.65.1-.94.29-.29.2-.53.48-.71.85l-12.04,27.54c-.17.41-.17.73,0,.98.17.25.46.38.9.38h7.06c.39,0,.71-.11.98-.33.28-.23.46-.5.56-.79l.69-2h9l.67,2.02c.12.32.32.59.6.81.28.21.59.31.94.31h7.08c.46,0,.76-.13.9-.4.15-.26.15-.58-.02-.96l-12-27.56ZM232.55,81.27l2.27-6.73,2.29,6.73h-4.56Z"
        style="fill:currentColor; stroke-width:0px;" />
</svg>